<svg width="178" height="283" viewBox="0 0 178 283" fill="none" xmlns="http://www.w3.org/2000/svg">
<path d="M166 7L166 161" stroke="#E0E0E0" stroke-width="3"/>
<circle cx="166" cy="7" r="7" transform="rotate(90 166 7)" fill="#E0E0E0"/>
<path d="M14 128.5L127.6 128.5L127.6 125.5L14 125.5L14 128.5ZM164.5 165.4L164.5 280L167.5 280L167.5 165.4L164.5 165.4ZM127.6 128.5C134.345 128.5 139.314 128.501 143.241 128.822C147.15 129.141 149.895 129.77 152.215 130.952L153.577 128.279C150.763 126.846 147.58 126.167 143.485 125.832C139.408 125.499 134.296 125.5 127.6 125.5L127.6 128.5ZM167.5 165.4C167.5 158.704 167.501 153.592 167.168 149.515C166.833 145.42 166.154 142.237 164.721 139.423L162.048 140.785C163.23 143.105 163.859 145.85 164.178 149.759C164.499 153.686 164.5 158.655 164.5 165.4L167.5 165.4ZM152.215 130.952C156.448 133.11 159.89 136.552 162.048 140.785L164.721 139.423C162.276 134.625 158.375 130.724 153.577 128.279L152.215 130.952Z" fill="#E0E0E0"/>
<path d="M164.939 282.061C165.525 282.646 166.475 282.646 167.061 282.061L176.607 272.515C177.192 271.929 177.192 270.979 176.607 270.393C176.021 269.808 175.071 269.808 174.485 270.393L166 278.879L157.515 270.393C156.929 269.808 155.979 269.808 155.393 270.393C154.808 270.979 154.808 271.929 155.393 272.515L164.939 282.061ZM164.5 280L164.5 281L167.5 281L167.5 280L164.5 280Z" fill="#E0E0E0"/>
<rect x="14" y="120" width="14" height="14" rx="7" transform="rotate(90 14 120)" fill="#E0E0E0"/>
</svg>
