<svg width="163" height="530" fill="none" xmlns="http://www.w3.org/2000/svg">
  <path d="M8.5 14v143.6h-3V14h3zm36.9 180.5H160v3H45.4v-3zM8.5 157.6c0 6.745.001 11.714.322 15.641.32 3.909.948 6.654 2.13 8.974l-2.673 1.362c-1.433-2.814-2.112-5.997-2.447-10.092-.333-4.077-.332-9.189-.332-15.885h3zm36.9 39.9c-6.696 0-11.808.001-15.885-.332-4.095-.335-7.278-1.014-10.092-2.447l1.362-2.673c2.32 1.182 5.065 1.811 8.974 2.13 3.927.321 8.896.322 15.641.322v3zm-34.448-15.285a22.508 22.508 0 009.833 9.833l-1.362 2.673A25.502 25.502 0 018.28 183.577l2.673-1.362z" fill="#E0E0E0"/>
  <path d="M162.061 194.939a1.502 1.502 0 010 2.122l-9.546 9.546a1.502 1.502 0 01-2.122 0 1.502 1.502 0 010-2.122l8.486-8.485-8.486-8.485a1.502 1.502 0 010-2.122 1.502 1.502 0 012.122 0l9.546 9.546zM160 194.5h1v3h-1v-3z" fill="#E0E0E0"/>
  <rect width="14" height="14" rx="7" transform="matrix(1 0 0 -1 0 14)" fill="#E0E0E0"/>
  <path d="M8.5 336v143.6h-3V336h3zm36.9 180.5H160v3H45.4v-3zM8.5 479.6c0 6.745.001 11.714.322 15.641.32 3.909.948 6.654 2.13 8.974l-2.673 1.362c-1.433-2.814-2.112-5.997-2.447-10.092-.333-4.077-.332-9.189-.332-15.885h3zm36.9 39.9c-6.696 0-11.808.001-15.885-.332-4.095-.335-7.278-1.014-10.092-2.447l1.362-2.673c2.32 1.182 5.065 1.811 8.974 2.13 3.927.321 8.896.322 15.641.322v3zm-34.448-15.285a22.508 22.508 0 009.833 9.833l-1.362 2.673A25.502 25.502 0 018.28 505.577l2.673-1.362z" fill="#E0E0E0"/>
  <path d="M162.061 516.939a1.502 1.502 0 010 2.122l-9.546 9.546a1.502 1.502 0 01-2.122 0 1.502 1.502 0 010-2.122l8.486-8.485-8.486-8.485a1.502 1.502 0 010-2.122 1.502 1.502 0 012.122 0l9.546 9.546zM160 516.5h1v3h-1v-3z" fill="#E0E0E0"/>
  <path d="M7 143v284" stroke="#E0E0E0" stroke-width="3"/>
</svg>
