<svg viewBox="0 0 347 190" fill="none" xmlns="http://www.w3.org/2000/svg">
  <g clip-path="url(#projectlink-work-together__clip0)">
    <path d="M345.537.155H71.315v174.973h274.222V.155z" fill="#E6E6E6"/>
    <path d="M194.561 23.65H95.563V125h98.998V23.65zm136.025 1.966h-98.998V148.71h98.998V25.616z" fill="#fff"/>
    <path d="M329.266 187.849c9.794 0 17.734-1.13 17.734-2.524 0-1.394-7.94-2.524-17.734-2.524s-17.734 1.13-17.734 2.524c0 1.394 7.94 2.524 17.734 2.524zm-177.301.057c9.795 0 17.734-1.13 17.734-2.524 0-1.394-7.939-2.524-17.734-2.524-9.794 0-17.733 1.13-17.733 2.524 0 1.394 7.939 2.524 17.733 2.524zM40.7 184.8c22.478 0 40.7-.87 40.7-1.942s-18.222-1.941-40.7-1.941-40.7.869-40.7 1.941 18.222 1.942 40.7 1.942z" fill="#E6E6E6"/>
    <path d="M345.42 0H71.197v11.607H345.42V0z" fill="#FF6363"/>
    <path d="M79.855 8.085a2.155 2.155 0 002.159-2.151 2.155 2.155 0 00-2.16-2.151 2.154 2.154 0 00-2.158 2.15c0 1.189.966 2.152 2.159 2.152zm8.195 0c1.193 0 2.16-.963 2.16-2.151a2.155 2.155 0 00-2.16-2.151 2.155 2.155 0 00-2.159 2.15c0 1.189.967 2.152 2.16 2.152zm8.197 0a2.155 2.155 0 002.159-2.151 2.155 2.155 0 00-2.16-2.151 2.155 2.155 0 00-2.159 2.15c0 1.189.967 2.152 2.16 2.152z" fill="#E6E6E6"/>
    <path d="M308.759 58.635h-.599V42.267a9.473 9.473 0 00-2.785-6.699 9.52 9.52 0 00-6.724-2.774h-34.806a9.537 9.537 0 00-6.723 2.775 9.473 9.473 0 00-2.785 6.698v89.793a9.471 9.471 0 005.87 8.752 9.537 9.537 0 003.638.721h34.806a9.542 9.542 0 006.724-2.774 9.471 9.471 0 002.785-6.699V70.285h.599v-11.65z" fill="#3F3D56"/>
    <path d="M298.645 35.258h-4.543a3.354 3.354 0 01-1.538 4.236 3.38 3.38 0 01-1.586.395h-19.939a3.365 3.365 0 01-3.356-3.018 3.342 3.342 0 01.232-1.613h-4.243a7.127 7.127 0 00-5.021 2.072 7.068 7.068 0 00-2.08 5.003v89.661a7.065 7.065 0 004.383 6.536 7.118 7.118 0 002.718.539h34.973a7.11 7.11 0 006.56-4.368 7.047 7.047 0 00.541-2.707V42.333a7.06 7.06 0 00-2.08-5.003 7.115 7.115 0 00-5.021-2.072z" fill="#fff"/>
    <path d="M179.535 87.67h-68.809v3.128h68.809V87.67z" fill="#E6E6E6"/>
    <path d="M179.535 97.767h-68.809v3.127h68.809v-3.127z" fill="#FF6363"/>
    <path d="M179.535 107.863h-68.809v3.127h68.809v-3.127zm122.098-13.369h-40.17v3.127h40.17v-3.127zm0 9.707h-40.17v3.127h40.17v-3.127zm0 9.708h-40.17v3.127h40.17v-3.127z" fill="#E6E6E6"/>
    <path d="M305.833 162.465v-6.67h-6.695v6.67h6.695z" fill="#3F3D56"/>
    <path d="M295.047 162.465v-6.67h-6.695v6.67h6.695z" fill="#FF6363"/>
    <path d="M284.26 162.465v-6.67h-6.695v6.67h6.695zm-10.786 0v-6.67h-6.695v6.67h6.695zm-10.786 0v-6.67h-6.695v6.67h6.695z" fill="#3F3D56"/>
    <path d="M292.317 53.971H270v22.234h22.317V53.97z" fill="#FF6363"/>
    <path d="M136.261 107.015l-.289.576-.867-4.317s-1.155-4.605 1.156-4.605c2.31 0 1.733 4.605 1.733 4.605v3.166l-1.733.575zm37.9-.589l.289.576.866-4.317s1.156-4.604-1.155-4.604-1.733 4.604-1.733 4.604v3.166l1.733.575z" fill="#A0616A"/>
    <path d="M148.97 139.38l-3.466 21.296 1.733 20.721 4.044-1.726-.577-15.541 4.044-12.375.866 14.677-1.733 15.253 5.2.576 3.755-31.37-.289-10.648-13.577-.863z" fill="#2F2E41"/>
    <path d="M148.97 178.807l-2.022 3.166v7.074a.857.857 0 00.724.846c.991.162 2.717.277 3.321-.725.866-1.439.288-4.605.288-4.605s1.156-2.302.578-4.029c-.578-1.727-1.155-2.014-1.155-2.014l-1.734.287zm8.666 2.878l.578.863s.867.864.289 1.439c-.424.447-.811.929-1.156 1.439 0 0-3.177.863-3.177-.288v-3.741l3.466.288z" fill="#2F2E41"/>
    <path d="M156.595 115.957a3.822 3.822 0 003.829-3.815 3.822 3.822 0 00-3.829-3.815 3.822 3.822 0 00-3.829 3.815 3.822 3.822 0 003.829 3.815z" fill="#A0616A"/>
    <path d="M154.026 113.335l-.289 5.468 5.199.288-.289-5.468-4.621-.288z" fill="#A0616A"/>
    <path d="M159.658 119.235l-.82-1.996s-3.801-1.458-4.957-.019l-.578 1.727-4.621-1.151-2.6 5.756 2.311 16.404s6.066 7.77 14.154.287l2.311-15.54-1.733-6.044-3.467.576z" fill="#575A89"/>
    <path d="M162.547 119.81l.578-1.151 5.777-3.454 3.526-10.397 2.728 1.165-3.077 12.398-8.377 7.77-1.155-6.331zm-13.288-1.439l-.577-.575-6.067-3.741-4.332-8.634-3.467 1.151 3.755 10.648 9.244 7.483 1.444-6.332z" fill="#575A89"/>
    <path d="M159.437 106.3l.626-.312-.939-.312v-.312s-4.695-1.871-5.321 1.248a6.252 6.252 0 000 7.485v.935l5.008.624.626-1.871s3.131-5.614 0-7.485z" fill="#2F2E41"/>
    <path d="M44.857 139.718l-1.113.554s-4.452 2.033-3.153 3.142c1.298 1.109 4.822-1.109 4.822-1.109l.742-.924-1.298-1.663z" fill="#FFB8B8"/>
    <path d="M77.418 139.441l-3.44 23.007-5.194 16.077-2.782-1.294 2.597-21.99-7.42-6.284.557-9.24 15.682-.276z" fill="#2F2E41"/>
    <path d="M65.631 177.786s3.153-1.663 3.339.739l-.371 2.402s1.113 4.251-2.597 3.327c-3.71-.924-1.113-3.696-1.113-3.696l.742-2.772zm-2.041-30.861l-2.41 2.033s0 12.566 1.669 14.414c1.67 1.848 12.242 11.272 12.613 11.642.371.37 2.04-3.696 2.04-3.696l-10.016-11.642.742-7.207-4.637-5.544z" fill="#2F2E41"/>
    <path d="M76.39 170.764s2.967-.555 2.967 1.478c.037 1.607.161 3.211.371 4.805 0 0 .742 6.468-1.67 5.544-2.41-.924-3.338-7.392-3.338-7.392a2.76 2.76 0 011.113-1.294c.742-.369.556-3.141.556-3.141z" fill="#2F2E41"/>
    <path d="M67.115 111.998l.557 6.838-1.484 2.587-4.08-3.881-.372-5.174 5.38-.37z" fill="#FFB8B8"/>
    <path d="M63.776 114.216a4.444 4.444 0 004.452-4.436c0-2.449-1.993-4.435-4.452-4.435a4.443 4.443 0 00-4.451 4.435 4.444 4.444 0 004.451 4.436z" fill="#FFB8B8"/>
    <path d="M65.631 118.651l1.855-5.359 3.339 3.696 6.12 23.469-4.636 2.772-2.04-2.957-.371 3.881-9.09-1.848-.741-24.763 1.853-2.601 3.711 3.71z" fill="#D0CDE1"/>
    <path d="M63.034 144.892l-1.112-29.937-2.412 1.848-4.452 2.957 2.968 10.533.928 11.088 4.08 3.511z" fill="#2F2E41"/>
    <path d="M56.357 119.944l-1.299-.185-3.71 10.903-7.419 9.24 2.783 2.957 8.532-8.316 3.153-6.837-2.04-7.762z" fill="#2F2E41"/>
    <path d="M76.614 139.887l-.254 1.213s-1.157 4.741.52 4.413c1.679-.328 2.116-4.458 2.116-4.458l-.268-1.153-2.114-.015z" fill="#FFB8B8"/>
    <path d="M67.196 112.992l9.193 3.626-1.112 11.088 2.225 12.197-2.225 2.402-8.23-27.743.15-1.57zm-3.186-10.66l1.306-.651v.651l.871-.434v1.085s3.267 2.386 2.614 5.207c-.654 2.821-.654 3.038-.654 3.038s-.826-5.365-4.092-4.497c-3.267.868-3.53 1.025-4.401 3.412l-.237 1.023s-3.683-8.4 4.593-8.834z" fill="#2F2E41"/>
    <path d="M75.091 116.618h1.484l2.411 12.936v11.273l-2.967-.555-2.412-17.001 1.484-6.653z" fill="#2F2E41"/>
    <path d="M56.069 143.975H1.378v37.864h54.69v-37.864z" fill="#FF6363"/>
    <path d="M28.723 151.362c-2.291 0-4.532.677-6.437 1.946a11.548 11.548 0 00-4.268 5.181 11.504 11.504 0 00-.66 6.67 11.529 11.529 0 003.172 5.91 11.602 11.602 0 005.933 3.16c2.247.445 4.577.216 6.694-.657a11.583 11.583 0 005.2-4.252 11.512 11.512 0 001.953-6.414 11.557 11.557 0 00-3.403-8.153 11.643 11.643 0 00-8.184-3.391zm0 3.464a3.472 3.472 0 013.212 2.137 3.452 3.452 0 01-.754 3.775 3.486 3.486 0 01-5.348-.525 3.455 3.455 0 01-.586-1.924 3.47 3.47 0 011.022-2.446 3.493 3.493 0 012.454-1.017zm0 16.672a8.438 8.438 0 01-6.952-3.696c.056-2.309 4.635-3.58 6.952-3.58 2.318 0 6.897 1.271 6.952 3.58a8.445 8.445 0 01-3.017 2.704 8.487 8.487 0 01-3.935.992z" fill="#fff"/>
    <path d="M179.36 35.3h-68.597v39.22h68.597V35.3z" fill="#E6E6E6"/>
    <path d="M315.001 113.089l.318-2.043s1.853-4.195.388-4.422c-1.464-.226-2.685 3.769-2.685 3.769l.535 4.266 1.444-1.57z" fill="#FFB8B8"/>
    <path d="M329.994 124.667l-13.088-2.619-1.521-9.497-3.853-.297.189 12.28 11.371 5.94 6.902-5.807z" fill="#575A89"/>
    <path opacity=".2" d="M329.994 124.667l-13.088-2.619-1.521-9.497-3.853-.297.189 12.28 11.371 5.94 6.902-5.807z" fill="#000"/>
    <path d="M294.387 110.577h40.17v-3.127h-40.17v3.127z" fill="#FF6363"/>
    <path d="M312.444 112.389l.003-2.067s1.191-4.428-.291-4.429c-1.482-.002-2.08 4.131-2.08 4.131l1.18 4.135 1.188-1.77z" fill="#FFB8B8"/>
    <path d="M329.481 118.308l1.796-.436a4.629 4.629 0 003.582-1.687 4.598 4.598 0 00.955-3.831 5.998 5.998 0 00-1.764-4.26 6.052 6.052 0 00-4.271-1.768 6.051 6.051 0 00-5.588 3.709 6.014 6.014 0 00-.463 2.304 4.768 4.768 0 001.152 4.634 4.817 4.817 0 004.601 1.335zm-10.562 29.816l1.462 15.946 2.647 15.653 4.446.005-.574-15.354-2.347-18.605-5.634 2.355z" fill="#2F2E41"/>
    <path d="M323.622 178.837l-2.966 1.768s-4.742.585-3.855 2.062c.887 1.478 11.261.605 11.262.014.001-.59-.292-3.838-.884-3.839l-3.557-.005zm8.419-32.09s-.083 2.279-2.162 5.82l.283 10.925 10.652 13.596-3.857 3.243-13.022-14.78-3.237-17.72 4.154-4.128 7.189 3.044z" fill="#2F2E41"/>
    <path d="M339.925 177.086s3.555.595 2.961 2.071c-.595 1.476-2.085 8.265-5.937 7.374 0 0-1.778-.002-1.184-1.182.357-.71.754-1.4 1.188-2.066l.005-3.838 2.967-2.359z" fill="#2F2E41"/>
    <path d="M327.556 118.608c2.456 0 4.446-1.983 4.446-4.429s-1.99-4.429-4.446-4.429a4.437 4.437 0 00-4.445 4.429 4.437 4.437 0 004.445 4.429z" fill="#FFB8B8"/>
    <path d="M329.627 117.134l-.006 5.02-4.742-.006.599-5.019 4.149.005z" fill="#FFB8B8"/>
    <path d="M323.696 120.375l1.437-.352 4.49.36s2.368 2.365 2.071 2.955c-.297.59-1.797 15.056-1.797 15.056l2.654 10.338-9.484.578-4.741-.596.912-18.601s-2.068-5.022.601-6.495a11.665 11.665 0 003.857-3.243z" fill="#575A89"/>
    <path d="M329.029 121.563l-13.336-.607-2.952-9.157-3.853.29 2.059 12.109 12.146 4.149 5.936-6.784z" fill="#575A89"/>
    <path d="M336.138 110.916a2.862 2.862 0 002.868-2.857 2.863 2.863 0 00-2.868-2.858 2.863 2.863 0 00-2.868 2.858 2.862 2.862 0 002.868 2.857z" fill="#2F2E41"/>
    <path d="M333.491 106.523a2.855 2.855 0 012.176-2.77 2.882 2.882 0 011.257-.028 2.866 2.866 0 00-2.354-.043 2.87 2.87 0 00-1.592 1.728 2.838 2.838 0 00.243 2.333 2.871 2.871 0 001.915 1.365 2.861 2.861 0 01-1.645-2.585zm-2.46 1.62l-3.867-.709-2.973 1.856a4.498 4.498 0 00-1.684 1.89 4.472 4.472 0 00-.394 2.496l2.978-.752.667-1.666.794 1.297 3.222 5.613 3.262-1.768 2.079-3.245-4.084-5.012z" fill="#2F2E41"/>
    <path d="M110.957 34.963l-.387.674 68.596 39.219.388-.673-68.597-39.22z" fill="#fff"/>
    <path d="M179.168 34.966l-68.6 39.214.388.674 68.6-39.214-.388-.674zm91.281 18.698l-.551.55 22.216 22.133.551-.549-22.216-22.134z" fill="#fff"/>
    <path d="M292.114 53.665l-22.216 22.133.551.55 22.216-22.134-.551-.55z" fill="#fff"/>
  </g>
  <defs>
    <clipPath id="projectlink-work-together__clip0">
      <path fill="#fff" d="M0 0h347v190H0z"/>
    </clipPath>
  </defs>
</svg>
