<svg fill="none" xmlns="http://www.w3.org/2000/svg" viewBox="0 0 210 216">
  <g clip-path="url(#projectlink-notifications__clip0)">
    <path d="M21.064 190.153c3.535 8.421-.486 25.632-.486 25.632s-15.098-9.188-18.633-17.61c-3.534-8.422-2.119-17.044 3.16-19.26 5.28-2.215 12.425 2.816 15.96 11.238z" fill="#E6E6E6"/>
    <path d="M113.171 78.659a4.849 4.849 0 100-9.698 4.849 4.849 0 000 9.698zm0-32.119a4.849 4.849 0 100-9.697 4.849 4.849 0 000 9.698zm0-32.117a4.849 4.849 0 100-9.697 4.849 4.849 0 000 9.697z" fill="#FF6363"/>
    <path d="M130.83 0a1.463 1.463 0 00-1.46 1.46v16.229a1.458 1.458 0 001.46 1.46h77.71a1.463 1.463 0 001.46-1.46V1.459A1.462 1.462 0 00208.54 0h-77.71z" fill="#E6E6E6"/>
    <path d="M131.355 1.138a.846.846 0 00-.847.847v15.179a.85.85 0 00.847.846h76.66a.846.846 0 00.846-.846V1.984a.845.845 0 00-.846-.846h-76.66z" fill="#fff"/>
    <path d="M203.202 13.848a1.374 1.374 0 00.974-2.348 1.377 1.377 0 00-.974-.402h-64.841a1.373 1.373 0 00-1.374 1.375 1.374 1.374 0 001.374 1.375h64.841z" fill="#E6E6E6"/>
    <path d="M166.262 7.873a1.376 1.376 0 100-2.75h-27.901a1.376 1.376 0 100 2.75h27.901z" fill="#FF6363"/>
    <path d="M130.83 32.118a1.462 1.462 0 00-1.46 1.46v16.229a1.458 1.458 0 001.46 1.46h77.71a1.462 1.462 0 001.46-1.46v-16.23a1.462 1.462 0 00-1.46-1.46h-77.71z" fill="#E6E6E6"/>
    <path d="M131.355 33.256a.846.846 0 00-.847.847v15.18a.85.85 0 00.847.846h76.66a.846.846 0 00.846-.847v-15.18a.845.845 0 00-.846-.846h-76.66z" fill="#fff"/>
    <path d="M203.202 45.966a1.376 1.376 0 100-2.75h-64.841a1.373 1.373 0 00-1.374 1.375 1.374 1.374 0 001.374 1.375h64.841z" fill="#E6E6E6"/>
    <path d="M166.262 39.99a1.376 1.376 0 100-2.75h-27.901a1.37 1.37 0 00-.973.403 1.385 1.385 0 00-.403.973 1.378 1.378 0 001.376 1.375h27.901z" fill="#FF6363"/>
    <path d="M130.83 64.236a1.463 1.463 0 00-1.46 1.46v16.229a1.458 1.458 0 001.46 1.46h77.71a1.463 1.463 0 001.46-1.46v-16.23a1.463 1.463 0 00-1.46-1.46h-77.71z" fill="#E6E6E6"/>
    <path d="M131.355 65.374a.846.846 0 00-.847.847V81.4a.85.85 0 00.847.846h76.66a.847.847 0 00.846-.846V66.22a.845.845 0 00-.846-.846h-76.66z" fill="#fff"/>
    <path d="M203.202 78.084a1.376 1.376 0 100-2.751h-64.841a1.373 1.373 0 00-1.374 1.375 1.374 1.374 0 001.374 1.376h64.841z" fill="#E6E6E6"/>
    <path d="M166.262 72.109a1.376 1.376 0 100-2.75h-27.901a1.376 1.376 0 100 2.75h27.901z" fill="#FF6363"/>
    <path d="M44.48 135.049a4.063 4.063 0 01-2.8-1.836 4.06 4.06 0 01-.465-3.316l3.075-10.453 4.672.876.2 10.645a4.057 4.057 0 01-4.681 4.084z" fill="#9F616A"/>
    <path d="M71.446 201.782l-5.84-.875 1.46-56.937-8.176 24.527-4.38 34.453-5.548-1.46-1.168-35.913 6.424-42.337 32.12 7.299-14.892 71.243z" fill="#2F2E41"/>
    <path d="M68.765 215.798a4.288 4.288 0 01-4.076-2.945 4.294 4.294 0 01-.196-1.767l.907-9.219a1.354 1.354 0 01.704-1.057c1.722-.929 3.492-.704 5.304.508a1.339 1.339 0 01.584.959L73.027 211a4.293 4.293 0 01-4.262 4.798zm-23.838-.687a3.86 3.86 0 01-2.347-2.437 3.864 3.864 0 01.47-3.35l6.23-9.26c2.245-1.611 3.6-.826 4.126 2.185l1.26-3.156.948 1.035a3.02 3.02 0 01.16 3.89l-6.462 9.833a3.858 3.858 0 01-1.987 1.346 3.858 3.858 0 01-2.398-.086z" fill="#2F2E41"/>
    <path d="M84.294 68.347a8.76 8.76 0 100-17.518 8.76 8.76 0 100 17.518z" fill="#9F616A"/>
    <path d="M89.842 75.647l-14.892-2.92c1.918-4.09 3.454-5.475 1.752-9.927h11.972c-1.056 4.612-.036 8.94 1.168 12.847z" fill="#9F616A"/>
    <path d="M88.09 134.627L53.05 124.7c7.018-15.446 8.489-32.405 6.408-50.332a3.244 3.244 0 012.963-3.61c4.57-.376 9.336-.86 14.28-1.534l5.549 3.795 6.424-1.46c2.061 1 4.137 1.83 6.011 2.659a7.515 7.515 0 014.086 9.242c-5.709 17.242-9.53 34.32-10.681 51.167z" fill="#E6E6E6"/>
    <path d="M49.838 121.488l-6.716-.876 15.91-45.84c.81-2.331 2.816-3.593 5.26-3.942l2.336.292-1.752 27.154-15.038 23.212zm52.609-8.763a5.326 5.326 0 01-5.325-3.265l-6.404-15.418 5.256-18.979 1.39.884c.133.085.265.173.396.262 4.001 2.744 5.948 7.64 5.133 12.423l-1.371 8.037 5.654 12.14a5.325 5.325 0 01-4.729 3.916z" fill="#E6E6E6"/>
    <path d="M84.968 46.606a9.303 9.303 0 014.25 1.251c.297.173.16.798.435 1.002.347.257 1.1.101 1.406.402a9.321 9.321 0 012.773 7.51l-.49 4.86-1.152-1.26a12.02 12.02 0 00-8.41-3.957l.888-1.552-1.542 1.541c-.703.008-1.405.065-2.1.171l1.18-2.064-2.264 2.263a6.052 6.052 0 00-4.23 3.45l-.251.557-.281-4.637a9.344 9.344 0 019.787-9.537z" fill="#2F2E41"/>
    <path d="M93.111 62.953c.389 0 .704-.748.704-1.671s-.315-1.671-.704-1.671c-.389 0-.704.748-.704 1.67 0 .924.316 1.672.704 1.672zm-17.59-.528c.389 0 .704-.748.704-1.671s-.315-1.671-.704-1.671c-.389 0-.704.748-.704 1.67 0 .924.315 1.672.704 1.672zm34.232 20.652a4.055 4.055 0 012.817 5.41l-3.951 10.155-4.581-1.27.704-10.623a4.055 4.055 0 015.011-3.672z" fill="#9F616A"/>
    <path d="M104.442 112.145l-7.3-4.672 6.132-12.555 7.592 2.92-3.796 11.095-2.628 3.212z" fill="#E6E6E6"/>
    <path d="M101.916 216H13.224v-.615h88.803l-.111.615z" fill="#3F3D56"/>
  </g>
  <defs>
    <clipPath id="projectlink-notifications__clip0">
      <path fill="#fff" d="M0 0h210v216H0z"/>
    </clipPath>
  </defs>
</svg>
