<svg width="100%" fill="none" xmlns="http://www.w3.org/2000/svg" viewBox="0 0 322 276">
  <path d="M34.545 0a13.593 13.593 0 00-9.592 3.976 13.567 13.567 0 00-3.98 9.582V261.04a13.564 13.564 0 003.98 9.582 13.592 13.592 0 009.592 3.976h135.687a13.594 13.594 0 009.592-3.976 13.564 13.564 0 003.979-9.582V13.559a13.567 13.567 0 00-3.979-9.583A13.593 13.593 0 00170.232 0H34.545z" fill="#E6E6E6"/>
  <path d="M38.98 7.703a10.313 10.313 0 00-7.277 3.016 10.293 10.293 0 00-3.019 7.27v238.618a10.296 10.296 0 003.02 7.271 10.314 10.314 0 007.276 3.016h126.817a10.316 10.316 0 007.277-3.016 10.297 10.297 0 003.019-7.271V17.99a10.294 10.294 0 00-3.019-7.27 10.315 10.315 0 00-7.277-3.017H38.981z" fill="#fff"/>
  <path d="M163.62 57.995H41.157a2.271 2.271 0 01-2.268-2.265V25.38a2.267 2.267 0 012.268-2.265H163.62a2.27 2.27 0 012.267 2.266V55.73a2.27 2.27 0 01-2.267 2.266zM41.157 24.022a1.363 1.363 0 00-1.36 1.359V55.73a1.36 1.36 0 001.36 1.359H163.62a1.363 1.363 0 001.36-1.36V25.382a1.359 1.359 0 00-1.36-1.36H41.157zM163.62 178.075H41.157a2.272 2.272 0 01-2.268-2.266v-56.177a2.272 2.272 0 012.268-2.266H163.62a2.27 2.27 0 012.267 2.266v56.177a2.27 2.27 0 01-2.267 2.266zM41.157 118.273a1.36 1.36 0 00-1.36 1.359v56.177a1.36 1.36 0 001.36 1.36H163.62a1.365 1.365 0 001.36-1.36v-56.177a1.36 1.36 0 00-1.36-1.359H41.157zm121.556-13.152h-54.428a2.271 2.271 0 01-2.268-2.266V72.506a2.269 2.269 0 012.268-2.265h54.428a2.27 2.27 0 012.267 2.265v30.349a2.27 2.27 0 01-2.267 2.266zm-54.428-33.974a1.363 1.363 0 00-1.361 1.36v30.348a1.36 1.36 0 001.361 1.359h54.428a1.36 1.36 0 001.36-1.359V72.506a1.359 1.359 0 00-1.36-1.359h-54.428zm-12.7 180.335H41.157a2.272 2.272 0 01-2.268-2.266v-56.63a2.272 2.272 0 012.268-2.266h54.428a2.272 2.272 0 012.268 2.266v56.63a2.272 2.272 0 01-2.268 2.266zm-54.428-60.255a1.36 1.36 0 00-1.36 1.359v56.63a1.36 1.36 0 001.36 1.36h54.428a1.365 1.365 0 001.36-1.36v-56.63a1.361 1.361 0 00-1.36-1.359H41.157zm121.556 60.255h-54.428a2.271 2.271 0 01-2.268-2.266v-56.63a2.267 2.267 0 012.268-2.266h54.428a2.27 2.27 0 012.267 2.266v56.63a2.27 2.27 0 01-2.267 2.266zm-54.428-60.255a1.36 1.36 0 00-1.361 1.359v56.63a1.359 1.359 0 001.361 1.36h54.428a1.365 1.365 0 001.36-1.36v-56.63a1.36 1.36 0 00-1.36-1.359h-54.428z" fill="#E6E6E6"/>
  <path d="M59.278 146.496c5.102 0 9.238-4.132 9.238-9.229 0-5.097-4.136-9.229-9.238-9.229-5.102 0-9.238 4.132-9.238 9.229 0 5.097 4.136 9.229 9.238 9.229z" fill="#FF6363"/>
  <path d="M80.613 131.114a1.538 1.538 0 100 3.077h72.584a1.54 1.54 0 000-3.077H80.613zm0 9.229a1.532 1.532 0 00-1.09.45 1.536 1.536 0 00.5 2.51c.187.077.388.117.59.117h31.233a1.539 1.539 0 100-3.077H80.613zm-28.42 14.755c-1.172 0-2.125.69-2.125 1.538 0 .848.953 1.538 2.125 1.538h100.143c1.171 0 2.124-.69 2.124-1.538 0-.848-.953-1.538-2.124-1.538H52.193zm0 9.229c-1.172 0-2.125.69-2.125 1.538 0 .848.953 1.538 2.125 1.538h100.143c1.171 0 2.124-.69 2.124-1.538 0-.848-.953-1.538-2.124-1.538H52.193z" fill="#E6E6E6"/>
  <path d="M60.185 48.62c5.102 0 9.238-4.132 9.238-9.23 0-5.096-4.136-9.228-9.238-9.228-5.102 0-9.238 4.132-9.238 9.229 0 5.097 4.136 9.229 9.238 9.229z" fill="#FF6363"/>
  <path d="M81.52 33.238a1.54 1.54 0 00-1.537 1.538 1.538 1.538 0 001.537 1.538h72.584a1.542 1.542 0 001.542-1.538 1.546 1.546 0 00-.452-1.089 1.537 1.537 0 00-1.09-.45H81.52zm0 9.229a1.54 1.54 0 00-1.537 1.538 1.538 1.538 0 001.537 1.538h31.233a1.54 1.54 0 001.091-2.626 1.53 1.53 0 00-1.091-.45H81.52zm14.017 62.659H44.479l12.015-20.792a2.453 2.453 0 014.25 0l5.133 8.882 8.728-15.102a3.07 3.07 0 014.197-1.124c.467.27.854.657 1.124 1.124l15.61 27.012zm-49.487-.906h47.916L79.14 78.567a2.163 2.163 0 00-2.957-.792c-.329.19-.602.463-.792.792l-9.514 16.462-5.918-10.242a1.545 1.545 0 00-2.679 0L46.05 104.22zm114.8.906h-51.058l12.016-20.792a2.45 2.45 0 012.125-1.226 2.459 2.459 0 012.125 1.226l5.133 8.882 8.727-15.102a3.075 3.075 0 015.321 0l15.611 27.012zm-49.487-.906h47.916l-14.825-25.653a2.167 2.167 0 00-3.75 0l-9.513 16.462-5.919-10.242a1.548 1.548 0 00-2.679 0l-11.23 19.433z" fill="#E6E6E6"/>
  <path d="M95.585 105.121H41.157a2.272 2.272 0 01-2.268-2.266V72.506a2.267 2.267 0 012.268-2.265h54.428a2.272 2.272 0 012.268 2.265v30.349a2.272 2.272 0 01-2.268 2.266zM41.157 71.147a1.363 1.363 0 00-1.36 1.36v30.348a1.362 1.362 0 001.36 1.359h54.428a1.36 1.36 0 001.36-1.359V72.506a1.36 1.36 0 00-1.36-1.359H41.157zm11.598 130.852a1.542 1.542 0 00-1.54 1.538 1.539 1.539 0 001.54 1.538h31.233a1.54 1.54 0 001.087-2.625 1.539 1.539 0 00-1.087-.451H52.755zm0 9.062a1.532 1.532 0 00-1.09.45 1.536 1.536 0 001.09 2.627h31.233a1.544 1.544 0 001.537-1.539 1.536 1.536 0 00-1.537-1.538H52.755zm15.616 28.743a9.697 9.697 0 01-8.953-5.977 9.672 9.672 0 012.1-10.552 9.698 9.698 0 0114.911 1.467 9.68 9.68 0 011.634 5.38 9.688 9.688 0 01-2.842 6.843 9.708 9.708 0 01-6.85 2.839zm0-18.458a8.784 8.784 0 00-8.115 5.417 8.77 8.77 0 001.904 9.564 8.792 8.792 0 009.573 1.902 8.782 8.782 0 005.423-8.107 8.782 8.782 0 00-2.576-6.203 8.796 8.796 0 00-6.209-2.573zm82.744 18.458a1.54 1.54 0 001.54-1.539 1.54 1.54 0 00-1.54-1.538h-31.233a1.54 1.54 0 000 3.077h31.233zm0-9.063a1.54 1.54 0 001.087-2.625 1.538 1.538 0 00-1.087-.451h-31.233a1.538 1.538 0 000 3.076h31.233zm-15.616-28.742c1.916 0 3.79.567 5.384 1.631a9.68 9.68 0 01-3.494 17.547 9.702 9.702 0 01-9.949-4.117 9.681 9.681 0 01-1.633-5.379 9.7 9.7 0 019.692-9.682zm0 18.458a8.784 8.784 0 008.115-5.418 8.766 8.766 0 00-1.904-9.564 8.795 8.795 0 00-9.573-1.902 8.78 8.78 0 00-5.423 8.108 8.782 8.782 0 002.576 6.202 8.803 8.803 0 006.209 2.574z" fill="#E6E6E6"/>
  <path d="M321.832 275.068H0v-.926h322l-.168.926z" fill="#3F3D56"/>
  <path d="M252.049 152.261l-6.215 13.148-4.752-11.322 6.214-4.017 4.753 2.191zm34.912 3.835l2.01 10.043 8.774-11.687-6.946-3.652-3.838 5.296z" fill="#FFB8B8"/>
  <path d="M277.639 265.114c-3.547 2.522-6.922 3.79-9.505-.73 3.397-28.392 3.539-55.427 0-80.349l-27.052 83.271-9.871-1.461c5.518-29.839 9.732-73.885 14.989-117.967l42.04-.365c5.57 31.785-3.705 73.111-10.601 117.601z" fill="#2F2E41"/>
  <path d="M253.036 275.72l-20.622-1.486a3.738 3.738 0 01-2.235-3.947l.929-6.681a.595.595 0 011.122-.171c1.325 2.64 3.468 2.739 6.496.085.665-1.769 1.925-2.54 3.974-1.985 3.93 5.959 8.63 4.024 14.31 8.642a3.484 3.484 0 01.846 2.9 3.495 3.495 0 01-1.734 2.475 3.5 3.5 0 01-3.086.168zm36.558 0l-20.623-1.486a3.738 3.738 0 01-2.235-3.947l.929-6.681a.595.595 0 011.122-.171c1.325 2.64 3.468 2.739 6.497.085.664-1.769 1.924-2.54 3.973-1.985 3.93 5.959 8.63 4.024 14.311 8.642a3.5 3.5 0 01.26 4.335 3.502 3.502 0 01-2.672 1.483 3.498 3.498 0 01-1.562-.275z" fill="#2F2E41"/>
  <path d="M271.607 75.747c7.672 0 13.891-6.213 13.891-13.878s-6.219-13.879-13.891-13.879-13.892 6.214-13.892 13.879c0 7.665 6.22 13.878 13.892 13.878z" fill="#FFB8B8"/>
  <path d="M281.477 88.53h-21.203c5.876-6.657 5.101-14.047 0-21.913h21.203c-2.905 6.58-3.051 13.847 0 21.913z" fill="#FFB8B8"/>
  <path d="M289.337 154.452c-14.337 6.956-28.716 6.169-43.137-2.191-3.183-19.534-4.376-43.201-4.711-68.654a4.234 4.234 0 013.563-4.24l19.061-3.072 9.139 9.496 6.215-7.67 8.223 3.4a3.706 3.706 0 012.288 3.554c-.895 25.786-1.339 49.812-.641 69.377z" fill="#FF6363"/>
  <path d="M285.024 66.186c-1.276-3.896-3.615-6.732-7.17-8.357-7.987 1.696-14.509.54-19.916-2.786.888-4.185 2.842-7.671 6.34-10.144 2.618-2.31 3.77-.679 5.524-1.665 5.851-3.294 13.477.515 16.606 6.452a7.944 7.944 0 011.054 4.019l-2.438 12.481z" fill="#2F2E41"/>
  <path d="M299.207 155.913l-10.967-5.478-1.828-69.392 1.752.538a11.678 11.678 0 018.232 10.474l.252 30.623 2.559 33.235zm-50.448-5.113l-7.312 6.209c-10.745-9.287-18.209-19.767-20.472-32.14l12.886-37.7a11.55 11.55 0 013.872-5.407 11.568 11.568 0 016.215-2.379l2.252-.166-1.645 26.478-8.226 20.27c-.513 5.432 6.036 15.181 12.43 24.835z" fill="#FF6363"/>
  <path d="M283.671 65.521c.807 0 1.462-1.145 1.462-2.556 0-1.412-.655-2.557-1.462-2.557-.808 0-1.463 1.145-1.463 2.556 0 1.412.655 2.557 1.463 2.557z" fill="#FFB8B8"/>
</svg>
