<svg width="100%" viewBox="0 0 416 250" fill="none" xmlns="http://www.w3.org/2000/svg">
  <g clip-path="url(#projectlink-hero__clip0)">
    <path d="M163.456 226.682a13.94 13.94 0 01-7.063.581 13.967 13.967 0 01-6.439-2.966c-4.729-3.981-6.212-10.539-7.418-16.611l-3.568-17.961 7.47 5.159c5.373 3.71 10.866 7.538 14.586 12.912 3.72 5.374 5.344 12.709 2.355 18.524" fill="#E6E6E6"/>
    <path d="M162.817 248.428c.756-5.524 1.534-11.118 1.003-16.701-.471-4.958-1.979-9.801-5.05-13.771a22.873 22.873 0 00-5.861-5.327c-.586-.371-1.125.561-.541.93a21.767 21.767 0 018.589 10.395c1.871 4.77 2.171 9.97 1.849 15.038-.195 3.065-.608 6.109-1.025 9.15a.561.561 0 00.375.662.543.543 0 00.661-.376z" fill="#F2F2F2"/>
    <path d="M155.534 238.654a10.304 10.304 0 01-3.878 3.499 10.272 10.272 0 01-5.09 1.143c-4.54-.216-8.324-3.394-11.731-6.411l-10.077-8.923 6.669-.32c4.796-.23 9.716-.445 14.284 1.039 4.569 1.483 8.782 5.053 9.617 9.795" fill="#E6E6E6"/>
    <path d="M164.954 251.603c-3.64-6.458-7.861-13.636-15.404-15.93a17.165 17.165 0 00-6.479-.671c-.687.06-.516 1.123.171 1.064 3.658-.305 7.31.664 10.339 2.743 2.916 1.99 5.185 4.757 7.107 7.691 1.176 1.797 2.23 3.671 3.285 5.542.337.598 1.322.166.981-.439z" fill="#F2F2F2"/>
    <path d="M262.499 122.228l-79.344 65.951a4.881 4.881 0 01-6.88-.646l-33.447-40.473a4.917 4.917 0 01.644-6.9l79.344-65.951a4.88 4.88 0 016.88.646l33.447 40.473a4.915 4.915 0 01-.644 6.9z" fill="#CCC"/>
    <path d="M259.319 120.242l-77.52 64.435a2.513 2.513 0 01-3.544-.333L146.32 145.7a2.53 2.53 0 01.331-3.554l77.52-64.435a2.514 2.514 0 013.544.333l31.936 38.643a2.535 2.535 0 01-.332 3.555z" fill="#fff"/>
    <path d="M262.893 133.73l-15.944-1.497 11.411-9.007 6.148 7.439a1.848 1.848 0 01.213 2.073 1.912 1.912 0 01-.466.58 1.837 1.837 0 01-1.362.412zm-32.019-28.641l-39.215 32.596a2.375 2.375 0 01-1.733.537 2.357 2.357 0 01-1.603-.85 2.372 2.372 0 01-.535-1.737 2.389 2.389 0 01.847-1.608l39.216-32.597a2.366 2.366 0 013.775 1.129 2.376 2.376 0 01-.752 2.53zm-19.192 2.838l-26.448 21.984a2.364 2.364 0 01-3.336-.313 2.383 2.383 0 01.312-3.346l26.448-21.983a2.37 2.37 0 011.733-.537 2.37 2.37 0 011.603.85 2.382 2.382 0 01-.312 3.345z" fill="#CCC"/>
    <path d="M170.701 152.887c4.088 0 7.403-3.324 7.403-7.425 0-4.1-3.315-7.424-7.403-7.424-4.089 0-7.403 3.324-7.403 7.424 0 4.101 3.314 7.425 7.403 7.425z" fill="#FF6363"/>
    <path d="M229.59 130.58a2.372 2.372 0 002.369-2.376 2.372 2.372 0 00-2.369-2.376 2.373 2.373 0 00-2.369 2.376 2.373 2.373 0 002.369 2.376zm6.384-5.307a2.372 2.372 0 002.369-2.376 2.372 2.372 0 00-2.369-2.376 2.373 2.373 0 00-2.369 2.376 2.373 2.373 0 002.369 2.376zm6.384-5.306a2.372 2.372 0 002.369-2.376 2.372 2.372 0 00-2.369-2.376 2.373 2.373 0 00-2.369 2.376 2.373 2.373 0 002.369 2.376z" fill="#E6E6E6"/>
    <path d="M204.599 247.466l5.439-.001 2.587-21.039-8.027.001.001 21.039z" fill="#FFB8B8"/>
    <path d="M203.212 245.685h10.711a6.81 6.81 0 014.827 2.005 6.853 6.853 0 011.999 4.84v.223h-17.537v-7.068z" fill="#2F2E41"/>
    <path d="M185.079 247.466l5.439-.001 2.588-21.039-8.027.001v21.039z" fill="#FFB8B8"/>
    <path d="M183.692 245.685h10.712a6.81 6.81 0 014.826 2.005 6.84 6.84 0 011.999 4.84v.223h-17.536l-.001-7.068zm6.845-4.657h-.001l-4.625-.001a1.995 1.995 0 01-1.994-1.93l-.145-4.058c-1.17-32.452-2.379-66.009 5.109-81.091l.059-.119 24.789-.9 4.977 45.786a19.907 19.907 0 01-.23 5.857l-6.58 34.769a1.998 1.998 0 01-2.039 1.628l-5.195-.169a2.001 2.001 0 01-1.428-.687 2 2 0 01-.48-1.512l4.081-32.158c.139-1.388.013-2.79-.371-4.131l-5.075-17.794a.668.668 0 00-.687-.482.666.666 0 00-.612.574l-7.576 54.692a2.011 2.011 0 01-.668 1.232 1.996 1.996 0 01-1.309.494z" fill="#2F2E41"/>
    <path d="M193.502 107.153c6.017 0 10.896-4.892 10.896-10.927 0-6.035-4.879-10.928-10.896-10.928-6.018 0-10.896 4.893-10.896 10.928 0 6.035 4.878 10.927 10.896 10.927z" fill="#FFB8B8"/>
    <path d="M212.567 156.309h-22.546a1.998 1.998 0 01-1.975-2.292l1.113-7.65-6.54-18.043a13.301 13.301 0 015.168-15.631 13.214 13.214 0 015.483-2.062 13.16 13.16 0 018.107 1.472 13.206 13.206 0 015.654 6.01l1.437 3.065 6.062 32.764a1.996 1.996 0 01-.428 1.645 1.999 1.999 0 01-1.535.722z" fill="#FF6363"/>
    <path d="M164.973 175.501a4.762 4.762 0 003.173-2.496 4.796 4.796 0 00.129-4.042l17.569-39.807-10.05-2.539-14.11 39.928a4.798 4.798 0 00-2.287 2.528 4.82 4.82 0 00-.035 3.414 4.786 4.786 0 005.611 3.014z" fill="#FFB8B8"/>
    <path d="M183.465 136.275l-9.774-4.589a2.133 2.133 0 01-1.151-1.36 2.145 2.145 0 01.275-1.764l5.94-8.997a5.943 5.943 0 013.363-3.048 5.918 5.918 0 014.528.222 5.947 5.947 0 013.051 3.363 5.968 5.968 0 01-.207 4.541l-3.071 10.306a2.152 2.152 0 01-1.174 1.341 2.121 2.121 0 01-1.78-.015z" fill="#FF6363"/>
    <path d="M238.26 73.065a4.803 4.803 0 01-.512 4.011 4.776 4.776 0 01-3.396 2.182l-25.095 35.519-7.321-7.357 26.97-32.6a4.815 4.815 0 01.994-3.266 4.78 4.78 0 016.256-1.173 4.805 4.805 0 012.104 2.684z" fill="#FFB8B8"/>
    <path d="M215.06 110.608a2.153 2.153 0 01-.548 1.698l-7.253 7.923a5.921 5.921 0 01-8.228 1.601 5.966 5.966 0 01-1.618-8.247l4.663-9.725a2.141 2.141 0 012.279-1.185c.303.051.591.167.845.34l8.936 6.07a2.143 2.143 0 01.924 1.525z" fill="#FF6363"/>
    <path d="M207.818 91.652a11.299 11.299 0 00-.407-2.926c-1.756-6.506-8.236-10.41-14.74-9.43a14.02 14.02 0 00-3.89-.547c-3.347 0-6.584 1.2-9.126 3.385a14.08 14.08 0 00-4.735 8.524l-5.253 33.917h28.391l4.585-29.598c.17-1.1.21-2.216.119-3.325h5.056z" fill="#2F2E41"/>
    <path d="M243.106 253h-93.605a.444.444 0 01-.313-.759.44.44 0 01.313-.131h93.605a.444.444 0 010 .89z" fill="#CCC"/>
    <path d="M337.408 34.555a4.451 4.451 0 013.557 1.266 4.466 4.466 0 011.051 1.627 4.5 4.5 0 01.266 1.92l14.509 6.405-6.921 4.48-12.717-6.768a4.484 4.484 0 01-2.782-1.56 4.51 4.51 0 01.171-5.972 4.481 4.481 0 012.866-1.398zm58.528-7.989c6.018 0 10.896-4.892 10.896-10.927 0-6.036-4.878-10.928-10.896-10.928-6.018 0-10.896 4.892-10.896 10.928 0 6.035 4.878 10.927 10.896 10.927zm-19.72 144.887l-5.439-.001-2.587-21.039 8.027.001-.001 21.039z" fill="#A0616A"/>
    <path d="M377.603 176.74l-17.537-.001v-.222a6.867 6.867 0 011.999-4.841 6.81 6.81 0 014.827-2.005h.001l10.71.001v7.068z" fill="#2F2E41"/>
    <path d="M398.841 171.453l-5.439-.001-2.587-21.039 8.027.001-.001 21.039z" fill="#A0616A"/>
    <path d="M400.228 176.74l-17.537-.001v-.222a6.867 6.867 0 011.999-4.841 6.81 6.81 0 014.827-2.005l10.711.001v7.068zm-1.645-9.768a1.97 1.97 0 01-.243-.016l-7.962-.982a1.994 1.994 0 01-1.749-1.885l-2.32-52.394a.666.666 0 00-1.268-.246l-5.96 19.925-1.227 32.005a2.01 2.01 0 01-.697 1.444 1.993 1.993 0 01-1.531.467l-6.894-.814a1.996 1.996 0 01-1.763-2.027l.585-30.127 4.671-47.29.209.007 28.402 1.098-.256 78.839a2.002 2.002 0 01-1.997 1.996z" fill="#2F2E41"/>
    <path d="M399.759 90.459h-.052l-28.604-.752a1.989 1.989 0 01-1.469-.705 2.016 2.016 0 01-.457-1.566l5.496-40.573a19.685 19.685 0 012.687-7.736 19.612 19.612 0 015.6-5.963 16.898 16.898 0 0113.801-2.468c9.984 2.537 15.974 13.29 13.352 23.968l-8.415 34.271a2.006 2.006 0 01-1.939 1.523z" fill="#3F3D56"/>
    <path d="M362.233 58.24a9.663 9.663 0 01-5.308-1.58l-16.681-10.977a2.01 2.01 0 01-.888-1.442 2.007 2.007 0 01.534-1.608l2.513-2.66a1.987 1.987 0 012.187-.484l18.633 7.44 17.261-12.361a7.155 7.155 0 0110.326 2.177 7.193 7.193 0 01.704 5.735 7.193 7.193 0 01-3.734 4.402l-21.333 10.392a9.616 9.616 0 01-4.214.967z" fill="#3F3D56"/>
    <path d="M399.712 26.088c1.858.44 4.101.778 5.43-.598.235-.26.445-.541.628-.84l1.737-2.66c1.33-2.037 2.684-4.128 3.247-6.497a10.588 10.588 0 00-1.312-8.044 10.52 10.52 0 00-6.632-4.712c-2.593-.583-5.131-1.585-7.782-1.402-2.651.182-5.76.122-7.985-1.335.139.65.888 3.52.888 3.52s-3.345 3.079-4.016 3.846a6.267 6.267 0 015.537.219 6.293 6.293 0 013.212 4.53c.19 1.168.079 2.463.771 3.422.658.912 1.838 1.231 2.831 1.758a6.92 6.92 0 013.079 3.674 6.943 6.943 0 01-.042 4.8l.409.32z" fill="#2F2E41"/>
    <path d="M386.629 94.372h-90.317a4.281 4.281 0 01-3.027-1.259 4.303 4.303 0 01-1.255-3.035v-46.07a4.303 4.303 0 011.255-3.036 4.281 4.281 0 013.027-1.26h90.317a4.281 4.281 0 013.027 1.26 4.303 4.303 0 011.255 3.035v46.07a4.303 4.303 0 01-1.255 3.036 4.281 4.281 0 01-3.027 1.26z" fill="#CCC"/>
    <path d="M385.591 91.249H297.35a2.204 2.204 0 01-1.559-.649 2.218 2.218 0 01-.647-1.564V45.048a2.218 2.218 0 01.647-1.564 2.204 2.204 0 011.559-.648h88.241a2.214 2.214 0 012.206 2.212v43.988a2.214 2.214 0 01-2.206 2.213z" fill="#fff"/>
    <path d="M380.481 102.355l-9.924-9.953 12.723.323v8.467a1.624 1.624 0 01-1.012 1.519 1.607 1.607 0 01-1.787-.356zm-5.634-37.285h-44.639a2.076 2.076 0 01-2.077-2.083 2.076 2.076 0 012.077-2.082h44.639a2.083 2.083 0 011.468 3.555c-.389.39-.917.61-1.468.61zm-14.534-8.85h-30.105a2.072 2.072 0 01-1.921-1.285 2.079 2.079 0 01.451-2.27 2.075 2.075 0 011.47-.61h30.105a2.076 2.076 0 012.077 2.083 2.076 2.076 0 01-2.077 2.082z" fill="#CCC"/>
    <path d="M311.729 65.07c3.583 0 6.488-2.914 6.488-6.507 0-3.594-2.905-6.508-6.488-6.508-3.584 0-6.489 2.914-6.489 6.508 0 3.593 2.905 6.507 6.489 6.507z" fill="#FF6363"/>
    <path d="M361.091 82.03a2.08 2.08 0 002.076-2.083 2.08 2.08 0 00-2.076-2.082 2.08 2.08 0 00-2.077 2.082c0 1.15.93 2.082 2.077 2.082zm7.267 0a2.08 2.08 0 002.076-2.083 2.08 2.08 0 00-2.076-2.082 2.08 2.08 0 00-2.077 2.082c0 1.15.93 2.082 2.077 2.082zm7.267 0a2.08 2.08 0 002.076-2.083 2.08 2.08 0 00-2.076-2.082 2.08 2.08 0 00-2.077 2.082c0 1.15.93 2.082 2.077 2.082z" fill="#E6E6E6"/>
    <path d="M385.231 88.894a4.476 4.476 0 011.963-3.234 4.455 4.455 0 013.732-.566l9.22-12.933 2.957 7.711-9.209 11.1a4.491 4.491 0 01-2.091 2.41 4.476 4.476 0 01-5.795-1.39 4.51 4.51 0 01-.777-3.099z" fill="#A0616A"/>
    <path d="M395.792 88.196a2.002 2.002 0 01-1.248-.31 2.008 2.008 0 01-.609-.618l-1.948-3.1a2.002 2.002 0 01.074-2.246l11.802-16.263-7.671-19.833a7.172 7.172 0 01.072-5.416 7.142 7.142 0 013.838-3.81 7.15 7.15 0 018.505 2.315 7.194 7.194 0 011.287 2.87l4.759 23.302a9.745 9.745 0 01-2.95 9.1L396.97 87.679a1.99 1.99 0 01-1.178.517z" fill="#3F3D56"/>
    <path d="M420.556 177.81h-93.605a.444.444 0 01-.313-.76.444.444 0 01.313-.13h93.605a.444.444 0 010 .89zM113.842 67.082H23.525a4.28 4.28 0 01-3.027-1.26 4.306 4.306 0 01-1.256-3.035v-46.07a4.306 4.306 0 011.256-3.036 4.281 4.281 0 013.027-1.259h90.317a4.283 4.283 0 013.027 1.26 4.303 4.303 0 011.255 3.035v46.07a4.303 4.303 0 01-1.255 3.036 4.282 4.282 0 01-3.027 1.259z" fill="#CCC"/>
    <path d="M112.804 63.959H24.563a2.205 2.205 0 01-1.56-.65 2.218 2.218 0 01-.646-1.563V17.758c0-.587.233-1.149.646-1.564a2.205 2.205 0 011.56-.648h88.241c.585 0 1.145.234 1.559.648.414.415.646.977.647 1.564v43.988a2.218 2.218 0 01-.647 1.564 2.206 2.206 0 01-1.559.649z" fill="#fff"/>
    <path d="M107.694 75.065l-9.925-9.953 12.724.322v8.468a1.617 1.617 0 01-1.013 1.52 1.612 1.612 0 01-1.786-.356zM102.06 37.78H57.42c-.55 0-1.078-.22-1.468-.61a2.085 2.085 0 011.468-3.555h44.64c.551 0 1.079.22 1.468.61a2.087 2.087 0 010 2.945c-.389.39-.917.61-1.468.61zm-14.534-8.85H57.42c-.55 0-1.078-.22-1.468-.61a2.085 2.085 0 011.468-3.555h30.106c.55 0 1.079.22 1.468.61a2.086 2.086 0 010 2.945c-.39.39-.917.61-1.468.61z" fill="#CCC"/>
    <path d="M38.941 37.78c3.584 0 6.489-2.914 6.489-6.508 0-3.593-2.905-6.507-6.489-6.507-3.583 0-6.488 2.913-6.488 6.507s2.905 6.508 6.488 6.508z" fill="#FF6363"/>
    <path d="M88.303 54.739a2.08 2.08 0 002.077-2.082 2.08 2.08 0 00-2.077-2.083 2.08 2.08 0 00-2.076 2.083c0 1.15.93 2.082 2.076 2.082zm7.267 0a2.08 2.08 0 002.076-2.082 2.08 2.08 0 00-2.076-2.083 2.08 2.08 0 00-2.076 2.083c0 1.15.93 2.082 2.076 2.082zm7.267 0a2.079 2.079 0 002.076-2.082 2.08 2.08 0 00-2.076-2.083 2.079 2.079 0 00-2.076 2.083c0 1.15.929 2.082 2.076 2.082z" fill="#E6E6E6"/>
    <path d="M110.096 7.996a4.469 4.469 0 00-2.933 4.59c.055.652.252 1.283.578 1.85l-10.39 12.009 8.166 1.085 8.615-11.57a4.503 4.503 0 00-.849-7.929 4.475 4.475 0 00-3.187-.035zm-69.372 4.807a4.486 4.486 0 01-1.651 5.195 4.455 4.455 0 01-1.79.735l-2.585 15.686-6.045-5.613 3.382-14.035a4.508 4.508 0 01.817-3.089 4.474 4.474 0 015.811-1.316 4.495 4.495 0 012.06 2.437zm16.237 158.65l5.439-.001 2.587-21.039-8.027.001.001 21.039z" fill="#FFB8B8"/>
    <path d="M55.574 169.672l10.71-.001a6.81 6.81 0 014.827 2.005 6.857 6.857 0 012 4.841v.222l-17.537.001v-7.068z" fill="#2F2E41"/>
    <path d="M29.013 171.453l5.438-.001 2.588-21.039-8.027.001v21.039z" fill="#FFB8B8"/>
    <path d="M27.625 169.672l10.711-.001a6.809 6.809 0 014.827 2.005 6.857 6.857 0 012 4.841v.222l-17.537.001v-7.068z" fill="#2F2E41"/>
    <path d="M55.826 27.81c6.017 0 10.896-4.892 10.896-10.927 0-6.035-4.879-10.927-10.896-10.927-6.018 0-10.896 4.892-10.896 10.927 0 6.035 4.878 10.928 10.896 10.928z" fill="#FFB8B8"/>
    <path d="M54.52 164.464l-.901-57.575a.666.666 0 00-1.313-.144L37.537 163.06a2.019 2.019 0 01-2.028 1.539l-8.114-.348a1.995 1.995 0 01-1.828-1.432A2.011 2.011 0 0125.5 162l12.532-72.369.026-.204 34.905 1.656.228.01-7.485 73.491a2.011 2.011 0 01-1.99 1.853h-7.2a2 2 0 01-1.4-.578 2.014 2.014 0 01-.596-1.395z" fill="#2F2E41"/>
    <path d="M82.089 95.96l-50.653-4.169a1.992 1.992 0 01-1.516-.913 2.006 2.006 0 01-.198-1.763L37.7 66.998l.46-26.251a7.217 7.217 0 012.223-5.085 7.175 7.175 0 015.17-1.985l3.369-3.062h12.341l1.075 1.413 8.587 1.323a7.21 7.21 0 014.026 2.08 7.247 7.247 0 011.998 4.075l7.282 54.192a2.008 2.008 0 01-1.151 2.09 1.992 1.992 0 01-.99.172z" fill="#2F2E41"/>
    <path d="M72.22 35.896l21.597-6.346 9.774-12.906a1.995 1.995 0 012.375-.63l6.102 2.616a2.005 2.005 0 011.111 1.212 1.995 1.995 0 01-.171 1.637l-7.304 12.571c-1.19 2.057-3 3.68-5.17 4.637L75.131 49.95 72.22 35.896zm-41.436 9.493a9.278 9.278 0 01-2.988-3.63 9.307 9.307 0 01-.828-4.634l.947-12.595a2.01 2.01 0 01.635-1.316 1.998 1.998 0 011.356-.535h.018l7.156.064a1.99 1.99 0 011.53.737 2.005 2.005 0 01.412 1.65l-1.328 6.794 9.476 4.016-7.98 15.569-8.406-6.12zM62.164 3.78S50.77-2.373 44.56 4.889c-6.21 7.262 2.366 18.618 2.366 18.618l12.221 1.546s.444-8.331 3.354-8.17c2.91.162 11.946-10.351-.336-13.103z" fill="#2F2E41"/>
    <path d="M94.049 177.365H.444a.445.445 0 010-.89h93.605a.443.443 0 010 .89z" fill="#CCC"/>
  </g>
  <defs>
    <clipPath id="projectlink-hero__clip0">
      <path fill="#fff" d="M0 0h421v253H0z"/>
    </clipPath>
  </defs>
</svg>
