<svg fill="none" xmlns="http://www.w3.org/2000/svg" viewBox="0 0 443 230">
  <g clip-path="url(#projectlink-text-field__clip0)">
    <path d="M412.802 224.692a24.736 24.736 0 01-2.125 4.223c-.234.369-.48.733-.741 1.085h-21.709c-.152-.114-.299-.233-.452-.347-.763-.06-1.52-.136-2.261-.217.076-.065.158-.131.234-.195-.392.032-.785.064-1.177.081l.943.114c-.235.19-.474.38-.719.564h-.949l.638-.678c-.507.016-1.008.027-1.515.016l1.586-.423 1.711-.456c.065.054.136.108.201.163a28.895 28.895 0 006.982-9.159 28.782 28.782 0 001.089-22.513 28.853 28.853 0 00-6.065-9.785 38.81 38.81 0 0110.788 10.829 38.635 38.635 0 015.749 14.14c.492 2.467.565 4.999.218 7.49.191-.212.381-.424.567-.641a29.33 29.33 0 005.826-11.407 29.26 29.26 0 00.407-12.792 38.597 38.597 0 01.774 29.908z" fill="#E6E6E6"/>
    <path d="M304.51 43.18c8.451 0 15.302-6.823 15.302-15.24S312.961 12.7 304.51 12.7c-8.45 0-15.301 6.823-15.301 15.24s6.851 15.24 15.301 15.24z" fill="#2F2E41"/>
    <path d="M354.131 223.647h-6.68l-3.178-25.664 9.859.001-.001 25.663z" fill="#FFB8B8"/>
    <path d="M342.679 221.746h12.883v8.079h-20.995a8.073 8.073 0 015.008-7.464 8.14 8.14 0 013.104-.615z" fill="#2F2E41"/>
    <path d="M285.986 222.776l-6.45-1.732 3.638-25.603 9.519 2.557-6.707 24.778z" fill="#FFB8B8"/>
    <path d="M275.425 217.972l12.439 3.34-2.111 7.801-20.272-5.444a8.09 8.09 0 013.788-4.9 8.14 8.14 0 016.156-.797zm23.22-113.07l-19.892 112.269 10.201 2.032 32.133-79.249 23.973 78.741 12.241-1.524s-5.611-112.777-23.462-122.429l-35.194 10.16z" fill="#2F2E41"/>
    <path d="M267.098 145.064a5.447 5.447 0 002.927-5.978 5.45 5.45 0 00-.968-2.159l10.971-16.023-10.118-.156-8.866 15.239a5.468 5.468 0 00-1.021 7.217 5.506 5.506 0 003.182 2.269 5.531 5.531 0 003.893-.409zm72.427-19.812a5.468 5.468 0 002.888-3.613 5.45 5.45 0 00-.928-4.524l10.971-16.023-10.118-.156-8.867 15.239a5.473 5.473 0 00-1.021 7.217 5.511 5.511 0 003.183 2.269 5.528 5.528 0 003.892-.409zM304.9 46.197c7.391 0 13.383-5.968 13.383-13.33 0-7.36-5.992-13.328-13.383-13.328-7.391 0-13.383 5.967-13.383 13.329 0 7.361 5.992 13.33 13.383 13.33z" fill="#FFB8B8"/>
    <path d="M333.838 53.594c-.51-2.032-9.181-1.524-9.181-1.524s-9.763-2.235-9.671-1.956c-8.228-.63-18.264 2.446-19.726 2.913-2.991.821-8.705 3.335-12.826 5.184a2.377 2.377 0 00-1.205 3.123l12.57 28.582 1.785 18.542 41.315-12.7c-10.201-4.064-2.551-40.132-3.061-42.164z" fill="#FF6363"/>
    <path d="M330.268 54.102l3.391-.848L352.2 89.662l1.02 20.829-11.731-9.144v-8.128L329.248 77.47l1.02-23.368zm-44.63 2.794l-3.926 1.738a1.35 1.35 0 00-.789 1.007l-7.781 44.245-7.651 22.352 10.201 5.08 11.732-27.94 4.08-20.32-5.866-26.162z" fill="#FF6363"/>
    <path d="M290.865 26.585c2.716-.889 5.582.504 8.235 1.564 2.615 1.045 5.409 1.798 8.222 1.633 2.813-.164 5.658-1.348 7.358-3.585 1.701-2.238 2-5.591.317-7.842-1.108-1.481-2.877-2.326-4.647-2.877-3.783-1.176-8.017-1.216-11.614.443-3.596 1.659-6.415 5.164-6.712 9.1" fill="#2F2E41"/>
    <path d="M304.103 15.967c-.913-6.152 2.471-12.54 7.089-14.831 4.618-2.291 10.036-.94 14.196 2.473 4.16 3.412 7.193 8.655 9.45 14.23 2.257 5.573 3.82 11.543 5.659 17.356 1.634 5.163 3.551 10.329 6.653 14.277 3.102 3.949 7.613 6.518 11.936 5.434-3.551 4.755-10.084 3.932-14.137-.136-4.053-4.068-6.16-10.425-7.819-16.614-1.659-6.189-3.102-12.664-6.31-17.793-5.708-9.123-16.909-11.864-24.908-6.095" fill="#2F2E41"/>
    <path d="M443 228.915H0V230h443v-1.085zM232.42 124.774H39.078a5.86 5.86 0 01-4.127-1.705 5.813 5.813 0 01-1.712-4.111v-45.88a5.81 5.81 0 011.712-4.11 5.857 5.857 0 014.127-1.705H232.42a5.858 5.858 0 014.127 1.705 5.814 5.814 0 011.712 4.11v45.88a5.812 5.812 0 01-1.712 4.111 5.86 5.86 0 01-4.127 1.705zM39.078 68.555a4.556 4.556 0 00-3.21 1.327 4.52 4.52 0 00-1.332 3.197v45.879a4.52 4.52 0 001.332 3.197 4.56 4.56 0 003.21 1.327H232.42a4.56 4.56 0 003.21-1.327 4.52 4.52 0 001.331-3.197v-45.88a4.519 4.519 0 00-1.331-3.196 4.558 4.558 0 00-3.21-1.327H39.078z" fill="#3F3D56"/>
    <path d="M223.012 115.081H48.485a.644.644 0 01-.46-.189.642.642 0 010-.915.66.66 0 01.46-.188h174.527a.645.645 0 110 1.292z" fill="#E6E6E6"/>
    <path d="M66.976 93.757H52.703a.65.65 0 00-.647.646.645.645 0 00.647.646h6.488v11.427a3.245 3.245 0 00.855 2.24 3.271 3.271 0 002.165 1.049c.04.002.082.003.125.003a3.16 3.16 0 001.457-.388 3.129 3.129 0 001.107-1.02.643.643 0 00-.13-.903.65.65 0 00-.908.129 1.844 1.844 0 01-1.596.888 1.963 1.963 0 01-1.286-.649 1.946 1.946 0 01-.492-1.349V95.049h6.488a.653.653 0 00.601-.398.644.644 0 00-.6-.894z" fill="#FF6363"/>
    <path d="M115.636 149.975c2.867 0 5.19-2.314 5.19-5.169 0-2.855-2.323-5.17-5.19-5.17-2.866 0-5.19 2.315-5.19 5.17s2.324 5.169 5.19 5.169z" fill="#E6E6E6"/>
    <path d="M135.749 149.975c2.866 0 5.19-2.314 5.19-5.169 0-2.855-2.324-5.17-5.19-5.17-2.867 0-5.191 2.315-5.191 5.17s2.324 5.169 5.191 5.169z" fill="#FF6363"/>
    <path d="M155.862 149.975c2.866 0 5.19-2.314 5.19-5.169 0-2.855-2.324-5.17-5.19-5.17-2.867 0-5.191 2.315-5.191 5.17s2.324 5.169 5.191 5.169z" fill="#E6E6E6"/>
    <path d="M70.005 109.286a.817.817 0 00.79-.814.813.813 0 00-.79-.814.817.817 0 00-.79.814.813.813 0 00.79.814zm5.191 0a.817.817 0 00.79-.814.813.813 0 00-.79-.814.817.817 0 00-.79.814.814.814 0 00.79.814zm5.19 0a.817.817 0 00.79-.814.813.813 0 00-.79-.814.817.817 0 00-.79.814.813.813 0 00.79.814z" fill="#3F3D56"/>
  </g>
  <defs>
    <clipPath id="projectlink-text-field__clip0">
      <path fill="#fff" d="M0 0h443v230H0z"/>
    </clipPath>
  </defs>
</svg>
