<svg fill="none" xmlns="http://www.w3.org/2000/svg" viewBox="0 0 491 302">
  <g clip-path="url(#projectlink-beta__clip0)">
    <path opacity=".1" d="M490.999 193.968a100.574 100.574 0 01-2.947 24.277 94.888 94.888 0 01-2.305 7.862 93.171 93.171 0 01-3.719 9.305 85.67 85.67 0 01-2.247 4.51 60.686 60.686 0 01-5.073 24.382 62.863 62.863 0 01-30.507 31.431 64.183 64.183 0 01-27.234 6.253H93.207A81.584 81.584 0 0152.18 291.02l-.192-.108a83.879 83.879 0 01-5.194-3.302 81.432 81.432 0 01-10.66-8.787 79.319 79.319 0 01-11.718-14.519 77.478 77.478 0 01-11.918-41.365C4.597 209.079-.01 192.475-.01 174.634c0-22.51 7.32-43.045 19.347-58.589a82.314 82.314 0 018.216-9.142 76.469 76.469 0 019.397-7.691 73.11 73.11 0 018.337-5.002 69.115 69.115 0 013.644-1.73c1.08-.48 2.171-.926 3.276-1.347a69.464 69.464 0 014.027-1.388c1.36-.422 2.7-.792 4.023-1.109a65.074 65.074 0 015.936-1.158 72.72 72.72 0 015.003-.547c1.325-.1 2.663-.154 4.01-.17h.73c1.484 0 2.96.058 4.422.158.155-.309.321-.621.476-.925a131.409 131.409 0 011.796-3.306.102.102 0 010-.03c.105-.191.209-.379.317-.562a83.405 83.405 0 011.53-2.639c.242-.417.48-.808.726-1.2a3.18 3.18 0 01.17-.284c.25-.417.505-.834.763-1.25a140.166 140.166 0 014.015-6.061l.354-.51c.217-.308.417-.608.659-.916a121.99 121.99 0 011.763-2.405c.417-.567.834-1.13 1.284-1.668a218.003 218.003 0 013.335-4.168 108.105 108.105 0 014.06-4.67l1.78-1.942c.088-.091.163-.175.246-.258.213-.23.417-.459.647-.68a149.874 149.874 0 012.918-2.993 158.75 158.75 0 0115.966-13.91c.221-.175.446-.342.667-.509a169.018 169.018 0 0121.723-13.906c.442-.254.892-.492 1.347-.725a176.737 176.737 0 0117.712-8.154c3.298-1.305 6.67-2.53 10.064-3.652a195.728 195.728 0 016.824-2.11 190.288 190.288 0 0110.847-2.78A193.162 193.162 0 01224.964.263c3.335-.17 6.707-.257 10.117-.263a193.85 193.85 0 0148.774 6.17 1.76 1.76 0 001.514.787h1.4c.609.167 1.213.334 1.822.51 3.399.977 6.749 2.046 10.051 3.205l.834.3A179.476 179.476 0 01323.2 21.393a171.263 171.263 0 0119.864 12.273c.975.7 1.937 1.406 2.885 2.117a76.767 76.767 0 013.51-2.117 69.035 69.035 0 0114.54-6.2 66.327 66.327 0 0132.616-1.275c13.861 2.94 26.409 10.234 36.543 20.61a85.331 85.331 0 0110.96 13.914 91.736 91.736 0 017.658 14.999c.07.18.141.346.204.52a96.328 96.328 0 014.294 13.903c.05.242.108.48.158.721a100.128 100.128 0 012.051 13.911c0 .166 0 .337.033.512.175 2.421.264 4.867.267 7.337 0 2.209-.075 4.402-.212 6.578 0 .238-.034.484-.055.73-.037.629-.091 1.25-.145 1.884a79.151 79.151 0 018.912 8.408 78.668 78.668 0 013.527 4.127 87.81 87.81 0 019.088 13.91c7.049 13.306 11.101 28.959 11.101 45.713z" fill="#FF6363"/>
    <path opacity=".1" d="M443.893 294.192c0 2.848-9.808 5.515-26.925 7.808H93.208a81.573 81.573 0 01-41.028-10.967l-.192-.109c4.92-1.792 13.799-3.464 25.884-4.973l.541-.066c5.42-.663 11.477-1.293 18.097-1.889.167 0 .338-.025.504-.046 5.253-.467 10.84-.904 16.763-1.313.187 0 .371-.033.558-.041 2.285-.164 4.617-.32 6.996-.467l.917-.059c17.321-1.075 37.01-1.934 58.362-2.501h.025c2.99-.083 6.012-.157 9.067-.221 3.396-.08 6.834-.151 10.313-.212 2.656-.059 5.344-.1 8.042-.142h.062c12.169-.184 24.741-.275 37.598-.275 31.79 0 61.839.579 88.464 1.621h.075c4.094.159 8.112.334 12.031.513l3.335.158c4.422.212 8.729.438 12.923.68 49.316 2.805 81.348 7.362 81.348 12.501z" fill="#FF6363"/>
    <g opacity=".2">
      <path opacity=".2" d="M283.59 276.805c-.014.45-.065.897-.155 1.338a280.55 280.55 0 00-8.754-1.25v-.359a7.038 7.038 0 011.042-3.535c.859-1.359 2.164-2.209 3.602-2.163 1.438.046 2.685.975 3.456 2.38a7.041 7.041 0 01.809 3.589z" fill="#3F3D56"/>
      <path opacity=".2" d="M283.829 269.683c.102-3.224-1.811-5.901-4.274-5.978-2.462-.078-4.541 2.472-4.643 5.696-.101 3.224 1.812 5.9 4.274 5.978 2.463.078 4.541-2.472 4.643-5.696z" fill="#3F3D56"/>
      <path opacity=".2" d="M284.057 262.545c.101-3.224-1.812-5.9-4.274-5.978-2.462-.078-4.541 2.472-4.643 5.696-.102 3.224 1.812 5.901 4.274 5.978 2.462.078 4.541-2.472 4.643-5.696z" fill="#3F3D56"/>
      <path opacity=".2" d="M284.28 255.408c.102-3.223-1.812-5.9-4.274-5.978-2.462-.078-4.541 2.473-4.643 5.697-.102 3.223 1.812 5.9 4.274 5.978 2.462.078 4.541-2.473 4.643-5.697z" fill="#3F3D56"/>
      <path opacity=".2" d="M284.503 248.272c.102-3.224-1.811-5.901-4.274-5.978-2.462-.078-4.541 2.472-4.642 5.696-.102 3.224 1.811 5.9 4.273 5.978 2.463.078 4.541-2.473 4.643-5.696z" fill="#3F3D56"/>
      <path opacity=".2" d="M264.872 198.753a20.716 20.716 0 01-1.584-2.501l11.781-1.555-12.681-.304a21.415 21.415 0 01.129-16.941l16.725 9.358-15.32-12.022a21.367 21.367 0 0114.038-9.729 21.38 21.38 0 0122.556 10.109 21.368 21.368 0 012.079 16.953 21.374 21.374 0 01-4.14 7.679 21.188 21.188 0 012.314 3.972l-15.462 7.42 16.396-4.931a21.403 21.403 0 01-4.094 19.971 21.384 21.384 0 014.108 11.065 21.383 21.383 0 01-21.99 22.984 21.374 21.374 0 01-18.841-12.639 21.377 21.377 0 013.14-22.468 21.378 21.378 0 01.834-26.421h.012z" fill="#FF6363"/>
      <path opacity=".1" d="M302.612 213.168a21.256 21.256 0 01-5.003 13.064 21.384 21.384 0 014.108 11.065 21.383 21.383 0 01-21.99 22.984 21.382 21.382 0 01-18.841-12.639 21.377 21.377 0 013.14-22.468c-2.739-3.723 38.661-14.403 38.586-12.006z" fill="#000"/>
    </g>
    <g opacity=".2">
      <path opacity=".2" d="M220.225 276.805c-.013.45-.065.897-.154 1.338-2.901-.461-5.82-.878-8.754-1.25v-.359a7.038 7.038 0 011.042-3.535c.859-1.359 2.163-2.209 3.602-2.163 1.438.046 2.684.975 3.455 2.38a7.02 7.02 0 01.809 3.589z" fill="#3F3D56"/>
      <path opacity=".2" d="M220.46 269.684c.102-3.224-1.812-5.901-4.274-5.978-2.462-.078-4.541 2.472-4.643 5.696-.102 3.224 1.812 5.9 4.274 5.978 2.462.078 4.541-2.472 4.643-5.696z" fill="#3F3D56"/>
      <path opacity=".2" d="M220.687 262.547c.102-3.224-1.811-5.9-4.273-5.978-2.463-.078-4.541 2.472-4.643 5.696-.102 3.224 1.811 5.901 4.274 5.978 2.462.078 4.541-2.472 4.642-5.696z" fill="#3F3D56"/>
      <path opacity=".2" d="M220.911 255.41c.102-3.223-1.812-5.9-4.274-5.978-2.462-.078-4.541 2.473-4.643 5.697-.102 3.223 1.812 5.9 4.274 5.978 2.462.078 4.541-2.473 4.643-5.697z" fill="#3F3D56"/>
      <path opacity=".2" d="M221.134 248.274c.102-3.224-1.812-5.901-4.274-5.979-2.462-.077-4.541 2.473-4.643 5.697-.101 3.224 1.812 5.9 4.274 5.978 2.463.078 4.541-2.473 4.643-5.696z" fill="#3F3D56"/>
      <path opacity=".2" d="M201.508 198.753a20.593 20.593 0 01-1.584-2.501l11.78-1.555-12.681-.304a21.415 21.415 0 01.129-16.941l16.725 9.358-15.32-12.022a21.392 21.392 0 0114.038-9.729 21.385 21.385 0 0116.684 3.658 21.38 21.38 0 017.952 23.404 21.39 21.39 0 01-4.14 7.679 21.13 21.13 0 012.313 3.972l-15.461 7.42 16.395-4.931a21.39 21.39 0 01.484 10.504 21.389 21.389 0 01-4.577 9.467 21.383 21.383 0 011.717 22.622 21.373 21.373 0 01-30.835 7.813 21.371 21.371 0 01-9.262-20.71 21.374 21.374 0 014.796-10.783 21.378 21.378 0 01.834-26.421h.013z" fill="#FF6363"/>
      <path opacity=".1" d="M239.247 213.168a21.261 21.261 0 01-5.002 13.064 21.383 21.383 0 011.717 22.622 21.373 21.373 0 01-30.835 7.813 21.377 21.377 0 01-4.466-31.493c-2.738-3.723 38.661-14.403 38.586-12.006z" fill="#000"/>
    </g>
    <g opacity=".2">
      <path opacity=".2" d="M393.31 281.366a15.422 15.422 0 01-.304 2.534 488.076 488.076 0 00-16.879-2.392v-.688a13.55 13.55 0 012.009-6.808c1.668-2.613 4.169-4.252 6.933-4.168 2.764.083 5.169 1.88 6.67 4.585a13.554 13.554 0 011.571 6.937z" fill="#3F3D56"/>
      <path opacity=".2" d="M393.764 267.64c.196-6.208-3.489-11.362-8.232-11.512-4.743-.15-8.747 4.761-8.943 10.97-.196 6.208 3.49 11.362 8.232 11.512 4.743.15 8.747-4.761 8.943-10.97z" fill="#3F3D56"/>
      <path opacity=".2" d="M394.197 253.901c.196-6.208-3.489-11.363-8.232-11.512-4.743-.15-8.747 4.761-8.943 10.969-.196 6.209 3.49 11.363 8.232 11.513 4.743.15 8.747-4.762 8.943-10.97z" fill="#3F3D56"/>
      <path opacity=".2" d="M394.635 240.161c.196-6.208-3.49-11.363-8.233-11.513-4.742-.149-8.746 4.762-8.942 10.97-.196 6.209 3.489 11.363 8.232 11.513 4.743.15 8.746-4.762 8.943-10.97z" fill="#3F3D56"/>
      <path opacity=".2" d="M394.579 225.797c.186-6.211-3.509-11.362-8.254-11.504-4.745-.143-8.743 4.777-8.929 10.989-.187 6.211 3.509 11.362 8.254 11.504 4.745.142 8.743-4.778 8.929-10.989z" fill="#3F3D56"/>
      <path opacity=".2" d="M357.272 131.105a41.45 41.45 0 01-3.048-4.806l22.678-2.993-24.408-.588a41.219 41.219 0 01.242-32.615l32.204 18.013-29.49-23.144a41.154 41.154 0 1166.479 48.172 41.137 41.137 0 014.456 7.649l-29.769 14.294 31.561-9.504a41.159 41.159 0 01-7.849 38.413 41.155 41.155 0 01-12.403 59.964 41.156 41.156 0 01-58.294-18.749 41.148 41.148 0 016.04-43.253 41.16 41.16 0 011.601-50.857v.004z" fill="#FF6363"/>
      <path opacity=".1" d="M429.933 158.851a40.996 40.996 0 01-9.589 25.154 41.144 41.144 0 013.304 43.547 41.155 41.155 0 01-74.001-2.333 41.157 41.157 0 016.041-43.253c-5.311-7.174 74.39-27.729 74.245-23.115z" fill="#000"/>
    </g>
    <path d="M65.79 282.099l4.374-.013h6.165l7.796-126.632 77.2-128.821-3.356-3.602v-9.12l-83.49 138.558-8.688 129.63z" fill="#F1C0C0"/>
    <path opacity=".1" d="M70.63 282.087h5.7l7.795-126.633 77.2-128.821-3.356-3.602-79.63 130.493-7.708 128.563z" fill="#000"/>
    <path d="M52.905 283.154l200.036 15.307.171.012 193.591-11.905.146-.008v-8.175l-213.313-3.914-177.967-.171h-1.3l-.142.917-1.222 7.937z" fill="#F1C0C0"/>
    <path opacity=".1" d="M52.905 283.154l200.036 15.307.171.012 193.591-11.905.146-.159v-7.853h-.171l-193.737 6.47L55.569 274.3h-.03l-.35.229-1.062.688-1.222 7.937z" fill="#000"/>
    <path opacity=".1" d="M52.905 283.154l200.036 15.307v-13.435L55.19 274.529l-1.063.688-1.222 7.937z" fill="#000"/>
    <path d="M157.944 22.86l88.19 94.651-2.727 166.493 7.491.904.125.017h7.492l.896-160.265 165.135 55.159 2.785 98.211 6.028.676 2.043.229-4.728-105.928-172.626-60.602-94.655-98.4h-5.449v8.855z" fill="#F1C0C0"/>
    <path opacity=".1" d="M258.731 121.597l.68 3.064 165.135 55.158 2.785 98.211 6.028.676-4.727-100.93-169.901-56.179zM157.944 22.86l88.19 94.651-2.727 166.493 7.491.904 2.043-172.845-94.997-98.057v8.854z" fill="#000"/>
    <path d="M259.052 188.415l60.568 11.926.021.004 106.081 20.897 4.857-1.946-.017-.342-.317-6.774-171.13-34.578-.063 10.813z" fill="#F1C0C0"/>
    <path opacity=".1" d="M319.641 200.345l106.081 20.897 4.857-1.947-.017-.342-110.921-18.608z" fill="#000"/>
    <path d="M323.697 146.133l1.638 90.183.846 46.266 7.458-.25 4.694-.158-1.459-134.736-3.235-1.076-.708-.229h-9.234z" fill="#F1C0C0"/>
    <path opacity=".1" d="M323.764 146.112v.021l1.571 90.183.847 46.267 7.457-.25V146.112h-9.875z" fill="#000"/>
    <path d="M206.877 169.165c.437.238.856.51 1.251.813.467.409.886.869 1.25 1.371 1.789 2.314 3.439 5.003 3.264 7.921a3.212 3.212 0 01-.929 2.292c-.738.63-1.797.659-2.764.659-1.051 0-2.155 0-3.064-.542-.909-.542-1.668-1.597-2.743-1.572a1.36 1.36 0 01-.459 0c-.371-.12-.446-.608-.688-.917-.416-.554-1.296-.416-1.951-.175-.654.242-1.379.605-2.026.325a2.099 2.099 0 01-.879-.879c-1.547-2.501-1.876-5.507-2.168-8.412-.179-1.768-1.546-7.795 2.226-6.424 1.668.6 3.227 1.801 4.744 2.68l4.936 2.86z" fill="#3F3D56"/>
    <path d="M203.15 169.761a1.858 1.858 0 002.289-.092 3.452 3.452 0 001.113-2.159c.417-.13.629.416.896.75.467.567 1.417.559 1.843 1.163.296.417.229.996.437 1.467.271.609.942.926 1.401 1.418.433.537.746 1.161.917 1.83l.684 2.051c.327.853.537 1.746.625 2.655a3.44 3.44 0 01-.792 2.539c-.917.988-2.422 1.092-3.752 1.063a4.835 4.835 0 01-1.317-.155c-1.18-.366-1.934-1.554-2.247-2.751-.313-1.196-.279-2.451-.463-3.677a14.413 14.413 0 00-1.042-3.493c-.367-.867-1.376-2.159-1.359-3.08.3 0 .517.275.767.471z" fill="#3F3D56"/>
    <path d="M204.646 165.537a6.906 6.906 0 01-.337-1.83c0-1.25.571-2.426 1.146-3.543l-4.765.646c-.575.079-1.217.196-1.542.675a1.665 1.665 0 000 1.539c.239.475.429.974.567 1.488.011.45.062.898.154 1.338.148.324.356.616.613.863 1.363 1.509 2.384 3.289 3.402 5.052-.03-.05 2.872-2.297 2.755-3.03-.067-.417-.904-.917-1.171-1.318a6.694 6.694 0 01-.822-1.88z" fill="#BE6F72"/>
    <path d="M245.5 149.251v4.106l-70.314 13.715-3.648 2.209h-12.585v-2.314l69.084-16.691 17.463-1.025z" fill="#F1C0C0"/>
    <path opacity=".1" d="M245.5 153.357l-70.314 13.715-3.648 2.209h-12.585l69.597-14.894 16.95-1.03z" fill="#000"/>
    <path d="M189.047 265.812a5.452 5.452 0 00-6.628-1.409 1.747 1.747 0 00-.609.476c-.417.583-.15 1.388-.112 2.109.096 1.759-1.305 3.189-2.564 4.419-.675.658-1.363 1.363-1.668 2.259-.304.896-.079 2.034.738 2.501.357.179.745.286 1.143.317 1.332.26 2.698.298 4.043.112 1.33-.254 2.635-1.008 3.21-2.234.111-.332.295-.636.538-.888.734-.579 1.859.1 2.693-.313.688-.341.717-.879.725-1.588.025-1.959-.267-4.177-1.509-5.761zm10.005-.074c.513 1.35.584 2.822.65 4.264.038.834.063 1.726-.387 2.43-.451.705-1.33 1.076-2.172 1.251-1.739.358-3.752.021-4.873-1.359-.859-1.055-1.038-2.501-.88-3.868.133-1.122.417-2.435-.388-3.231-.208-.213-.479-.363-.671-.592-.417-.509-.35-1.276-.125-1.901a8.286 8.286 0 00.655-1.88c.033-.308 5.644.217 6.161.471.704.346.596.926.809 1.626.296.975.863 1.855 1.221 2.789z" fill="#FF6363"/>
    <path d="M200.082 205.852c1.1.713 1.526 2.113 1.697 3.414.471 3.564-.355 7.166-.417 10.763-.059 5.04 1.4 10.172.154 15.053-.746 2.918-.113 6.253-.813 9.2-.208.875-.592 1.701-.792 2.576-.417 1.897.021 3.881.609 5.736.187.5.306 1.023.354 1.555a5.585 5.585 0 01-.609 2.351l-2.501 5.915c-.279.663-1.38.771-2.084.859-1.326.158-2.806.271-3.86-.55-1.055-.821-1.309-2.197-1.472-3.481a53.37 53.37 0 01-.417-7.433 6.122 6.122 0 00-.171-1.93c-.229-.712-.734-1.329-.871-2.084-.175-.975.321-1.934.504-2.918a8.795 8.795 0 00-.041-2.705 109.263 109.263 0 00-.563-3.994c-.3-1.855.129-3.685.417-5.544.271-1.747-.075-3.527-.417-5.261a14.526 14.526 0 01-.521 4.169c-.221.663-.538 1.296-.73 1.972-.854 3.03.967 6.211.709 9.35-.121 1.467-.696 2.918-.534 4.364.113 1.059.605 2.03.942 3.039.338 1.009.513 2.164 0 3.106-1.354 2.559-.341 6.04.872 8.666.246.466.46.948.642 1.442.358 1.184.058 2.456.154 3.69a2.329 2.329 0 01-1.955-.588c-.184-.192-.334-.417-.513-.617a5.094 5.094 0 00-1.742-1.088 2.295 2.295 0 00-1.251-.288c-.458.128-.87.384-1.188.738-.412.363-.85.696-1.309.996a1.54 1.54 0 01-.667.296.588.588 0 01-.613-.312.771.771 0 01-.046-.217 32.95 32.95 0 01-.246-3.793c0-2.181-2.609-3.681-2.939-5.836-.262-1.739.225-3.51.063-5.261-.079-.901-.329-1.784-.313-2.685 0-.583.134-1.154.179-1.734a12.82 12.82 0 00-.029-1.93l-.129-2.013c-.125-1.989-.263-4.019-1.046-5.836a19.815 19.815 0 01-1.626-6.703c-.084-1.459-.029-2.918-.196-4.382-.15-1.321-.484-2.634-.388-3.96.079-1.025.417-2.017.496-3.043.163-1.971-.587-3.889-1.175-5.777-.588-1.889-1.022-3.981-.25-5.803.11-.299.293-.566.533-.775.296-.196.632-.321.984-.367a76.31 76.31 0 0121.769-1.388 7.22 7.22 0 013.356 1.046z" fill="#3F3D56"/>
    <path d="M176.416 161.578a6.678 6.678 0 100-13.356 6.678 6.678 0 000 13.356z" fill="#BE6F72"/>
    <path d="M175.124 163.241c.096.382.096.781 0 1.163a2.628 2.628 0 01-.438.734 18.92 18.92 0 01-2.139 2.326 3.873 3.873 0 001.997 1.971 11.55 11.55 0 002.756.788c.473.125.965.159 1.45.1a3.819 3.819 0 001.251-.567l3.71-2.221a7.486 7.486 0 001.543-1.113 3.801 3.801 0 001.075-2.61.72.72 0 00-.133-.492.872.872 0 00-.509-.212c-1.305-.288-2.334-1.347-2.918-2.547a13.477 13.477 0 01-1.013-3.865l-3.956 2.085c-.588.312-1.171.625-1.78.896-.388.175-1.172.321-1.447.675-.525.655.413 2.101.551 2.889z" fill="#BE6F72"/>
    <path d="M172.573 166.251a4.393 4.393 0 00-1.28 1.73c-.259.833 0 1.713.233 2.538a75.724 75.724 0 012.501 10.751c.351 2.501.48 5.04.651 7.57.35 5.161.859 13.39 1.538 18.517 2.501.113 4.94-.617 7.42-.884 4.636-.492 9.409.634 13.949-.417-1.101-4.347-2.201-11.772-3.302-16.115a30.833 30.833 0 01-1.009-5.232c-.095-1.271-.037-2.547-.02-3.827.037-2.501-.1-5.002-.238-7.503-.158-2.918-.317-5.836-1.009-8.691a1.62 1.62 0 00-.483-.955c-.417-.304-.959-.196-1.455-.129a6.327 6.327 0 01-4.327-1.026c-.551-.375-1.289-.833-1.801-.417a1.787 1.787 0 00-.417.888 4.435 4.435 0 01-2.61 2.572 13.037 13.037 0 01-3.693.759 1.82 1.82 0 01-1.147-.129c-.592-.363-.633-1.668-1.38-1.755-.654-.075-1.68 1.334-2.121 1.755z" fill="#3F3D56"/>
    <path d="M182.436 176.43c-1.539-1.471-2.214-3.605-3.335-5.419a12.07 12.07 0 00-2.881-3.168 8.55 8.55 0 01-1.567-1.33c-.396-.487-.697-1.138-1.297-1.325a1.573 1.573 0 00-1.405.387c-.367.351-.715.721-1.042 1.109-1.767 1.83-4.873 2.085-6.274 4.202a3.437 3.437 0 00-.746 1.563 12.117 12.117 0 002.226 8.713c.355.582.9 1.023 1.543 1.25a4.809 4.809 0 00.3 2.293 61.285 61.285 0 002.839 7.733 18.594 18.594 0 00-.559 2.997c-.292 2.547-.021 5.131-.296 7.683-.225 2.084-.834 4.114-.855 6.202 0 .334.03.73.317.901a.97.97 0 00.496.104l5.128.154c2.976.088 5.982.175 8.913-.375a3.72 3.72 0 001.121-.354c.992-.555 1.321-1.805 1.48-2.918.207-1.444.289-2.903.246-4.361.621 1.964 1.359 3.994 3.235 4.844.992.45 2.126.417 3.214.388a60.401 60.401 0 006.999-.721.913.913 0 00.995-.647.912.912 0 00.026-.425l.025-2.276c.05-4.623-1.096-9.041-1.542-13.643-.142-1.451-.129-2.918-.484-4.34-.145-.596-.358-1.179-.487-1.78a12.655 12.655 0 01-.209-1.78l-.325-4.585c-.154-2.122-.375-4.169-.538-6.286a30.388 30.388 0 00-.892-6.111c-.362-1.251-1.117-2.668-2.422-2.823-.696-.079-1.371.226-2.034.438a8.218 8.218 0 01-5.003-.021 7.068 7.068 0 00-1.559-.417 1.527 1.527 0 00-1.425.592 2.138 2.138 0 00-.221 1.051c-.196 4.164-.559 8.454-1.705 12.501z" fill="#FF6363"/>
    <path d="M175.728 176.556c-1.922-2.026-3.893-4.09-6.37-5.378-.975-.508-2.084-.892-3.164-.7-1.079.192-2.084 1.13-2.034 2.226.033.679.446 1.28.575 1.947.15.75-.066 1.55.167 2.276.19.478.473.913.834 1.28l2.951 3.497c1.251 1.459 2.501 2.939 4.111 3.948 1.609 1.008 3.693 1.479 5.461.762a6.711 6.711 0 002.993-2.747c.733-1.167 1.25-2.442 1.938-3.647a18.113 18.113 0 014.169-5.057c-.867-.225-1.955-.542-2.501-1.25a4.107 4.107 0 01-.396-.717l-.676-1.459a1.667 1.667 0 00-1.25.471c-.29.335-.6.651-.93.946-.588.442-1.384.563-1.918 1.067a5.094 5.094 0 00-.558.701 4.679 4.679 0 01-3.402 1.834z" fill="#3F3D56"/>
    <path d="M187.513 167.839c1.447-2.639 1.38-5.803 1.793-8.784a4.003 4.003 0 01.796-2.18c.834-.942 2.305-.954 3.564-.833.371.041.834.216.813.587a.754.754 0 01-.187.355 9.911 9.911 0 00-2.06 5.469c.655.454 1.668-.48 2.297 0 .417.35.225 1.042-.025 1.542-.581 1.159-1.18 2.31-1.797 3.452a11.062 11.062 0 01-1.905 2.747c-.529.508-1.15.909-1.688 1.409-1.251 1.171-2.005 2.826-3.297 3.968a.677.677 0 01-.417.213.7.7 0 01-.438-.196 6.324 6.324 0 01-1.576-1.905c-.492-.909-.417-1.176.359-1.818 1.45-1.146 2.864-2.376 3.768-4.026z" fill="#BE6F72"/>
    <path d="M173.31 174.763c.25.154.559.33.834.2a.86.86 0 00.279-.271 9.798 9.798 0 001.184-2.059.79.79 0 00.088-.333c0-.267-.238-.463-.459-.617a16.945 16.945 0 00-3.789-1.801c-1.101-.417-2.251-.78-3.418-.675a3.255 3.255 0 00-2.281 1.158c-.833 1.072.563 1.397 1.438 1.785 2.026.921 4.219 1.454 6.124 2.613z" fill="#FF6363"/>
    <path opacity=".1" d="M171.997 181.849a.62.62 0 00.175.526c.121-.592-.037-1.218.088-1.814.183-.896 1.055-1.571 1.13-2.472-1.597-.312-1.38 2.793-1.393 3.76z" fill="#000"/>
    <path opacity=".2" d="M245.5 149.251v4.106l-16.95 1.03-.513-4.111 17.463-1.025z" fill="#000"/>
    <path d="M170.405 155.892c1.059-.863.446-2.672 1.163-3.831.417-.633 1.121-.967 1.813-1.25a8.246 8.246 0 012.647-.734 3.081 3.081 0 012.502.921c.271.309.454.684.708 1.005a2.716 2.716 0 002.627.909c.554-.126 1.129-.547 1.092-1.113a1.58 1.58 0 00-.5-.893l-1.193-1.321c-1.355-1.501-2.859-3.093-4.848-3.468-1.384-.263-2.801.108-4.135.554-.538.179-1.143.446-1.293.992-.1.375.05.784-.037 1.163-.171.755-1.138 1.009-1.588 1.643-.451.633-.313 1.384-.442 2.084-.129.7-.505 1.384-.551 2.109-.029.438.192 1.251.684 1.409.492.159 1.046-.7 1.351-.179z" fill="#3F3D56"/>
    <path d="M182.552 151.198a12.505 12.505 0 00-2.217-5.069 8.89 8.89 0 00-3.948-3.135 5.652 5.652 0 00-4.915.388 7.131 7.131 0 00-2.455 3.097c-1.08 2.326-1.48 5.169-.226 7.403.501-.608 1.359-.333 2.118-.554.951-.271 1.755-.905 2.66-1.301 2.73-1.204 6.065-.229 8.983-.829z" fill="#FED253"/>
    <path opacity=".1" d="M169.429 151.069c-.096-.75-.158-1.622.375-2.155a.271.271 0 01.221-.1.278.278 0 01.171.15c.308.486.571.999.784 1.534a1.599 1.599 0 00-1.668.646m9.86-2.193l-.151-1.488a.675.675 0 01.03-.367.471.471 0 01.608-.167c.205.114.374.283.488.488a8.78 8.78 0 01.859 1.697 5.029 5.029 0 00-2.03.025m3.927 60.211v3.401l-2.873.192h-15.107v-3.593h17.98z" fill="#000"/>
    <path d="M182.903 209.35v3.593h-17.98l-47.765-59.832v-2.826h10.013l55.732 59.065z" fill="#F1C0C0"/>
    <path opacity=".1" d="M182.903 209.35v3.593h-17.98l-47.765-59.832v-2.826h10.013l55.732 59.065z" fill="#000"/>
    <path opacity=".1" d="M182.903 209.35v3.593h-17.98l-47.765-59.832v-2.826l48.023 59.065h17.722z" fill="#000"/>
    <path d="M123.419 269.318a1.26 1.26 0 01-.607 1.313c-.149.086-.314.14-.485.158-1.159.392-2.389.78-3.21 1.668-.821.888-.984 2.534 0 3.255a3.16 3.16 0 001.667.455c1.889.129 3.857.104 5.57-.696 1.226-.567 2.38-1.534 3.727-1.447.696.042 1.438.367 2.059.05.621-.317.796-1.2.8-1.938a14.364 14.364 0 00-.687-4.54c-.063-.2-2.714-.354-3.031-.417l-3.214-.416c-.609-.08-1.922-.538-2.401-.03-.48.509-.188 1.98-.188 2.585zm19.18-10.404c.136.751.357 1.483.659 2.184.446 1.134 1.017 2.339 2.109 2.889.992.496 2.21.317 3.219-.154.421-.175.79-.455 1.071-.813a3.23 3.23 0 00.417-1.872c0-1.613-.096-3.28-.834-4.714-.634-1.251-1.738-2.326-1.755-3.71l-3.798.733c-.203.02-.397.096-.558.221a.96.96 0 00-.242.455 12.409 12.409 0 00-.288 4.781zm-45.351-39.602c-.159 1.343-.092 2.781.608 3.94.7 1.158 2.177 1.925 3.452 1.463a.523.523 0 00.181-.087.518.518 0 00.132-.151.587.587 0 00-.054-.417 6.152 6.152 0 01.129-4.635c.083-.192.263-.417.458-.342a.416.416 0 01.188.192c.202.349.303.747.292 1.15a4.26 4.26 0 00-.033 1.105c.079.358.462.696.796.542a.84.84 0 00.379-.538c.93-2.689.509-5.627.084-8.441a.451.451 0 00-.14-.348.449.449 0 00-.357-.115c-1.967-.196-3.043-.667-4.168 1.163-.967 1.542-1.947 3.664-1.947 5.519z" fill="#FF6363"/>
    <path d="M120.251 212.471c-.584 2.427-1.171 4.882-1.209 7.375.01 1.552.127 3.103.35 4.639l.438 3.61c.15 1.217.296 2.43.508 3.635a9.6 9.6 0 01.221 1.889c-.04.626-.14 1.247-.296 1.855a21.676 21.676 0 00-.437 3.876c-.046 2.085.212 4.169.375 6.253a69.66 69.66 0 01-.146 12.473 4.681 4.681 0 00.684 3.214c.247.3.45.634.604.992.313.954-.417 1.909-.604 2.888a2.918 2.918 0 002.426 3.335c3.335.396 6.762.217 9.767 1.743.317-.926-.375-1.976-.058-2.918.2-.584.75-.963 1.125-1.455.504-.75.756-1.641.717-2.543a9.267 9.267 0 00-.617-3.447c-.354-.917-.863-1.822-.833-2.806 0-.483.171-.992-.025-1.438a2.257 2.257 0 00-.538-.671 8.47 8.47 0 01-2.18-4.94 22.717 22.717 0 01.175-5.477c.204-1.726.479-3.548 1.576-4.894a31.391 31.391 0 01.879-12.193c.109-.367.279-.792.655-.88a.935.935 0 01.8.317c.654.613.967 1.501 1.251 2.351.312.921.629 1.905.391 2.847-.1.417-.3.784-.416 1.184a3.504 3.504 0 00.125 2.447c.163.283.265.597.3.921-.039.279-.123.55-.25.801a3.67 3.67 0 00.346 2.98 10.81 10.81 0 001.946 2.389 8.756 8.756 0 00.271 4.819.614.614 0 01.055.462c-.075.159-.267.217-.417.33-.417.341-.159.988.121 1.434a32.869 32.869 0 002.53 3.51c.834.996.759 2.918 2.001 3.276a3.743 3.743 0 001.584 0c1.226-.188 2.593-.542 3.193-1.626.246-.446.346-.988.73-1.321.383-.334.88-.392 1.092-.792.213-.4-.025-.926.046-1.388.071-.463.475-.834.604-1.322.309-1.125-1.004-2.051-1.183-3.201-.259-1.668 1.842-2.918 1.755-4.586-.184-3.622-.301-7.261-.488-10.884a78.321 78.321 0 01-.1-9.75c.146-2.022.417-4.139-.325-6.019-1.068-2.652-4.011-4.14-6.858-4.423-2.847-.284-5.686.392-8.508.833a53.747 53.747 0 01-14.153.296z" fill="#3F3D56"/>
    <path d="M128.713 172.629a6.678 6.678 0 10.001-13.357 6.678 6.678 0 00-.001 13.357z" fill="#FBBEBE"/>
    <path d="M125.995 173.875a2.839 2.839 0 01-1.094 1.282 2.837 2.837 0 01-1.628.439c-.241 1.001.338 2.01 1.001 2.798a11.875 11.875 0 0011.364 3.897 5.602 5.602 0 002.238-.934 4.969 4.969 0 001.71-2.959c.191-1.15.246-2.318.162-3.481a.903.903 0 00-.183-.642.92.92 0 00-.584-.192c-1.409-.125-2.881-.179-4.119-.871s-2.117-2.255-1.521-3.539c-.096.2-2.531.296-2.852.338-1.004.141-2.009.3-3.009.483a5.455 5.455 0 00-1.414.267c-.604.312-.379.158-.237.725.212.867.525 1.488.166 2.389z" fill="#FBBEBE"/>
    <path d="M131.077 177.935c-.899.01-1.797-.089-2.672-.296a3.754 3.754 0 01-2.193-1.463c-.308-.467-.508-1.055-1-1.318-.805-.416-1.722.288-2.364.934a8.594 8.594 0 01-2.009 1.618c-.892.471-1.935.637-2.777 1.192a6.975 6.975 0 00-1.667 1.801l-5.907 8.045c-2.372 3.235-4.436 6.707-6.549 10.121-1.83 2.956-2.789 6.357-4.169 9.546-.11.195-.154.42-.13.642.05.217.314.392.497.267-.621.617-.075 1.667-.221 2.534a3.109 3.109 0 01-.992 1.555 7.856 7.856 0 012.751.129 8.44 8.44 0 012.601 1.251c.505-.079.459-.975.834-1.309.225-.196.559-.171.855-.229 1.113-.217 1.555-1.555 2.409-2.31.713-.629 1.722-.833 2.477-1.425 1.225-.963 1.488-2.676 2.13-4.098.546-1.205 1.405-2.255 1.884-3.489.313-.8.463-1.667.909-2.405.713-1.192 2.055-1.826 3.335-2.397.808-.363 1.667-.738 2.539-.68-.046 1.939-.292 3.848.129 5.74.146.667.35 1.318.525 1.981.796 2.984.984 6.094 1.021 9.17a27.91 27.91 0 015.837-.7c1.546-.046 3.089.154 4.635.125 1.834-.033 3.648-.388 5.482-.513s3.752 0 5.373.834a51.216 51.216 0 01.221-7.92l.442-4.144c.1-1.204.285-2.399.555-3.576.242-.951.592-1.868.859-2.814.937-3.335.767-6.895.587-10.367-.091-1.784-.779-3.539-1.588-5.128a13.917 13.917 0 00-1-1.7 9.853 9.853 0 00-8.613-4.044 1.768 1.768 0 00-.617.133 2.06 2.06 0 00-.788.938 10.209 10.209 0 01-3.631 3.769zm-8.237-9.771c.187-.416.692-.571 1-.904.592-.634.325-1.647.417-2.501.15-1.251 1.188-2.297 2.376-2.743a7.677 7.677 0 013.752-.238 3.64 3.64 0 011.693.563c.216.158.416.363.621.508a1.665 1.665 0 002.267-.529c-1.475-1.776-3.109-3.652-5.352-4.198a11.005 11.005 0 00-2.339-.221c-1.038-.02-2.109-.037-3.068.359-1.305.538-2.222 1.776-2.693 3.11a15.105 15.105 0 00-.654 4.168 15.608 15.608 0 000 2.835 7.828 7.828 0 001.392 3.572c.102.164.246.298.417.388 1.901.834.016-3.823.171-4.169z" fill="#3F3D56"/>
    <path d="M134.75 161.291c-.23-1.964-1.63-3.585-3.119-4.89a11.504 11.504 0 00-4.189-2.522c-1.572-.463-3.381-.363-4.727.575-1.084.755-1.772 1.955-2.302 3.164a9.958 9.958 0 00-1.004 4.586c.104 1.575.871 3.172 2.238 3.968.492-.725 1.347-1.1 2.168-1.396a105.976 105.976 0 0110.935-3.485z" fill="#FED253"/>
    <path opacity=".1" d="M122.106 160.473c.133 0 .221.137.288.25.339.529.631 1.087.871 1.667-.488.105-1.326.221-1.568-.208-.129-.217.025-1.73.409-1.709zm9.5-.942c-.1.096-.216-.1-.216-.242v-1.617a.231.231 0 01.029-.129.195.195 0 01.137-.067c.338-.038.617.25.834.525.329.446.615.922.855 1.422l-1.764-.054" fill="#000"/>
    <path d="M153.613 186.314c.384-.364.793-.7 1.226-1.005 1.154-.771 2.551-1.075 3.847-1.567 1.297-.492 2.614-1.288 3.119-2.58.252-.808.334-1.66.241-2.501a2.485 2.485 0 00-.183-1.03 2.042 2.042 0 00-.659-.717c-1.759-1.301-4.118-1.405-6.303-1.272a39.503 39.503 0 00-13.927 3.477 1.208 1.208 0 00-.584.417c-.086.181-.124.38-.113.579a9.616 9.616 0 00.471 3.631c.576 1.484 1.76 2.681 2.256 4.194.225.679.3 1.4.496 2.084a2.922 2.922 0 001.171 1.743c1.647.983 3.202-.338 4.344-1.364l4.598-4.089z" fill="#3F3D56"/>
    <path d="M132.048 192.087l-2.113-4.61a16.282 16.282 0 01-.801-1.972c-.241-.805-.358-1.638-.583-2.447-.742-2.693-2.614-4.936-3.527-7.574a1.438 1.438 0 00-.342-.638 1.115 1.115 0 00-.929-.167c-1.276.221-2.272 1.192-3.44 1.743-.542.25-1.125.417-1.667.704a2.089 2.089 0 00-1.117 1.33c-.13.638.187 1.251.454 1.872 1.134 2.559 1.392 5.419 1.442 8.22.038 1.884-.058 3.906-1.171 5.419-2.139 2.918-.771 7.203.029 10.734.096.417.209.867.275 1.309.071.553.103 1.11.096 1.668 0 1.871-.104 3.801-.888 5.498a6.161 6.161 0 002.502.709c2.42.308 4.851.525 7.291.65a7.948 7.948 0 002.288-.117 4.167 4.167 0 003.081-4.085c.133 1.155.379 2.409 1.217 3.21.838.8 2.06.921 3.198.984 3.212.17 6.432.079 9.629-.271.204-.01.405-.056.592-.138.617-.308.651-1.159.601-1.842-.092-1.28-.188-2.56-.342-3.831a15.607 15.607 0 01-.2-2.452c.063-.844.203-1.681.417-2.501.558-2.601 1-5.256.812-7.92-.074-.649-.1-1.302-.079-1.955.109-1.471.884-2.872.738-4.335-.417-4.302-.754-8.717-1.955-12.869-.217-.742-.492-1.538-1.138-1.963-.834-.559-2.005-.267-2.96-.621a7.368 7.368 0 01-1.271-.755 5.83 5.83 0 00-2.873-.883c-.767-.03-1.621.141-2.084.758a3.042 3.042 0 00-.417 1.138c-.604 2.543-1.313 5.057-2.022 7.57l-.679 2.41-1.822 6.469c-.179.688-.058.901-.242 1.551z" fill="#FF6363"/>
    <path d="M142.708 166.847l40.324 42.373v3.593h-17.98l-30.302-39.547" fill="#F1C0C0"/>
    <path opacity=".1" d="M142.708 166.847l40.324 42.373v3.593h-17.98l-30.302-39.547" fill="#000"/>
    <path opacity=".1" d="M135.391 172.708l.13.046 29.789 36.466h17.722v3.594h-17.98l-30.302-39.547.641-.559z" fill="#000"/>
    <path d="M140.031 173.6c-1.459.638-3.08 1.455-3.518 2.989a1.71 1.71 0 00-.054.834 1.697 1.697 0 001.53 1.171 5.006 5.006 0 002.005-.366l8.608-2.843c.234-.075.5-.188.559-.417a.712.712 0 00-.084-.417c-.266-.65-.529-1.98-1.088-2.435-.458-.366-1.367-.237-1.921-.229-2.135.017-4.14.88-6.037 1.713z" fill="#FF6363"/>
    <path d="M147.706 175.722c1.45-.005 2.892.219 4.273.662a7.62 7.62 0 013.539 2.418c.269.316.461.69.559 1.092.083.417 1.442.667 1.142.951.913-.146.696.283 1.622.275.925-.008 1.926-.246 2.48-.984a3.224 3.224 0 00.488-2.038 3.486 3.486 0 00-.275-1.443c-.417-.875-1.376-1.346-2.26-1.75l-7.445-3.406a4.954 4.954 0 00-1.376-.488 5.182 5.182 0 00-1.213.029l-3.372.388a5.055 5.055 0 012.305 4.448" fill="#3F3D56"/>
  </g>
  <defs>
    <clipPath id="projectlink-beta__clip0">
      <path fill="#fff" d="M0 0h491v302H0z"/>
    </clipPath>
  </defs>
</svg>
