<svg width="387" height="215" fill="none" xmlns="http://www.w3.org/2000/svg">
  <g clip-path="url(#projectlink-goals__clip0)">
    <path d="M334.195 213.73c29.164 0 52.805-3.265 52.805-7.292 0-4.028-23.641-7.292-52.805-7.292-29.163 0-52.805 3.264-52.805 7.292 0 4.027 23.642 7.292 52.805 7.292zm-281.236.77c29.248 0 52.959-3.265 52.959-7.292 0-4.028-23.71-7.293-52.959-7.293C23.71 199.915 0 203.18 0 207.208c0 4.027 23.71 7.292 52.959 7.292z" fill="#E6E6E6"/>
    <path d="M88.256 98.348l1.362 2.821s7.732 10.339 2.956 11.959c-4.777 1.62-7.312-9.806-7.312-9.806L84 101.723l4.257-3.375z" fill="#FFB8B8"/>
    <path d="M79.349 44.94l1.27-.538s1.505.538 1.505 2.855c0 2.318-1.85 36.147-1.85 36.147l3.7 18.537-5.088.927-7.863-17.147 8.326-40.78z" fill="#575A89"/>
    <path d="M79.349 44.94l1.27-.538s1.505.538 1.505 2.855c0 2.318-1.85 36.147-1.85 36.147l9.944 15.988-6.475 4.634-12.72-18.305 8.326-40.78z" fill="#575A89"/>
    <path d="M78.423 98.697s6.013 2.317 5.55 6.488c-.462 4.17-6.475 87.122-6.475 87.122l1.85 9.269-17.576.463-.462-59.781-12.489 59.781H31.245L43.734 96.843l34.69 1.854z" fill="#2F2E41"/>
    <path d="M77.036 199.722l4.163 4.171s9.713 1.853 7.4 5.097c-2.313 3.244-26.364-.927-26.364-.927l.462-7.414 14.339-.927zm-30.064 0l4.162 4.171s9.713 1.853 7.4 5.097c-2.312 3.244-26.363-.927-26.363-.927l.462-7.414 14.339-.927z" fill="#2F2E41"/>
    <path d="M63.622 28.257c6.131 0 11.101-4.98 11.101-11.122 0-6.142-4.97-11.122-11.1-11.122-6.131 0-11.101 4.98-11.101 11.122 0 6.143 4.97 11.122 11.1 11.122z" fill="#FFB8B8"/>
    <path d="M70.56 23.623l-.925 19-14.338-8.341 1.85-10.66h13.414z" fill="#FFB8B8"/>
    <path d="M54.835 29.648l13.413 9.731 2.313-6.951 4.162 11.122-2.313 19.927-17.575-33.83z" fill="#CFCCE0"/>
    <path d="M54.834 28.257l14.801 20.39.536-17.033 4.552 3.595v3.707L81.2 44.94l-2.313 23.171-.462 27.342s2.775 2.317 1.85 3.707c-.925 1.391-4.626 4.634-8.788 4.634-4.163 0-30.065-3.243-30.065-5.097 0-1.854.925-25.951.925-25.951v-32.44l11.1-8.341 1.389-3.708z" fill="#575A89"/>
    <path d="M40.496 105.184l6.013 8.805 2.313-10.195-2.776-1.853-5.55 3.243z" fill="#FFB8B8"/>
    <path opacity=".2" d="M69.664 118.463l-8.892 24.131.868.322 8.892-24.132-.868-.321z" fill="#000"/>
    <path d="M56.916 6.245s1.387-6.951 9.25-5.561l-.925.463s7.4-.927 6.476 3.244c0 0 6.013 3.708 4.625 7.878a47.236 47.236 0 00-1.85 7.415l-1.388-1.39s-1.387-9.269-9.713-8.342c-6.244.695-8.788 3.65-9.438 5.778a18.832 18.832 0 01-1.143 2.913l-.52.114S49.516 8.562 56.916 6.245z" fill="#2F2E41"/>
    <path d="M47.434 39.843l-4.21-.196-.878.66a27.73 27.73 0 00-2.775 3.243c-.925 1.39-12.95 35.22-12.95 35.22a11.828 11.828 0 00.924 6.024c1.388 3.244 12.489 22.708 12.489 22.708l8.325-5.098-11.1-22.707 7.862-11.122 2.313-28.732z" fill="#575A89"/>
    <path d="M318.501 185.24v12.483h7.476l.996-12.483h-8.472zm17.692.749l2.989 6.99 4.984 1.997.996-13.98-3.986-1.997-4.983 6.99z" fill="#A0616A"/>
    <path d="M342.671 191.981s-.423-3.152-4.697-1.826l.71 9.315s-3.488 10.485 1.495 9.487c4.983-.999 7.973-10.486 7.973-10.486l3.489-15.977-8.424-2.472-.546 11.959zm-31.395-105.85s-6.977 52.925-4.485 58.916c2.491 5.992 28.654 44.687 28.654 44.687l11.461-14.979-25.664-32.204 23.92-32.953 1.994-19.972-35.88-3.495z" fill="#2F2E41"/>
    <path d="M338.684 105.104l6.579 3.488-.101 1.006-16.195 81.134-12.459-2.496 8.223-57.169 13.953-25.963zm-20.93 88.874l-2.99 4.493s-6.478 10.985.498 10.985c6.977 0 9.967 0 10.465-2.497a33.026 33.026 0 011.495-4.993l-.498-6.49-8.97-1.498z" fill="#2F2E41"/>
    <path d="M337.189 28.713c6.055 0 10.963-4.918 10.963-10.985 0-6.066-4.908-10.984-10.963-10.984-6.055 0-10.963 4.918-10.963 10.984 0 6.067 4.908 10.985 10.963 10.985z" fill="#A0616A"/>
    <path d="M328.219 21.223s1.495 8.488-2.99 9.986c-4.485 1.498 5.482 21.47 5.482 21.47l11.461-18.973s-2.99-6.491-.996-9.487l-12.957-2.996z" fill="#A0616A"/>
    <path d="M330.711 44.19l-2.705-16.27-5.268 3.29-13.954 7.988 5.482 23.466-1.994 14.48s-2.491 4.493-1.993 6.49c.498 1.998-.498 2.996 0 3.496.498.499 25.415 4.493 32.89 7.49 7.475 2.995 8.472 3.993 7.973 1.497-.498-2.496-5.98-14.48-5.98-14.48l4.485-19.971 5.98-17.475-14.517-13.424-10.399 13.424z" fill="#575A89"/>
    <path d="M352.139 66.16l3.488 9.486-8.969 16.477-2.927 2.28a2.994 2.994 0 00-1.056 3.127l1.989 7.574 5.214-7.758s14.221-17.206 13.723-21.7c-.499-4.494-1.994-11.484-1.994-11.484l-9.468 1.997zm-49.335-7.99l-2.492 12.483-9.468 23.467s-10.465 9.986-5.482 11.983c4.984 1.997 10.964-9.986 10.964-9.986l11.96-22.468 4.485-13.48-9.967-1.998z" fill="#A0616A"/>
    <path d="M350.146 43.192l4.011-.36 1.47 1.359s8.472 18.973 7.475 20.97c-.996 1.997-10.963 2.996-10.963 2.996l-3.987-11.983 1.994-12.982zm-37.874-3.495l-2.472-1.08-1.016.58s-9.967 19.973-7.475 20.971c2.492.999 14.452 2.497 14.452 2.497l-3.489-22.968z" fill="#575A89"/>
    <path opacity=".2" d="M322.737 144.926l-3.038 21.121-2.827-4.352 5.865-16.769z" fill="#000"/>
    <path d="M344.315 11.223s1.104 2.912-4.021 1.42c0 0-2.03.99-1.912-.702 0 0-2.798 2.639-3.331.901-.532-1.738-1.991.428-1.991.428l-1.104-2.912-1.419 1.601-4.553-.319S325.47.266 341.003 2.488c15.532 2.221 6.605 19.56 6.605 19.56s.098-3.218-1.321-1.616c-1.419 1.601-1.972-9.209-1.972-9.209z" fill="#2F2E41"/>
    <path d="M91.95 100.9v47.944h199.89V100.9H91.949zm119.763 39.899H104.314v-6.757h107.399v6.757zm0-12.549H104.314v-6.757h107.399v6.757zm67.763-12.549H104.314v-6.757h175.162v6.757z" fill="#FF6363"/>
    <path d="M202.119 79.737h-26.977V52.71h18.306v.643h-17.663v25.742h25.692V66.223h.642v13.514z" fill="#3F3D56"/>
    <path d="M188.492 72.687c-.624-1.844-8.441-8.113-3.651-9.167l3.929 5.248 18.061-18.096 1.817 1.82-20.156 20.195z" fill="#FF6363"/>
  </g>
  <defs>
    <clipPath id="projectlink-goals__clip0">
      <path fill="#fff" transform="translate(0 .5)" d="M0 0h387v214H0z"/>
    </clipPath>
  </defs>
</svg>
