<svg fill="none" xmlns="http://www.w3.org/2000/svg" viewBox="0 0 439 384">
  <g clip-path="url(#projectlink-business-woman__clip0)">
    <path opacity=".1" d="M329.017 376.759c1.492-10.794-70.944-29.696-161.792-42.218C76.378 322.018 1.522 320.618.03 331.412c-1.493 10.794 70.944 29.696 161.791 42.218 90.847 12.523 165.703 13.923 167.196 3.129zM9.489 264.85c2.988 7.193 6.91 14.088 12.398 19.377 6.686 6.443 14.99 9.958 23.882 11.639 2.621.487 5.268.829 7.927 1.024 7.027.54 14.221.181 21.122-.568a250.073 250.073 0 0057.678-13.334 241.42 241.42 0 0011.783-4.567c15.853-6.615 32.242-15.051 49.107-12.435 8.174 1.271 15.854 5.121 24.046 6.267 5.75.754 11.593.339 17.178-1.22a59.157 59.157 0 007.926-2.733 90.161 90.161 0 0016.469-9.311c12.356-8.622 23.444-19.311 36.453-26.779 14.343-8.236 30.219-12.151 46.394-15.07a473.22 473.22 0 017.927-1.359c7.483-1.234 14.986-2.375 22.381-3.725 7.124-1.313 14.375-2.919 20.576-6.867 4.425-2.793 8.146-6.718 11.559-10.829a129.109 129.109 0 0016.781-26.173c6.85-14.032 11.457-29.33 14.282-45.159.084-.466.164-.931.243-1.397 2.658-15.517 3.627-31.56 3.334-47.487l-.028-1.396c-.182-7.863-.672-15.694-1.399-23.413-.522-5.428-1.222-11.062-4.038-15.624-2.816-4.563-7.4-7.495-11.988-9.935-20.189-10.74-39.544-13.73-61.263-8.524a393.678 393.678 0 00-10.436 2.663 802.41 802.41 0 00-7.926 2.174c-18.245 5.079-36.444 10.484-55.305 12.104-1.824.159-3.648.28-5.469.363-3.609.168-7.218.205-10.827.112a187.335 187.335 0 01-27.715-2.85 217 217 0 01-7.927-1.517c-11.386-2.37-22.656-5.53-33.767-9.022a663.446 663.446 0 01-6.789-2.18c-5.092-1.661-10.184-3.356-15.285-5.004-15.228-4.92-30.531-9.432-46.277-11.248a162.327 162.327 0 00-4.047-.405c-1.292-.111-2.588-.2-3.88-.265-24.456-1.304-49.191 4.586-70.873 16.639a133.258 133.258 0 00-18.385 12.31c-6.92 5.516-13.396 11.796-18.33 19.343-4.807 7.351-7.926 15.606-9.721 24.283-.098.466-.191.932-.275 1.397-2.635 14.009-1.814 29.032 1.142 43.069.313 1.471.644 2.947.989 4.418.107.465.219.931.33 1.397 3.19 13.273 7.265 26.508 6.202 40.079a59.218 59.218 0 01-.63 5.08c-.079.465-.158.931-.247 1.396-2.08 11.071-6.807 21.574-9.642 32.538a100.098 100.098 0 004.36 62.724z" fill="#FF6363"/>
    <path opacity=".1" d="M45.77 121.636H9.115c.107.465.219.931.33 1.397H45.77v45.159H15.02c-.08.465-.159.931-.248 1.396H45.77v126.273a71.88 71.88 0 007.927 1.024V169.588h70.873v116.101c2.658-.857 5.3-1.759 7.927-2.705V169.588H234.61v101.44a59.017 59.017 0 007.926-2.733v-98.697h99.316v47.542a473.22 473.22 0 017.927-1.359v-46.193H420.4c.234-.465.462-.931.686-1.396h-71.307v-45.159h85.603c.084-.466.163-.932.242-1.397h-85.845V74.149h89.165l-.028-1.397h-89.137V17.92a797.824 797.824 0 00-7.927 2.174v52.66h-96.984l-.243-.266 36.444-39.93a150.36 150.36 0 01-10.827.111l-27.706 30.373V29.819a217.57 217.57 0 01-7.926-1.518v33.204l-40.534-44.41c-5.091-1.662-10.183-3.356-15.284-5.004l55.118 60.396-.242.266H132.487V.846a162.401 162.401 0 00-4.048-.405c-1.291-.111-2.587-.2-3.879-.265v72.575H53.687V16.816a135.303 135.303 0 00-7.927 4.767v51.17H7.26c-.098.465-.191.93-.275 1.396h38.784v47.487zm78.799-47.487v47.487H53.696V74.149h70.873zm7.927 0H234.61v47.487H132.496V74.149zm209.356 47.487h-99.316V75.42l1.399-1.27h97.917v47.486zm-99.316 46.556v-45.159h99.316v45.159h-99.316zm-110.04 0v-45.159H234.61v45.159H132.496zm-78.8-45.159h70.873v45.159H53.696v-45.159z" fill="#FF6363"/>
    <path opacity=".1" d="M250.826 87.25a6.016 6.016 0 012.043-1.16 13.746 13.746 0 015.194-.563c1.283.07 2.557.248 3.809.531l58.583 16.555c1.105.312 2.191.68 3.264 1.09 3.777-1.476 14.454-5.75 15.625-7.277l4.588 1.34-7.656 11.412a1.048 1.048 0 01-.075 1.946c-8.827 3.03-22.157-.987-22.157-.987l-51.183-14.6s-15.466-5.215-12.035-8.287z" fill="#FF6363"/>
    <path opacity=".1" d="M318.937 105.659c.129-.391.043-.77-.192-.847-.235-.078-.53.177-.659.567-.128.391-.042.77.192.848.235.077.53-.177.659-.568zm-1.771-.583c.128-.391.042-.77-.192-.847-.235-.077-.53.177-.659.568-.129.39-.043.77.192.847.235.077.53-.177.659-.568zm-3.411-1.122c.129-.391.043-.77-.192-.847-.235-.077-.53.177-.658.568-.129.39-.043.77.192.847.234.077.529-.177.658-.568zm-9.61-2.819c.129-.391.043-.77-.192-.847-.235-.077-.53.177-.659.568-.128.39-.042.77.192.847.235.077.53-.177.659-.568zm-1.695-.553c.129-.39.043-.77-.192-.847-.235-.077-.53.177-.658.568-.129.391-.043.77.191.847.235.077.53-.177.659-.568zm-1.749-.411c.129-.39.043-.77-.192-.847-.235-.077-.53.177-.659.568-.128.39-.043.77.192.847.235.077.53-.177.659-.568zm-1.763-.576c.129-.39.043-.77-.192-.847-.234-.077-.529.177-.658.568-.129.39-.043.77.192.847.235.077.53-.177.658-.568zm-1.728-.571c.129-.39.043-.77-.191-.847-.235-.078-.53.177-.659.567-.129.391-.043.77.192.848.235.077.53-.177.658-.568zm-1.57-.515c.129-.39.043-.77-.192-.847-.235-.078-.529.177-.658.567-.129.391-.043.77.192.848.234.077.529-.177.658-.568zm-1.681-.555c.129-.391.043-.77-.192-.847-.235-.078-.53.177-.659.567-.129.391-.043.77.192.848.235.077.53-.177.659-.568zm-1.758-.576c.129-.391.043-.77-.192-.848-.235-.077-.53.177-.658.568-.129.39-.043.77.191.847.235.078.53-.177.659-.567zm-1.562-.513c.129-.39.043-.77-.192-.847-.234-.078-.529.177-.658.567-.129.391-.043.77.192.848.235.077.529-.177.658-.568zm-9.645-2.603c.127-.391.041-.77-.194-.847-.235-.076-.529.179-.657.57-.128.39-.041.77.194.846.235.076.529-.179.657-.57zm-2.505-.774c.129-.39.043-.77-.192-.847-.234-.078-.529.177-.658.567-.129.391-.043.77.192.848.235.077.53-.177.658-.568zm-1.715-.565c.128-.39.042-.77-.192-.847-.235-.077-.53.177-.659.568-.129.39-.043.77.192.847.235.077.53-.177.659-.568zm-1.662-.543c.129-.391.043-.77-.192-.847-.235-.078-.53.177-.659.567-.128.391-.042.77.192.848.235.077.53-.177.659-.568zm-1.637-.538c.129-.391.043-.77-.192-.848-.235-.077-.529.177-.658.568-.129.391-.043.77.192.847.235.078.529-.177.658-.567zm-1.847-.614c.128-.39.043-.77-.192-.847-.235-.077-.53.177-.659.568-.129.39-.043.77.192.847.235.077.53-.177.659-.568z" fill="#FF6363"/>
    <path opacity=".1" d="M280.133 94.028c.129-.391.043-.77-.192-.848-.235-.077-.529.177-.658.568-.129.391-.043.77.192.848.235.077.529-.178.658-.568zm35.192 10.441c.129-.391.043-.77-.192-.847-.234-.077-.529.177-.658.568-.129.39-.043.77.192.847.235.077.529-.177.658-.568zm-28.965-6.571l1.602.395.69-2.789-1.602-.395-.69 2.79zm-18.881-5.396l1.602.395.69-2.788-1.603-.395-.689 2.788zm-7.509-6.276l2.131.558-1.063 1.602-3.157-.782 2.089-1.378zm-7.101-.116l4.602 1.196 1.753-1.08-1.161-.68a13.744 13.744 0 00-5.194.563zm91.063 11.629l-7.656 11.448-12.506-5.536s14.161-5.39 15.56-7.253l4.602 1.34zm-55.538 1.718l20.204 5.447 1.193 2.383-21.397-7.83zM87.776 41.449h.61a1.51 1.51 0 01-.745-1.22c0-.96 1.18-1.746 2.62-1.746h18.38c1.441 0 2.621.787 2.621 1.746 0 .963-1.18 1.75-2.621 1.75h-.615a1.523 1.523 0 01.751 1.22c0 .82-.858 1.513-2.01 1.7h5.292c1.441 0 2.625.786 2.625 1.745 0 .96-1.184 1.75-2.625 1.75h-18.38c-1.441 0-2.62-.786-2.62-1.75 0-.82.857-1.508 2.004-1.694h-5.287c-1.446 0-2.625-.787-2.625-1.751 0-.964 1.18-1.75 2.625-1.75zm199.173 16.652h.624a1.517 1.517 0 01-.746-1.22c0-.963 1.18-1.75 2.621-1.75h18.38c1.441 0 2.621.787 2.621 1.75 0 .96-1.18 1.746-2.621 1.746h-.615a1.533 1.533 0 01.751 1.22c0 .824-.858 1.513-2.005 1.7h5.287c1.446 0 2.625.786 2.625 1.75s-1.179 1.746-2.625 1.746h-18.39c-1.445 0-2.625-.787-2.625-1.746 0-.82.858-1.513 2.005-1.7h-5.287c-1.446 0-2.625-.786-2.625-1.75s1.179-1.746 2.625-1.746zM59.566 129.359h.616a1.517 1.517 0 01-.751-1.219c0-.964 1.18-1.751 2.62-1.751h18.38c1.442 0 2.621.787 2.621 1.751 0 .959-1.18 1.745-2.62 1.745h-.616a1.526 1.526 0 01.751 1.22c0 .82-.858 1.513-2.005 1.7h5.288c1.445 0 2.625.786 2.625 1.75s-1.18 1.746-2.625 1.746H65.493c-1.446 0-2.626-.787-2.626-1.746 0-.824.858-1.513 2.01-1.699h-5.31c-1.442 0-2.626-.787-2.626-1.751 0-.963 1.226-1.746 2.625-1.746z" fill="#FF6363"/>
    <path d="M259.667 137.996c-.466-2.929-3.394-8.283-3.394-8.283l-4.229-7.169s-1.66-1.96-1.507-2.593c.154-.634-1.963-1.681-1.963-1.681s-1.207-1.574-1.282-2.328c-.074-.754-6.868-6.452-6.868-6.452s-2.331-1.951-1.809-8.548h-5.358a28.465 28.465 0 00-4.079.405l-7.815-9.111s-6.15-5.089-11.587-8.091v-.14a16.4 16.4 0 00-2.989-9.497l-.056-.075a7.273 7.273 0 002.425-1.117 2.98 2.98 0 001.082-1.327c.871-2.235-2.57-3.259-4.141-4.064-3.185-1.64-5.833-4.079-9.083-5.587a24.277 24.277 0 00-20.67.13c-3.175 1.57-5.94 3.823-8.794 5.913-4.471 3.259-2.751 6.262-6.248 10.554-3.497 4.293-5.474 10.34-3.287 15.415 1.287 2.98 3.847 5.265 6.658 6.913 2.812 1.648-.62 2.738 2.392 3.985.709.298 1.483.666 1.772 1.397a2.82 2.82 0 01-.079 1.834c-.555 1.979-1.292 4.111-.9 6.053a50.259 50.259 0 01-3.147 1.354c-3.87 1.35-4.528 4.083-4.528 4.083s.704 2.421-.853 3.622-.905 4.498-.905 4.498-2.112 4.748-1.566 5.447c.424.602.796 1.239 1.114 1.904 0 0-1.762 1.396-.858 3.398.905 2.002 0 4.148 0 4.148s.466 1.104-.35 1.704c-.816.601 0 5.173 0 5.173a2.706 2.706 0 01-.657 1.676c-.681.8 0 8.598 0 8.598-.191.39-.476.726-.83.978-.466.224-1.809 7.575-1.431 7.947.377.373-5.689 18.05-5.689 18.05s.149 3.072-.681 3.598c-.83.527-.979 4.051-.979 4.051s.373 3.147-1.133 3.748c-1.506.6-1.814 11.252-1.814 11.252s-2.037 5.475-3.264 6.373a15.463 15.463 0 004.435 3.725l-.187.493c-1.021 2.794-2.41 7.123-2.592 10.708a23.59 23.59 0 00-3.292 3.939s.541.465 1.198 1.024l-15.424 19.013c-6.304-9.017-9.727-5.675-9.727-5.675l-2.331.638c-.359.084-1.753.312-1.865-1.248a4.342 4.342 0 00-.336-1.34 3.379 3.379 0 00-.979-1.341 2.107 2.107 0 00-2.159-.312c-1.958.754-27.724 5.121-27.724 5.121s-8.044 1.35-15.439 11.099a125.175 125.175 0 01-14.034 15.75l-20.106 23.831s-10.146 13.692-5.222 13.446c-1.199 2.937-.06 5.903-.06 5.903l19.918 25.317a4.06 4.06 0 001.876 3.441 4.091 4.091 0 003.914.266 4.078 4.078 0 002.325-3.156 4.066 4.066 0 00-1.42-3.652l29.735-13.762a4.054 4.054 0 002.795 1.856 4.067 4.067 0 004.717-3.884 4.06 4.06 0 00-1.292-3.093l11.256-11.28s33.352-34.949 35.903-40.201c1.45-2.97-1.101-7.048-3.586-10.023l21.281-27.468.765.344 4.28-4.362c3.264-2.616.499-5.987.499-5.987-.975-.88-2.83-.745-4.929-.149.196-.838.373-1.653.523-2.416.042-.205.084-.405.121-.605a19.74 19.74 0 003.991-.405s.466-9.824 1.809-13.725l4.001-19.875s2.415-8.473 3.32-13.124c.904-4.651 4.882-22.5 4.882-22.5.648-1.951.932 3.301.932 3.301s1.31 1.35 1.007 2.048c-.303.699.252 4.702.252 4.702s.704 2.398.205 2.901c-.101.121-.179.26-.228.409-.466 1.071-1.087 4.363-1.087 4.363l-1.767 6.541-.294.237a9.13 9.13 0 00-2.541 3.641c-.536 1.248-.844 2.43-1.161 3.184a2.254 2.254 0 01-.27.466 3.62 3.62 0 00-.466.824 16.538 16.538 0 00-.905 3.198l.21.135c0 .042-.033.089-.051.131l-.089.223v.028c-.191.466-.368.954-.546 1.439l-.056.153c-.163.466-.321.931-.466 1.374-.023.079-.051.158-.074.237-.145.433-.28.866-.411 1.29l-.084.27c-.121.405-.242.805-.354 1.196 0 .047-.028.098-.042.14a39.343 39.343 0 00-1.511 10.303c-.107 8.221-.186 24.818.83 27.062.066.149.135.322.201.512 1.259 3.683 2.215 14.787 2.215 14.787.672.461 1.374.876 2.102 1.243.024.209.047.419.075.637.536 4.567 1.292 10.745 1.543 11.369.406 1.001 1.311 6.984 1.311 6.984s-.709 2.695-1.208 5.195c-.499 2.5-7.045 9.404-7.045 9.404-8.342 6.909-16.693 31.318-16.693 31.318-1.665 3.576-3.502 4.898-4.854 5.354-9.013-.335-9.433 6.984-9.433 6.984l-5.688 10.898 1.441 1.02.676.465 5.786-6.699s0 7.649-1.058 9.497c-.718 1.257-.835 3.562-.835 4.912 0 .633.028 1.057.028 1.057s1.763 3.724 9.507 8.333c3.479 2.063 5.507 1.714 6.687.694 1.445-1.248 1.618-3.492 1.618-3.492l-3.264-5.535c-.163.07-.322.121-.466.181v-.596c.205-4.888 4.606-15.2 4.606-15.2s4.225-11.103 7.745-14.502c3.073-2.966 15.41-21.69 18.506-26.416v.159c0 .228.033.465.056.661.467 5.06 1.866 7.295 1.866 7.295s1.608 20.484 1.907 25.699c.191 3.259-.607 5.461-1.231 6.648l-.033.056c-.033 0-3.213 1.666-3.511 4.897-.298 3.231 1.506 6.299 1.506 6.299s4.108 10.238 3.959 13.18h2.415l-.401-8.901.037.046c.439.582 4.752 6.36 4.896 9.251 0 0 1.091 2.975 1.059 3.79a.353.353 0 010 .065c-.103.698 3.823 3.999 9.512 3.347 5.688-.652 6.686-1.448 6.686-1.448s.065-.181.149-.465c.284-1.071.737-3.683-1.152-4.973-2.364-1.615-7.278-6.145-7.488-6.336-.807-6.699-3.376-15.801-3.376-15.801V320.41s1.161-31.402.359-36.7a27.913 27.913 0 010-9.102s3.521-9.897 2.798-11.001c-.723-1.103 1.506-5 1.506-5l4.229-11.839.247-.689c.69-.261 1.143-.433 1.306-.466 1.399-.297 0-2.551 0-2.551s4.485-19.046 4.028-22.5c-.457-3.455 1.059-17.621 1.059-17.621l.722-5.876.066-.526c.466.578.792.931.792.931 4.826-.8 8.953-13.966 7.894-14.702-1.058-.736-4.024-10.349-4.024-10.349-4.728-6.551-.466-20.15-.466-20.15s4.327-10.949 4.276-12.751c-.051-1.802 1.007-1.862 1.007-1.862v-.052c3.973.848 17.77 3.776 18.478 3.92.83.168 2.49.28 4.15.955 1.66.675 12.38-.955 12.38-.955s6.793-.614 6.341-3.528zm-106.776 91.761l-3.479 4.413.518.233-21.155 26.332c-1.128-1.178-1.972-1.918-1.972-1.918-.215-.377-.429-.736-.639-1.09l15.713-20.019c.09.072.187.135.289.187l1.245-1.481c.343.302.742.533 1.175.68 2.952 1.01 5.129-2.831 6.622-7.361a4.096 4.096 0 011.683.014v.01zm47.312-127.046v-.154.154zm0-.27a.955.955 0 010 .107.76.76 0 00.01-.107h-.01zm28.97 20.545s-.681-2.1-1.133-2.1a6.544 6.544 0 01-1.66-.6 1.345 1.345 0 01-1.055-.153 1.33 1.33 0 01-.605-.876c-.466-1.397-3.348-2.495-3.348-2.495s-4.224-1.751-4.579-3.203c-.354-1.453-6.388-3.05-6.388-3.05s.406-.596-2.163-1.448a9.543 9.543 0 01-2.481-1.513 57.252 57.252 0 01-5.553-5.121c.064-1.089.247-2.168.546-3.217.065-.237.135-.465.214-.698a15.083 15.083 0 003.311-2.216l3.133 4.539a1.049 1.049 0 001.455.27l2.499-1.7a9.431 9.431 0 004.196.62l5.563 6.699c-.08.76.001 1.527.238 2.253l12.93 15.303a1430.25 1430.25 0 00-5.111-1.294h-.009z" fill="url(#projectlink-business-woman__paint0_linear)"/>
    <path d="M231.723 101.053s-14.235.149-11.81 8.022l5.432 3.147 5.413-1.099 2.541-4.483-1.576-5.587z" fill="#65617D"/>
    <path opacity=".1" d="M231.723 101.053s-14.235.149-11.81 8.022l5.432 3.147 5.413-1.099 2.541-4.483-1.576-5.587z" fill="#000"/>
    <path d="M200.716 87.334c3.903 14.171 13.42 12.788 13.42 12.788l6.103 7.379.9 1.146 1.949 2.477 8.635-4.898-1.72-2.021-10.09-11.834s-23.099-19.204-19.197-5.037z" fill="#FBBEBE"/>
    <path d="M199.846 92.153a.13.13 0 00.182.034.131.131 0 00.034-.181l-1.079-1.57a.13.13 0 10-.215.147l1.078 1.57zm5.548-7.539c.024.034.07.042.104.02a.074.074 0 00.019-.104l-.319-.465a.074.074 0 00-.103-.02.075.075 0 00-.02.104l.319.465zm1.828 3.174a.083.083 0 00.116.021.083.083 0 00.021-.116l-.611-.878a.084.084 0 00-.138.096l.612.877zm.157-.281a.08.08 0 00.111.02.079.079 0 00.02-.11l-.62-.902a.079.079 0 10-.13.09l.619.902z" fill="#3A3768"/>
    <path d="M207.473 101.205l5.534-3.79a1.04 1.04 0 00.27-1.449l-8.934-13.008a1.045 1.045 0 00-1.452-.27l-5.533 3.788a1.042 1.042 0 00-.271 1.45l8.934 13.008c.326.475.976.596 1.452.271z" fill="#3A3768"/>
    <path d="M198.352 86.356a.32.32 0 01.439.084l.037.051a.317.317 0 00.438.084l3.082-2.11a.318.318 0 00.13-.202.312.312 0 00-.051-.235l-.037-.051a.317.317 0 01.084-.438l.597-.414a.606.606 0 01.839.158l8.906 12.97a.6.6 0 01-.158.834l-5.367 3.664a.603.603 0 01-.835-.158l-8.91-12.97a.6.6 0 01.158-.834l.648-.433z" fill="#FF6363"/>
    <path d="M200.358 85.374l.808-.552a.126.126 0 00-.143-.207l-.807.552a.126.126 0 10.142.207zm-.444.288a.14.14 0 100-.279.14.14 0 00-.14.14c0 .077.063.14.14.14z" fill="#E6E8EC"/>
    <path d="M174.409 290.726c0 .279.042.549.065.819.467 5.056 1.842 7.291 1.842 7.291s1.599 20.484 1.898 25.689c.191 3.259-.606 5.456-1.226 6.644a5.882 5.882 0 01-.672 1.056l-1.002 2.198 4.704 9.395 5.507 9.097 3.805 4.995s2.797.401 3.404 0c.606-.4 2.998 0 2.998 0l2.205-3.398-2.471-3.338-.933-1.257c-.802-6.7-3.357-15.797-3.357-15.797v-13.692s1.157-31.383.355-36.686a28.019 28.019 0 010-9.092s3.501-9.898 2.797-10.996c-.704-1.099 1.502-5 1.502-5l4.196-11.83.243-.694-.933-2.267-23.621-2.98s.186 1.863.391 4.819v.065c.122 1.713.243 3.799.341 6.127.326 7.83.354 18.343-1.133 26.373a50.42 50.42 0 00-.905 12.459z" fill="#FBBEBE"/>
    <path opacity=".1" d="M174.474 291.545l1.241-1.904a41.86 41.86 0 017.605-5.796c4.308-2.5 5.306-8.38 5.129-9.195-.178-.815.601-8.38.601-8.38v-19.209l-12.92-1.396c.513 7.481 1.142 22.118-.793 32.588-1.068 5.68-1.156 10.061-.863 13.292z" fill="#000"/>
    <path d="M134.17 339.521l1.002 9.194 4.901 2.896s4.509.503 3.707-3.496a5.889 5.889 0 01-.075-1.299c.201-4.884 4.579-15.191 4.579-15.191s4.196-11.094 7.707-14.497c3.059-2.961 15.336-21.677 18.418-26.402l.704-1.085a42.09 42.09 0 017.61-5.796c4.303-2.5 5.306-8.38 5.129-9.195-.177-.815.597-8.38.597-8.38v-19.209l-12.319-1.313-11.107-1.187s.247 2.17.564 4.931c.537 4.562 1.292 10.74 1.539 11.364.406 1.001 1.306 6.983 1.306 6.983s-.705 2.696-1.203 5.196c-.499 2.5-6.995 9.399-6.995 9.399-8.308 6.895-16.617 31.281-16.617 31.281-2.187 4.721-4.663 5.521-5.95 5.587a2.582 2.582 0 01-.858-.079l-1.805 3.3-.834 16.998z" fill="#FBBEBE"/>
    <path opacity=".1" d="M175.314 334.423l4.704 9.395 5.507 9.097 3.805 4.995s2.797.401 3.404 0c.606-.4 2.998 0 2.998 0l2.205-3.398-2.471-3.338c.648 1.489 1.18 3.347-.131 3.436-2.2.153-6.756 2.001-9.358-4.246-2.601-6.248-6.061-9.046-6.061-9.046l-2.756-6.695-.177-3.454a5.977 5.977 0 01-.671 1.057l-.998 2.197z" fill="#000"/>
    <path d="M174.964 342.417s4.103 10.195 3.954 13.147h2.401l-.401-8.902.038.052c.438.582 4.728 6.354 4.872 9.246 0 0 1.087 2.97 1.054 3.784a.364.364 0 010 .066c-.103.698 3.8 3.999 9.461 3.347 5.66-.652 6.653-1.448 6.653-1.448s.066-.181.15-.465c.279-1.071.732-3.678-1.148-4.968-2.354-1.62-7.264-6.164-7.46-6.336.126.223 2.947 5.121.793 5.284-2.154.163-6.757 2.002-9.358-4.246-2.602-6.248-6.062-9.046-6.062-9.046l-2.756-6.694-.205-3.999s-3.198 1.648-3.497 4.897c-.298 3.25 1.511 6.281 1.511 6.281z" fill="#3F3D56"/>
    <path opacity=".1" d="M178.419 346.514c.285 2.392.989 6.797 1.352 9.05h1.548l-.401-8.902.038.052-.136-.396s-2.821-3.101-2.401.196zm8.44 13.296c-.103.698 3.8 3.999 9.46 3.347 5.661-.652 6.654-1.448 6.654-1.448s.065-.181.149-.465c-3.525.042-12.934 0-16.259-1.485a.292.292 0 01-.004.051zm-52.689-20.289l1.002 9.194 4.901 2.896s4.509.503 3.707-3.496a5.889 5.889 0 01-.075-1.299c-7.567 2.793-8.332-4.6-8.332-4.6l1.352-20.14a4.397 4.397 0 01.905-2.77 2.53 2.53 0 01-.858-.079l-1.805 3.301-.797 16.993z" fill="#000"/>
    <path d="M123.707 336.969l1.431 1.025.672.465 5.758-6.694s0 7.644-1.054 9.492c-.713 1.257-.825 3.562-.825 4.912 0 .633.023 1.057.023 1.057s1.753 3.724 9.461 8.328c3.46 2.063 5.479 1.709 6.649.694 1.441-1.248 1.609-3.492 1.609-3.492l-3.264-5.53c-8.011 3.259-8.808-4.418-8.808-4.418l1.352-20.14c.098-3.05 2.033-3.59 2.033-3.59-8.976-.344-9.391 6.984-9.391 6.984l-5.646 10.907z" fill="#3F3D56"/>
    <path opacity=".1" d="M125.143 337.994l.667.475 5.758-6.695-.653-1.951-5.772 8.171zm4.546 8.184c0 .633.023 1.057.023 1.057s1.753 3.724 9.461 8.329c3.46 2.062 5.479 1.708 6.649.694-3.511-1.085-11.885-4.167-16.133-10.08z" fill="#000"/>
    <path d="M143.495 237.117c4.453 1.532 7.125-8.087 8.393-14.362.588-2.929.863-5.121.863-5.121h-8.197s-.467 1.103-1.105 2.793c-1.819 4.963-4.826 15.009.046 16.69zm36.22-129.788l5.596 13.59v11.695c0 .302 13.913 4.19 13.913 4.19l3.604-8.995s1.101-10.596-2.9-19.395a13.069 13.069 0 01-.545-9.111c.065-.236.135-.469.21-.698a22.944 22.944 0 014.438-7.682s-9.544-3.161-16.1-3.804c-4.126-.4-7.078.196-5.721 3.203a13.32 13.32 0 011.082 6.053c0 .186 0 .377-.038.563-.41 5.605-3.539 10.391-3.539 10.391z" fill="#FBBEBE"/>
    <path opacity=".1" d="M182.224 90.332a13.32 13.32 0 011.082 6.052c0 .186 0 .377-.038.563a.133.133 0 00.038.033 14.796 14.796 0 009.81 3.743 14.59 14.59 0 006.281-1.397c.065-.235.135-.468.21-.698a22.944 22.944 0 014.438-7.682s-9.544-3.16-16.1-3.803c-4.126-.415-7.078.181-5.721 3.189z" fill="#000"/>
    <path d="M177.846 84.13a16.276 16.276 0 005.46 12.254 14.812 14.812 0 009.81 3.738 14.644 14.644 0 006.491-1.508 16.084 16.084 0 006.458-5.992 16.051 16.051 0 002.326-8.491 16.419 16.419 0 00-2.979-9.493 15.031 15.031 0 00-12.296-6.518c-8.43.014-15.27 7.174-15.27 16.01z" fill="#FBBEBE"/>
    <path d="M198.739 135.812s-9.325-8.496-11.913-16.192a85.211 85.211 0 00-6.206-13.892l.69-1.439s3.814 10.135 6.616 11.332c2.803 1.196 9.326 8.096 9.913 12.896l.401-14.595.63-9.633s4.774 10.135 5.175 14.833c.401 4.697-.102 13.194-1.604 14.991a4.897 4.897 0 01-3.702 1.699z" fill="#FF6363"/>
    <path d="M179.221 104.009l.065-.06-.065.06z" stroke="#0FF" stroke-miterlimit="10"/>
    <path opacity=".1" d="M165 244.561s.247 2.17.564 4.93c3.301 1.658 7.064 2.328 10.883 2.384a50.557 50.557 0 0011.978-1.425 88.38 88.38 0 0011.62-3.626l.242-.694-.932-2.267-23.64-2.98s.186 1.863.391 4.819v.065L165 244.561z" fill="#000"/>
    <path d="M160.999 232.317c.065.149.135.326.201.517 1.254 3.678 2.2 14.777 2.2 14.777 13.215 9.148 36.789-1.648 38.184-1.951 1.394-.303 0-2.547 0-2.547s4.462-19.041 4.014-22.491c-.448-3.449 1.049-17.616 1.049-17.616l.728-5.885 2-16.699-15.317-3.297s-18.74 1.9-24.713 4.121c-.278.1-.55.215-.816.344-1.832.903-3.469 3.888-4.788 7.24-.807 2.034-1.492 4.19-2.042 6.126a39.44 39.44 0 00-1.502 10.298c-.13 8.236-.21 24.819.802 27.063z" fill="#3F3D56"/>
    <path opacity=".1" d="M160.999 232.317c.065.149.135.326.201.517.858-5.931 1.669-23.804 1.501-29.651-.2-6.984 7.209-21.793 7.209-21.793l-.588-.126c-.278.1-.55.215-.816.345-2.947 1.452-5.381 8.291-6.826 13.366a39.432 39.432 0 00-1.506 10.298c-.107 8.217-.187 24.805.825 27.044z" fill="#000"/>
    <path opacity=".1" d="M163.717 188.848c.383.252 8.132 5.233 21.155 10.787 13.368 5.694 14.818-17.444 14.818-17.444a23.91 23.91 0 012.556 6.448c.741 2.956 3.65 6.736 5.129 8.501l2-16.7-15.317-3.296s-18.74 1.9-24.713 4.12c-.278.1-.55.215-.816.345-1.855.903-3.492 3.873-4.812 7.239z" fill="#000"/>
    <path d="M155.991 138.927c.9 1.997 0 4.148 0 4.148s13.266 11.443 13.919 9.493c.652-1.951.932 3.3.932 3.3s1.306 1.35 1.007 2.049c-.298.698.247 4.697.247 4.697s.7 2.398.201 2.901c-.499.502-1.25 4.655-1.25 4.655l-1.79 6.639-.313.261c-2.797 2.295-3.156 6.294-3.958 7.295-.802 1.001-1.296 3.897-1.296 3.897s7.805 5.098 21.168 10.796c13.364 5.698 14.818-17.444 14.818-17.444a23.878 23.878 0 012.57 6.424c1.002 3.999 5.959 9.498 5.959 9.498 4.807-.801 8.905-13.944 7.856-14.693-1.049-.75-4.024-10.345-4.024-10.345-4.704-6.546-.466-20.145-.466-20.145s4.304-10.945 4.252-12.742c-.051-1.797 1.003-1.862 1.003-1.862l3.054-20.89s-4.196-1.75-4.556-3.203c-.359-1.452-6.359-3.044-6.359-3.044s.405-.601-2.15-1.453a9.4 9.4 0 01-2.471-1.508 58.195 58.195 0 01-5.526-5.121s-.256 5.949.989 9.39c1.245 3.44 2.154 13.603 2.252 14.353.098.749-3.604 8.594-3.604 8.594l-1.963-2.686c-3.096-4.227-8.799-11.993-9.195-12.356-.555-.498-5.353-13.864-6.02-15.531-.247-.61-.592-.805-.932-.81a1.398 1.398 0 00-.751.242 2.623 2.623 0 00-.331.242l-.117.321-.028.066a6.947 6.947 0 01-.354.8c-3.217 6.304-15.219 10.815-15.219 10.815-3.851 1.35-4.504 4.083-4.504 4.083s.699 2.416-.849 3.617c-1.548 1.202-.9 4.498-.9 4.498s-2.103 4.748-1.562 5.447c.424.6.795 1.236 1.11 1.899 0 0-1.749 1.397-.849 3.413z" fill="#65617D"/>
    <path opacity=".1" d="M194.883 141.659s20.474 3.199 19.523-5.586c-.867-8.012-8.393-24.866-9.726-27.799a57.989 57.989 0 01-5.53-5.121s-.252 5.95.988 9.391c1.24 3.44 2.154 13.598 2.252 14.348.098.75-3.604 8.599-3.604 8.599l-3.903 6.168z" fill="#000"/>
    <path opacity=".1" d="M194.282 141.064s20.474 3.193 19.523-5.587c-.868-8.012-8.393-24.866-9.727-27.799a57.803 57.803 0 01-5.525-5.121s-.257 5.95.984 9.391c1.24 3.44 2.154 13.603 2.256 14.353.103.749-3.604 8.594-3.604 8.594l-3.907 6.169z" fill="#000"/>
    <path d="M194.585 141.064s20.469 3.193 19.518-5.587c-.863-8.012-8.393-24.866-9.727-27.799a57.923 57.923 0 01-5.525-5.121s-.256 5.95.989 9.391c1.245 3.44 2.154 13.603 2.252 14.353.098.749-3.605 8.594-3.605 8.594l-3.902 6.169z" fill="#65617D"/>
    <path opacity=".1" d="M178.181 105.76c0 .061.033.931.075 2.272.079 2.589.205 6.984.27 11.122.075 4.796.075 9.209-.158 9.963-.55 1.751 2.149 6.099 2.149 6.099l13.466 6.443 3.623-5.749-1.683-3.133c-3.096-4.228-8.799-11.993-9.195-12.356-.177-.159-.793-1.639-1.562-3.632-1.641-4.232-4.005-10.768-4.458-11.899a1.68 1.68 0 00-.932-.815.826.826 0 00-.751.247 2.613 2.613 0 00-.466.624v.023a4.69 4.69 0 00-.345.777l-.033.014z" fill="#000"/>
    <path opacity=".1" d="M179.086 105.16c0 .056.032.931.07 2.267.079 2.589.205 6.983.27 11.122.079 4.795.079 9.209-.158 9.963-.551 1.751 2.154 6.099 2.154 6.099l13.461 6.448 3.632-5.75-1.683-3.133c-3.096-4.227-8.794-11.993-9.195-12.356-.177-.158-.788-1.639-1.562-3.631-1.641-4.227-4.005-10.768-4.457-11.9a1.683 1.683 0 00-.933-.81.803.803 0 00-.751.242 2.614 2.614 0 00-.466.629 4.74 4.74 0 00-.345.782l-.037.028z" fill="#000"/>
    <path d="M178.783 105.16c0 .056.032.931.074 2.267.08 2.588.201 6.983.271 11.122.074 4.795.074 9.209-.163 9.963-.546 1.75 2.154 6.099 2.154 6.099l13.466 6.448 3.618-5.755s-.639-1.201-1.679-3.133c-3.096-4.227-8.798-11.992-9.194-12.356-.178-.158-.793-1.638-1.562-3.631-1.642-4.227-4.006-10.768-4.458-11.9a1.67 1.67 0 00-.933-.81.822.822 0 00-.75.242 2.453 2.453 0 00-.466.629c-.139.25-.254.512-.346.782l-.032.033z" fill="#65617D"/>
    <path opacity=".1" d="M196.436 145.961c.623 0 1.128-.873 1.128-1.951 0-1.077-.505-1.95-1.128-1.95-.623 0-1.129.873-1.129 1.95 0 1.078.506 1.951 1.129 1.951z" fill="#000"/>
    <path d="M196.436 145.658c.623 0 1.128-.873 1.128-1.95 0-1.078-.505-1.951-1.128-1.951-.623 0-1.129.873-1.129 1.951 0 1.077.506 1.95 1.129 1.95z" fill="#FF6363"/>
    <path opacity=".1" d="M199.331 166.874c.624 0 1.129-.873 1.129-1.951 0-1.077-.505-1.95-1.129-1.95-.623 0-1.128.873-1.128 1.95 0 1.078.505 1.951 1.128 1.951zm-1.123-11.071c.623 0 1.128-.873 1.128-1.951 0-1.077-.505-1.95-1.128-1.95-.623 0-1.129.873-1.129 1.95 0 1.078.506 1.951 1.129 1.951zm2.252 20.368c.623 0 1.128-.873 1.128-1.951 0-1.077-.505-1.95-1.128-1.95-.623 0-1.129.873-1.129 1.95 0 1.078.506 1.951 1.129 1.951z" fill="#000"/>
    <path d="M199.331 166.576c.624 0 1.129-.873 1.129-1.951 0-1.077-.505-1.95-1.129-1.95-.623 0-1.128.873-1.128 1.95 0 1.078.505 1.951 1.128 1.951zm-1.123-11.071c.623 0 1.128-.873 1.128-1.951 0-1.077-.505-1.95-1.128-1.95-.623 0-1.129.873-1.129 1.95 0 1.078.506 1.951 1.129 1.951zm2.252 20.368c.623 0 1.128-.873 1.128-1.951 0-1.077-.505-1.95-1.128-1.95-.623 0-1.129.873-1.129 1.95 0 1.078.506 1.951 1.129 1.951zm-24.302-56.528c.293-.223 1.655-.53 2.97-.791a69.7 69.7 0 012.658-.466 7.997 7.997 0 013.982-1.862c-1.642-4.227-4.006-10.768-4.458-11.9a1.67 1.67 0 00-.933-.81.822.822 0 00-.75.242 2.48 2.48 0 00-.467.629l-.275 3.059-.074.819s-2.178 1.048-1.725 2.793c.452 1.746-1.53 8.739-.928 8.287z" fill="#FF6363"/>
    <path opacity=".1" d="M198.87 104.592s7.404 10.628 7.325 12.728c-.079 2.1-1.198 0-1.198 0s-3.129-9.278-6.78-2.249l.653-10.479z" fill="#000"/>
    <path d="M198.87 104.289s7.404 10.634 7.325 12.733c-.079 2.1-1.198 0-1.198 0s-3.129-9.278-6.78-2.253l.653-10.48z" fill="#FF6363"/>
    <path d="M218.812 117.977l1.101-1.081s2.877 1.081 3.315 2.477c.438 1.397 1.651 1.034 1.651 1.034a6.595 6.595 0 001.65.596c.466 0 1.129 2.099 1.129 2.099s4.728 1.201 5.129 1.276c.401.074 18.916 17.258 18.916 17.258s-10.659 1.634-12.309.959c-1.651-.675-3.306-.791-4.132-.959-.825-.167-19.443-4.139-19.443-4.139l2.993-19.52z" fill="#65617D"/>
    <path opacity=".1" d="M221.139 108.665l1.949 2.477 8.635-4.898-1.72-2.02c-1.539 2.332-4.281 4.842-8.864 4.441z" fill="#000"/>
    <path d="M248.919 140.71l2.775.931s6.761-.615 6.308-3.539c-.452-2.923-3.38-8.277-3.38-8.277l-4.196-7.165s-1.656-1.965-1.502-2.593c.154-.629-1.954-1.681-1.954-1.681s-1.203-1.573-1.277-2.328c-.075-.754-6.836-6.462-6.836-6.462s-2.331-1.95-1.804-8.547h-5.33s-2.448 9.823-11.81 8.021l12.864 15.294 16.142 16.346z" fill="#65617D"/>
    <path opacity=".1" d="M143.449 220.399a16.648 16.648 0 008.43 2.328c.587-2.929.863-5.121.863-5.121h-8.188s-.485 1.122-1.105 2.793z" fill="#000"/>
    <path d="M158.369 141.063l-2.378 1.998s.467 1.098-.345 1.699c-.811.601 0 5.172 0 5.172a2.723 2.723 0 01-.652 1.672c-.677.8 0 8.598 0 8.598-.19.388-.474.723-.826.974-.466.223-1.804 7.574-1.427 7.947.378.372-5.707 18.068-5.707 18.068s.149 3.072-.676 3.599c-.825.526-.974 4.045-.974 4.045s.373 3.147-1.129 3.748c-1.501.601-1.8 11.248-1.8 11.248s-2.028 5.47-3.231 6.369c0 0 5.707 7.798 16.744 5.549 0 0 .466-9.823 1.8-13.72l3.982-19.865s2.401-8.473 3.301-13.12c.9-4.646 4.859-22.491 4.859-22.491v-6.368l-11.541-5.122z" fill="#65617D"/>
    <path opacity=".1" d="M146.661 196.483c.291 0 .527-.469.527-1.047 0-.579-.236-1.048-.527-1.048-.291 0-.527.469-.527 1.048 0 .578.236 1.047.527 1.047zm-2.103 8.92c.291 0 .527-.469.527-1.047 0-.579-.236-1.048-.527-1.048-.291 0-.526.469-.526 1.048 0 .578.235 1.047.526 1.047zm-1.576 8.171c.291 0 .527-.469.527-1.048 0-.578-.236-1.047-.527-1.047-.291 0-.527.469-.527 1.047 0 .579.236 1.048.527 1.048zm2.626-12.593c.291 0 .526-.469.526-1.048 0-.579-.235-1.048-.526-1.048-.291 0-.527.469-.527 1.048 0 .579.236 1.048.527 1.048zm-2.103 8.696c.291 0 .526-.469.526-1.047 0-.579-.235-1.048-.526-1.048-.291 0-.527.469-.527 1.048 0 .578.236 1.047.527 1.047z" fill="#000"/>
    <path d="M146.661 196.185c.291 0 .527-.469.527-1.047 0-.579-.236-1.048-.527-1.048-.291 0-.527.469-.527 1.048 0 .578.236 1.047.527 1.047zm-2.103 8.92c.291 0 .527-.469.527-1.047 0-.579-.236-1.048-.527-1.048-.291 0-.526.469-.526 1.048 0 .578.235 1.047.526 1.047zm-1.576 8.171c.291 0 .527-.469.527-1.048 0-.578-.236-1.047-.527-1.047-.291 0-.527.469-.527 1.047 0 .579.236 1.048.527 1.048zm2.626-12.593c.291 0 .526-.469.526-1.048 0-.578-.235-1.047-.526-1.047-.291 0-.527.469-.527 1.047 0 .579.236 1.048.527 1.048zm-2.103 8.696c.291 0 .526-.469.526-1.047 0-.579-.235-1.048-.526-1.048-.291 0-.527.469-.527 1.048 0 .578.236 1.047.527 1.047z" fill="#FF6363"/>
    <path opacity=".1" d="M184.732 155.505s-8.113-1.397-10.593 0c-2.481 1.397 10.593 0 10.593 0zm-5.455 7.919s-4.196-6.82-5.451-4.655c-1.254 2.165 5.451 4.655 5.451 4.655zm-19.63 7.575c-.224.223-9.162 10.419-9.083 11.094.079.675 9.083-11.094 9.083-11.094zm80.185-36.137c-.075.228-2.406 4.875-.863 5.401 1.543.526.863-5.401.863-5.401zm-6.98-6.448s-3.53 1.276-4.132 1.863c-.601.586 4.132-1.863 4.132-1.863zm11.936-3.454c-1.65-.075-7.507-1.653-7.735-1.127-.229.526 7.735 1.127 7.735 1.127zm-61.482-28.576c-.248 5.829-3.591 10.945-3.591 10.945l5.596 13.59v3.952c3.804.401 7.814-.423 10.584-3.007-2.196-.717-3.534-2.896-4.556-4.968a57.435 57.435 0 01-3.044-7.523c-.56-1.727-.849-4.027.69-5 .704-.466 1.636-.466 2.289-.987.844-.675.9-1.955.611-2.994-.033-.111-.065-.223-.103-.33-.68-2.02-2.284-3.617-3.264-5.526a9.984 9.984 0 01-.592-7.407 9.259 9.259 0 011.077-2.328 9.988 9.988 0 018.659-4.488c.872.037 1.94.093 2.383-.652.345-.568.098-1.303.21-1.96.331-2.002 2.797-2.444 5.129-3.068a15.03 15.03 0 00-12.296-6.517c-8.43 0-15.27 7.16-15.27 15.996a16.278 16.278 0 005.488 12.272z" fill="#000"/>
    <path d="M199.672 77.706c-.112.656.135 1.397-.205 1.965-.467.74-1.516.684-2.383.647a9.785 9.785 0 00-10.21 9.286 9.765 9.765 0 001.062 4.932c1.026 2.011 2.751 3.678 3.362 5.852.289 1.043.233 2.328-.611 2.998-.648.526-1.586.54-2.29.987-1.538.973-1.249 3.259-.69 5a56.874 56.874 0 003.05 7.524c1.016 2.071 2.331 4.25 4.551 4.967-3.208 2.989-8.067 3.631-12.357 2.724-4.289-.908-8.164-3.138-11.955-5.345-1.557-.903-3.203-1.904-3.963-3.534-1.035-2.216-.112-4.79.545-7.141a2.857 2.857 0 00.08-1.835c-.294-.707-1.059-1.075-1.768-1.396-2.993-1.248 2.798-2.328 0-3.985-2.797-1.658-5.343-3.93-6.621-6.91-2.177-5.07-.214-11.117 3.264-15.404 3.479-4.288-.597-7.277 3.852-10.55 2.835-2.09 5.595-4.344 8.747-5.908a24.04 24.04 0 0120.567-.135c3.231 1.513 5.866 3.953 9.037 5.587 1.562.805 4.989 1.825 4.117 4.06-1.32 3.407-8.594 2.08-9.181 5.614z" fill="#3F3D56"/>
    <path opacity=".1" d="M168.315 201.237s11.191 10.195 8.808 10.195c-2.383 0-8.808-10.195-8.808-10.195zm-1.604 3.999s7.409 6.983 5.208 7.593c-2.201.61-5.208-7.593-5.208-7.593zm-3.063-16.877s.615.401 1.799 1.108c2.01-2.011 4.957-5.246 5.913-7.854 1.501-4.101.9-15.991.9-15.991-.504.498-1.255 4.655-1.255 4.655l-1.785 6.639-.313.261c-2.798 2.295-3.157 6.294-3.959 7.295-.802 1.001-1.3 3.887-1.3 3.887z" fill="#000"/>
    <path d="M47.849 350.28a4.054 4.054 0 004.056-4.05 4.054 4.054 0 00-4.056-4.051 4.054 4.054 0 00-4.057 4.051 4.054 4.054 0 004.057 4.05zm35.591-19.051a4.053 4.053 0 004.056-4.05 4.054 4.054 0 00-4.057-4.051 4.054 4.054 0 00-4.056 4.051 4.053 4.053 0 004.056 4.05z" fill="#3F3D56"/>
    <path d="M24.032 315.028c4.895-.247 16.907-.545 19.313-1.746 2.406-1.201 28.53-28.939 28.53-28.939l7.806-11.392 12.767-5.396 10.659-12.156 8.416-5.372s-1.809.568-1.958-1.224a4.278 4.278 0 00-.336-1.341 3.334 3.334 0 00-.975-1.341 2.084 2.084 0 00-2.144-.307c-1.949.749-27.585 5.097-27.585 5.097s-8.001 1.351-15.36 11.095a124.727 124.727 0 01-13.987 15.74l-19.975 23.841s-10.067 13.688-5.171 13.441z" fill="#FF6363"/>
    <path d="M23.971 320.926l19.821 25.303.709-.33 37.581-17.491L97.4 312.965s33.189-34.916 35.739-40.182c2.551-5.265-7.329-13.943-7.329-13.943-7.778-13.646-12.04-9.446-12.04-9.446l-37.665 10.34h-.028l-.191.237c-2.924 3.105-36.038 38.297-46.833 49.317l-.023.027c-1.534 1.569-2.616 2.645-3.082 3.059-3.926 3.464-1.977 8.552-1.977 8.552z" fill="#FF6363"/>
    <path opacity=".1" d="M23.971 320.926l19.821 25.303.71-.33c10.485-13.143 36.34-45.294 43.59-51.849 9.158-8.287 6.911-13.455 6.911-13.455l-7.81-10.642c-5.89-10.904-10.678-10.28-11.083-10.201h-.028l-.196.219-46.846 49.321-.024.028c-1.534 1.569-2.616 2.644-3.082 3.059-3.912 3.459-1.963 8.547-1.963 8.547z" fill="#000"/>
    <path d="M114.67 258.407l-3.306-2.849s-7.502-1.639-13.81 5.698l2.252 2.7s5.702-6.597 14.864-5.549z" fill="#3F3D56"/>
    <path opacity=".1" d="M114.67 258.407l-3.306-2.849s-7.502-1.639-13.81 5.698l2.252 2.7s5.702-6.597 14.864-5.549z" fill="#000"/>
    <path d="M120.228 274.901l32.131-41.667-1.949-.763-32.737 40.931 2.555 1.499zm-11.111 3.446l32.406-41.528-1.623-2.1-33.79 41.831 3.007 1.797z" fill="#65617D"/>
    <path d="M141.099 237.918c-.35-.112-3.507-2.85-3.507-2.85a23.217 23.217 0 019.708-8.342c3.483-1.592 7.381-2.835 8.966-1.397 0 0 2.751 3.366-.503 5.982l-2.332-.586s-3.506-3.897-9.213 3.496l-3.119 3.697z" fill="#3F3D56"/>
    <path d="M155.763 231.307l-4.252 4.362-3.204-1.452 3.73-4.744 1.977.596 1.749 1.238z" fill="#3F3D56"/>
    <path opacity=".1" d="M57.16 274.897c.247-.252 14.65-14.716 18.819-17.691 3.646-2.598 27.09-8.282 33.25-9.744a3.334 3.334 0 00-.975-1.341c-5.875 1.583-24.8 6.676-30.774 8.189-7.054 1.783-20.115 20.294-20.32 20.587z" fill="#000"/>
    <path opacity=".1" d="M110.469 250.315l-34.294 9.06-52.143 55.653v-1.597l51.145-54.354 35.292-8.762zm70.519-126.207c4.295.908 9.153.265 12.361-2.724-2.196-.721-3.534-2.895-4.555-4.967a56.78 56.78 0 01-3.045-7.523c-.564-1.728-.853-4.027.685-5 .709-.466 1.642-.466 2.294-.987.844-.676.9-1.956.606-2.999-.606-2.174-2.331-3.84-3.361-5.852a9.765 9.765 0 014.214-13.132 9.806 9.806 0 014.934-1.086c.867.038 1.94.093 2.383-.647.34-.573.097-1.308.205-1.965.592-3.533 7.861-2.206 9.176-5.586.867-2.235-2.555-3.26-4.117-4.06-3.171-1.639-5.805-4.078-9.037-5.587a31.308 31.308 0 00-1.627-.684c1.174.333 2.32.756 3.427 1.266 3.231 1.513 5.866 3.953 9.037 5.587 1.562.81 4.989 1.83 4.117 4.064-1.31 3.38-8.584 2.053-9.172 5.587-.112.656.135 1.397-.205 1.965-.466.74-1.515.684-2.383.647a9.802 9.802 0 00-8.664 4.491 9.776 9.776 0 00-1.537 4.806 9.774 9.774 0 001.067 4.93c1.026 2.016 2.751 3.683 3.362 5.857.289 1.043.233 2.328-.611 2.998-.648.526-1.581.54-2.289.987-1.539.973-1.25 3.259-.69 5a56.748 56.748 0 003.026 7.524c1.016 2.071 2.354 4.245 4.551 4.967-3.208 2.989-8.067 3.627-12.357 2.724a23.502 23.502 0 01-3.38-.992c.531.149 1.054.279 1.585.391z" fill="#000"/>
  </g>
  <defs>
    <linearGradient id="projectlink-business-woman__paint0_linear" x1="141.425" y1="363.241" x2="141.425" y2="60.089" gradientUnits="userSpaceOnUse">
      <stop stop-color="gray" stop-opacity=".25"/>
      <stop offset=".54" stop-color="gray" stop-opacity=".12"/>
      <stop offset="1" stop-color="gray" stop-opacity=".1"/>
    </linearGradient>
    <clipPath id="projectlink-business-woman__clip0">
      <path fill="#fff" d="M0 0h439v384H0z"/>
    </clipPath>
  </defs>
</svg>
