<svg width="129" height="25" fill="none" xmlns="http://www.w3.org/2000/svg">
  <path d="M12.519 20.231a6.745 6.745 0 01-4.316-.776 6.755 6.755 0 01-3.24-4.073 6.755 6.755 0 01.59-5.17 6.747 6.747 0 014.072-3.24l.009-.002a6.724 6.724 0 015 .505 6.755 6.755 0 013.402 4.16 6.755 6.755 0 01-.681 5.33 5.525 5.525 0 002.84-.179 9.222 9.222 0 00.236-5.839 9.221 9.221 0 00-4.427-5.565 9.268 9.268 0 00-4.275-1.166 9.383 9.383 0 00-2.791.361 9.23 9.23 0 00-5.565 4.427 9.23 9.23 0 00-.805 7.066 9.23 9.23 0 004.427 5.565 9.23 9.23 0 007.065.805 9.382 9.382 0 001.773-.71 10.609 10.609 0 01-3.314-1.499z" fill="#363636"/>
  <path d="M22.944 3.366a9.23 9.23 0 00-7.066-.805 9.383 9.383 0 00-1.773.71A10.607 10.607 0 0117.42 4.77a6.745 6.745 0 014.315.777 6.755 6.755 0 013.24 4.073 6.755 6.755 0 01-.59 5.17 6.747 6.747 0 01-4.071 3.24l-.01.002a6.724 6.724 0 01-5-.505 6.755 6.755 0 01-3.402-4.16 6.756 6.756 0 01.682-5.33 5.525 5.525 0 00-2.84.178 9.222 9.222 0 00-.236 5.84 9.221 9.221 0 003.954 5.284 9.472 9.472 0 00.698.402 9.267 9.267 0 004.05 1.045 9.384 9.384 0 002.79-.362 9.23 9.23 0 005.565-4.427 9.23 9.23 0 00.805-7.066 9.234 9.234 0 00-4.427-5.565z" fill="#545454"/>
  <path fill-rule="evenodd" clip-rule="evenodd" d="M46.65 9.845c0-3.202-2.238-5.486-5.372-5.486H35.5v15.673h2.575V15.33h3.202c3.134 0 5.373-2.284 5.373-5.485zm-2.574 0c0 1.836-1.254 3.179-2.955 3.179h-3.045V6.666h3.045c1.701 0 2.955 1.343 2.955 3.179zm3.246 10.187V9.598h2.44v2.015c.381-1.477 1.635-2.149 2.777-2.149.38 0 .694.023.963.09v2.239c-.38-.045-.582-.045-.963-.045-1.724 0-2.776 1.298-2.776 3.672v4.612h-2.44zm6.292-5.217c0 3.067 2.06 5.485 5.507 5.485 3.448 0 5.508-2.418 5.508-5.485s-2.06-5.485-5.508-5.485-5.507 2.418-5.507 5.485zm5.507 3.314c1.97 0 3.068-1.41 3.068-3.314 0-1.903-1.097-3.313-3.068-3.313-1.97 0-3.067 1.41-3.067 3.313 0 1.903 1.097 3.314 3.067 3.314zm6.224-11.844c0 1.007.74 1.813 1.814 1.813 1.075 0 1.813-.806 1.813-1.813 0-1.008-.738-1.814-1.813-1.814s-1.814.806-1.814 1.814zm.157 18.583c-.694 0-1.142-.067-1.433-.224v-2.172c.314.067.582.09.918.09.65 0 .94-.336.94-1.075V9.599h2.441v12.604c0 1.724-1.007 2.665-2.866 2.665zM69.6 14.815c0 3.38 2.038 5.485 5.329 5.485 2.507 0 4.478-1.365 4.791-3.313h-2.463c-.403.806-1.12 1.186-2.328 1.186-1.769 0-2.843-.895-2.91-2.552h7.746c.045-.582.067-.918.067-1.343 0-2.933-2.015-4.948-4.993-4.948-3.179 0-5.239 2.15-5.239 5.485zm2.418-1.052h5.419c-.023-1.612-.963-2.508-2.642-2.508-1.724 0-2.754 1.03-2.777 2.508zm8.262 1.052c0 3.246 1.948 5.485 5.194 5.485 2.91 0 4.724-1.544 4.948-3.873h-2.44c-.269 1.097-1.03 1.702-2.508 1.702-1.724 0-2.754-1.187-2.754-3.314s1.03-3.313 2.754-3.313c1.478 0 2.239.626 2.508 1.813h2.44c-.224-2.396-2.037-3.985-4.948-3.985-3.246 0-5.194 2.239-5.194 5.485zm16.097 3.157c.381 0 1.901-.052 2.147-.097v2.15c-.38.068-2.012.141-2.729.141-1.186 0-3.38-.157-3.38-3.672v-4.858h-1.77V9.599h1.77V6.441h2.44v3.156h2.396v2.038h-2.396v4.299c0 1.813.56 2.037 1.522 2.037zm2.351-13.613v15.673h2.441V4.36h-2.44zm5.665 3.74c-1.075 0-1.814-.807-1.814-1.814 0-1.008.739-1.814 1.814-1.814 1.074 0 1.813.806 1.813 1.814 0 1.007-.739 1.813-1.813 1.813zm1.209 1.5h-2.418v10.433h2.418V9.598zm2.015 0h2.44v1.455c.649-1.12 1.858-1.724 3.403-1.724 2.508 0 3.806 1.41 3.806 4.142v6.56h-2.44v-5.44c0-2.217-.582-3.18-2.284-3.18-1.589 0-2.485 1.052-2.485 2.888v5.732h-2.44V9.598zm16.5 4.992l4.523-4.993h-3.09l-3.963 4.59V4.36h-2.418v15.673h2.418v-4.77l3.851 4.77h3.202l-4.523-5.44z" fill="#000"/>
</svg>
