<svg fill="none" xmlns="http://www.w3.org/2000/svg" viewBox="0 0 420 306">
  <g clip-path="url(#projectlink-engineer__clip0)">
    <path opacity=".1" d="M412.883 244.493c-10.402 21.499-31.537 35.874-53.431 45.355a196.916 196.916 0 01-55.009 14.701c-3.63.431-7.271.766-10.924 1.004-9.334.609-18.699.599-28.032-.032a211.734 211.734 0 01-16.782-1.792 211.445 211.445 0 01-56.115-16.364 202.038 202.038 0 01-15.149-7.614 193.703 193.703 0 01-23.68-15.509 189.714 189.714 0 01-4.92-3.895l-.666-.545c-1.273-1.051-2.534-2.126-3.814-3.169a55.455 55.455 0 00-6.761-4.856c-.16-.094-.321-.188-.485-.278a30.423 30.423 0 00-4.215-1.993c-4.523-1.726-9.368-2.353-14.28-2.248-.814 0-1.629.055-2.448.11a57.134 57.134 0 00-3.435.345l-.423.059a77.835 77.835 0 00-10.782 2.318c-5.46 1.569-10.822 3.531-16.22 5.299a153.843 153.843 0 01-6.9 2.126l-.51.142a75.564 75.564 0 01-10.03 2.102 55.826 55.826 0 01-22.956-1.851l-.258-.075-.478-.141-.654-.204a58.196 58.196 0 01-3.263-1.134l-.654-.251a50.318 50.318 0 01-3.067-1.298l-.654-.298a56.26 56.26 0 01-3.066-1.542c-.36-.188-.717-.392-1.07-.584a65.143 65.143 0 01-7.747-5.107 63.242 63.242 0 01-7.586-6.852c-.13-.13-.251-.263-.372-.393a60.124 60.124 0 01-1.826-2.063c-.219-.259-.438-.517-.654-.784a58.442 58.442 0 01-2.033-2.632c-.097-.13-.191-.263-.285-.392a56.76 56.76 0 01-6.608-11.964 7.705 7.705 0 01-.153-.392 62.166 62.166 0 01-1.43-4.107 41.634 41.634 0 01-.493-1.757c-.05-.172-.098-.349-.14-.521-2.163-8.524-2.41-17.384-2.41-26.194v-3.079c.063-14.25.283-28.743 2.382-42.797 0-.098.027-.196.043-.29a133.76 133.76 0 012.863-14.05 103.76 103.76 0 014.821-14.239c4.83-11.374 11.852-21.725 19.65-31.32 9.4-11.543 20.171-22.196 32.168-30.986 1.723-1.263 3.47-2.49 5.24-3.68l.82-.537c.285-.192.571-.392.857-.56a66.963 66.963 0 011.77-1.134l.666-.416 1.27-.785.39-.223.678-.393.67-.392a91.765 91.765 0 012.377-1.357 125.341 125.341 0 0110.513-5.24c1.057-.468 2.121-.92 3.192-1.353a112.464 112.464 0 0114.942-4.907 95.976 95.976 0 015.675-1.255c2.246-.434 4.503-.794 6.772-1.08 3.611-.454 7.242-.725 10.881-.811 25.583-.624 51.426 7.715 71.475 23.699 7.99 6.37 15.169 13.913 24.142 18.796 7.834 4.252 17.003 6.013 25.392 2.667 6.933-2.765 11.445-4.138 19.231-3.718a160.985 160.985 0 0147.121 9.868c.611.224 1.222.456 1.829.687 39.445 15.12 73.36 45.146 90.977 83.731.465 1.02.918 2.047 1.359 3.083 10.508 24.573 14.3 53.383 2.702 77.341z" fill="#FF6363"/>
    <path opacity=".1" d="M78.4 108.803v148.721l-.51.141a75.409 75.409 0 01-10.03 2.102 55.81 55.81 0 01-22.955-1.851l-.259-.075-.478-.141-.654-.204a59 59 0 01-3.262-1.133l-.655-.252a50.318 50.318 0 01-3.066-1.298l-.654-.298a56.64 56.64 0 01-3.067-1.541c-.36-.189-.717-.393-1.07-.585a65.188 65.188 0 01-7.747-5.107 63.234 63.234 0 01-7.586-6.852c-.13-.13-.25-.263-.372-.392a60.26 60.26 0 01-1.825-2.064 58.442 58.442 0 01-2.687-3.416c-.098-.129-.192-.263-.286-.392a56.753 56.753 0 01-6.608-11.963 8.121 8.121 0 01-.152-.393 62.34 62.34 0 01-1.43-4.106 42.103 42.103 0 01-.493-1.758 12.576 12.576 0 01-.141-.521c-2.162-8.524-2.41-17.384-2.41-26.194v-3.079c.064-14.25.283-28.743 2.382-42.797 0-.098.028-.196.043-.29a133.81 133.81 0 012.863-14.05h39.997v-20.212h7.975V92.568h17.163v16.235H78.4zm334.484 135.69c-10.403 21.499-31.537 35.874-53.432 45.355a196.916 196.916 0 01-55.009 14.701c-3.63.431-7.271.766-10.924 1.004-9.334.609-18.699.599-28.032-.032a211.266 211.266 0 01-16.782-1.792 211.445 211.445 0 01-56.115-16.364 202.038 202.038 0 01-15.149-7.614 193.703 193.703 0 01-23.68-15.509 187.589 187.589 0 01-4.92-3.895l-.666-.545c-1.273-1.051-2.534-2.126-3.814-3.169a55.455 55.455 0 00-6.761-4.856c-.16-.094-.321-.188-.485-.278a30.423 30.423 0 00-4.215-1.993v-60.84h72.69v13.544h31.901v-99.071h37.549v39.616h18.573v-23.456h15.346V94.243h7.05V79.652c.611.223 1.222.455 1.829.686v13.905h6.862v25.072h15.333v23.455h22.611v89.364h35.94v-64.99h11.581c10.524 24.582 14.316 53.391 2.719 77.349z" fill="#FF6363"/>
    <path opacity=".1" d="M265.495 118.048h-16.783v16.807h16.783v-16.807zm0 34.838h-16.783v16.808h16.783v-16.808zm0 34.843h-16.783v16.807h16.783v-16.807zm0 34.842h-16.783v16.808h16.783v-16.808zm0 34.839h-16.783v16.807h16.783V257.41zm0 34.834v13.273a211.29 211.29 0 01-16.783-1.792v-11.481h16.783zm-68.314-81.856h-58.746v7.614h58.746v-7.614zm0 23.122h-58.746v7.614h58.746v-7.614zm0 23.123v7.609h-43.413c-1.66-1.27-3.3-2.569-4.919-3.894l-.666-.546c-1.273-1.051-2.534-2.126-3.815-3.169h52.813zm0 23.118v7.614h-4.583a202.25 202.25 0 01-15.15-7.614h19.733zM304.45 163.559h-10.923v10.94h10.923v-10.94zM67.884 112.576H56.96v10.939h10.924v-10.939zm0 25.417H56.96v10.939h10.924v-10.939zm0 25.413H56.96v10.939h10.924v-10.939zm0 25.417H56.96v10.94h10.924v-10.94zm0 25.417H56.96v10.94h10.924v-10.94zm0 25.413H56.96v10.94h10.924v-10.94zm278.275-76.094h-10.923v10.94h10.923v-10.94zm-41.709 26.986h-10.923v10.939h10.923v-10.939zm41.709 0h-10.923v10.939h10.923v-10.939zm-41.709 26.99h-10.923v10.939h10.923v-10.939zm41.709 0h-10.923v10.939h10.923v-10.939zm-41.709 26.99h-10.923v10.939h10.923v-10.939zm41.709 0h-10.923v10.939h10.923v-10.939zm-41.709 26.986h-10.923v10.939h10.923v-10.939zm41.709 0h-10.923v10.939h10.923v-10.939zm-52.632 34.042v-7.056h10.923v6.052l-10.923 1.004zM2.39 143.069v6.275h41.778v-6.275H2.39zm3.72 5.883H3.043v-5.491H6.11v5.491zm3.72 0H6.765v-5.491h3.067v5.491zm3.722 0h-3.067v-5.491h3.067v5.491zm3.72 0h-3.066v-5.491h3.067v5.491zm3.721 0h-3.066v-5.491h3.066v5.491zm3.721 0h-3.067v-5.491h3.067v5.491zm3.721 0h-3.067v-5.491h3.067v5.491zm3.72 0H29.09v-5.491h3.067v5.491zm3.722 0H32.81v-5.491h3.067v5.491zm3.72 0h-3.066v-5.491h3.066v5.491zm3.917 0h-3.262v-5.491h3.262v5.491zM2.39 161.292v6.256h41.778v-6.256H2.39zm3.72 5.864H3.043v-5.472H6.11v5.472zm3.72 0H6.765v-5.472h3.067v5.472zm3.722 0h-3.067v-5.472h3.067v5.472zm3.72 0h-3.066v-5.472h3.067v5.472zm3.721 0h-3.066v-5.472h3.066v5.472zm3.721 0h-3.067v-5.472h3.067v5.472zm3.721 0h-3.067v-5.472h3.067v5.472zm3.72 0H29.09v-5.472h3.067v5.472zm3.722 0H32.81v-5.472h3.067v5.472zm3.72 0h-3.066v-5.472h3.066v5.472zm3.917 0h-3.262v-5.472h3.262v5.472zM2.39 179.511v6.256h41.778v-6.256H2.39zm3.72 5.864H3.043v-5.472H6.11v5.472zm3.72 0H6.765v-5.472h3.067v5.472zm3.722 0h-3.067v-5.472h3.067v5.472zm3.72 0h-3.066v-5.472h3.067v5.472zm3.721 0h-3.066v-5.472h3.066v5.472zm3.721 0h-3.067v-5.472h3.067v5.472zm3.721 0h-3.067v-5.472h3.067v5.472zm3.72 0H29.09v-5.472h3.067v5.472zm3.722 0H32.81v-5.472h3.067v5.472zm3.72 0h-3.066v-5.472h3.066v5.472zm3.917 0h-3.262v-5.472h3.262v5.472zM2.39 197.715v6.276h41.778v-6.276H2.39zm3.72 5.884H3.043v-5.492H6.11v5.492zm3.72 0H6.765v-5.492h3.067v5.492zm3.722 0h-3.067v-5.492h3.067v5.492zm3.72 0h-3.066v-5.492h3.067v5.492zm3.721 0h-3.066v-5.492h3.066v5.492zm3.721 0h-3.067v-5.492h3.067v5.492zm3.721 0h-3.067v-5.492h3.067v5.492zm3.72 0H29.09v-5.492h3.067v5.492zm3.722 0H32.81v-5.492h3.067v5.492zm3.72 0h-3.066v-5.492h3.066v5.492zm3.917 0h-3.262v-5.492h3.262v5.492zM2.55 215.95c.149.589.317 1.177.493 1.757v-1.365H6.11v5.492H4.473c.047.129.098.263.153.392h39.558v-6.276H2.55zm7.28 5.884H6.765v-5.492h3.067v5.492zm3.722 0h-3.067v-5.492h3.067v5.492zm3.72 0h-3.066v-5.492h3.067v5.492zm3.721 0h-3.066v-5.492h3.066v5.492zm3.721 0h-3.066v-5.492h3.066v5.492zm3.721 0h-3.067v-5.492h3.067v5.492zm3.72 0H29.09v-5.492h3.067v5.492zm3.722 0H32.81v-5.492h3.067v5.492zm3.72 0h-3.066v-5.492h3.067v5.492zm3.917 0h-3.262v-5.492h3.262v5.492zM11.233 234.17c.094.129.188.262.286.392h2.033v2.632c.215.263.434.522.654.784v-3.412h3.066v5.491h-1.241c.121.13.243.263.372.392h27.765v-6.275l-32.935-.004zm9.76 5.883h-3.066v-5.491h3.066v5.491zm3.721 0h-3.067v-5.491h3.067v5.491zm3.72 0h-3.066v-5.491h3.067v5.491zm3.722 0h-3.067v-5.491h3.067v5.491zm3.72 0H32.81v-5.491h3.067v5.491zm3.721 0h-3.066v-5.491h3.066v5.491zm3.917 0h-3.263v-5.491h3.263v5.491zM31.74 252.389c.353.2.71.392 1.07.585v-.193h3.067v1.734l.654.298v-2.032h3.067v3.33l.654.252v-3.582h3.262v4.707l.654.204v-5.303H31.741zM160.568 88.74s-9.338-.565-8.225 5.985a1.603 1.603 0 00.83 1.687s0-.487.956-.322c.335.055.675.071 1.014.047a2.11 2.11 0 001.242-.51s2.624-1.086 3.646-5.381c0 0 .752-.938.725-1.177l-1.567.675s.541 1.137.118 2.083c0 0-.051-2.04-.357-1.993-.059 0-.818.392-.818.392s.928 1.985.227 3.425c0 0 .266-2.44-.513-3.28l-1.136.656s1.085 2.047.348 3.718c0 0 .192-2.561-.579-3.558l-1.007.785s1.019 2.016.392 3.404c0 0-.082-2.985-.615-3.212a6.03 6.03 0 00-1.014 1.098s.697 1.463.266 2.236c0 0-.266-1.985-.486-1.997 0 0-.873 1.318-.963 2.22.04-.836.299-1.648.752-2.353a2.63 2.63 0 00-1.34.694s.137-.93 1.567-1.012c0 0 .724-.996.92-1.059 0 0-1.414-.117-2.271.263 0 0 .756-.878 2.53-.478l.991-.812s-1.861-.255-2.648.027c0 0 .905-.784 2.914-.212l1.081-.647a9.852 9.852 0 00-2.53-.22s.995-.537 2.847.048l.784-.35s-1.175-.227-1.5-.262c-.326-.036-.361-.13-.361-.13a4.021 4.021 0 012.182.243s1.625-.62 1.598-.721zm-24.511 31.877s-3.192 8.802 3.396 9.606c.302.148.643.198.974.141.331-.058.636-.218.871-.459 0 0-.458-.153-.035-1.012a4.44 4.44 0 00.336-.957c.099-.449.05-.919-.141-1.338 0 0-.293-2.828-4.116-5.028 0 0-.681-.992-.92-1.032l.195 1.707s1.242-.197 2.029.478c0 0-1.958-.529-2.009-.223 0 .058.145.898.145.898s2.162-.33 3.341.753c0 0-2.264-.949-3.286-.436l.305 1.248s2.268-.455 3.658.721c0 0-2.397-.906-3.572-.451l.467 1.177s2.22-.392 3.372.585c0 0-2.883-.785-3.247-.322.2.457.456.887.76 1.283 0 0 1.602-.251 2.216.392 0 0-1.977-.31-2.048-.106 0 0 1.014 1.216 1.853 1.569a4.793 4.793 0 01-2.033-1.393c-.052.513.047 1.03.286 1.487 0 0-.854-.392-.529-1.785 0 0-.752-.976-.752-1.176 0 0-.517 1.321-.392 2.255 0 0-.626-.977.259-2.565l-.494-1.177s-.783 1.714-.728 2.553c0 0-.486-1.094.627-2.863l-.31-1.22a9.764 9.764 0 00-.928 2.354s-.235-1.11.85-2.722l-.114-.84s-.548 1.051-.677 1.369c-.13.318-.227.306-.227.306.09-.742.384-1.444.849-2.028 0 0-.125-1.749-.231-1.749zm61.895-7.421s-3.188 8.817 3.396 9.602a1.6 1.6 0 001.849-.322s-.462-.153-.035-1.008c.149-.305.261-.628.332-.961a2.113 2.113 0 00-.137-1.337s-.293-2.828-4.116-5.029c0 0-.685-.988-.924-1.027l.199 1.702s1.242-.192 2.029.482c0 0-1.958-.529-2.013-.227 0 .063.145.898.145.898s2.162-.326 3.345.753c0 0-2.264-.945-3.29-.435l.309 1.251s2.268-.459 3.658.722c0 0-2.401-.91-3.576-.455l.467 1.176s2.22-.392 3.372.585c0 0-2.879-.785-3.247-.318.207.459.47.889.783 1.283 0 0 1.598-.255 2.217.392 0 0-1.978-.31-2.048-.102 0 0 1.01 1.212 1.848 1.569a4.756 4.756 0 01-2.029-1.393 2.668 2.668 0 00.282 1.487s-.849-.392-.524-1.781c0 0-.752-.98-.756-1.176 0 0-.513 1.325-.392 2.255 0 0-.627-.973.259-2.565l-.494-1.177s-.783 1.714-.728 2.55c0 0-.486-1.091.626-2.86l-.313-1.224a9.764 9.764 0 00-.928 2.354s-.231-1.11.853-2.722l-.113-.84s-.548 1.051-.682 1.369c-.133.318-.227.306-.227.306a4.064 4.064 0 01.854-2.028s-.141-1.745-.251-1.749zm-88.477 71.968s-3.192 8.805 3.396 9.609a1.583 1.583 0 001.844-.321s-.458-.153-.035-1.008c.151-.306.264-.628.337-.961.101-.449.051-.92-.141-1.338 0 0-.294-2.828-4.117-5.024 0 0-.681-.993-.92-1.032l.196 1.702s1.245-.192 2.029.483c0 0-1.959-.53-2.01-.228 0 .063.145.899.145.899s2.162-.326 3.341.753c0 0-2.264-.946-3.286-.436l.306 1.252s2.267-.459 3.658.721c0 0-2.397-.91-3.572-.455l.466 1.177s2.221-.392 3.372.584c0 0-2.879-.784-3.247-.317.201.456.456.887.76 1.282 0 0 1.602-.255 2.221.393 0 0-1.982-.31-2.052-.102 0 0 1.014 1.212 1.852 1.569a4.775 4.775 0 01-2.033-1.389 2.638 2.638 0 00.286 1.483s-.854-.393-.528-1.781c0 0-.749-.981-.752-1.177 0 0-.517 1.326-.392 2.256 0 0-.627-.973.258-2.566l-.493-1.176s-.783 1.714-.725 2.549c0 0-.485-1.09.627-2.859l-.313-1.22a9.72 9.72 0 00-.929 2.353s-.235-1.114.85-2.722l-.113-.843s-.549 1.051-.678 1.369c-.129.317-.227.306-.227.306a4.018 4.018 0 01.854-2.028s-.129-1.757-.235-1.757zM96.808 102.17s-3.188 8.802 3.396 9.606a1.603 1.603 0 001.849-.318s-.462-.153-.036-1.012c.148-.306.26-.629.333-.961a2.1 2.1 0 00-.137-1.333s-.293-2.828-4.12-5.029c0 0-.681-.992-.92-1.031l.2 1.706s1.24-.196 2.024.478c0 0-1.958-.529-2.009-.223 0 .059.145.898.145.898s2.162-.33 3.345.753c0 0-2.264-.949-3.29-.435l.305 1.247s2.268-.459 3.662.722c0 0-2.4-.91-3.576-.451l.466 1.176s2.221-.392 3.373.589c0 0-2.879-.785-3.247-.322.2.457.456.887.76 1.283 0 0 1.602-.251 2.22.392 0 0-1.978-.31-2.048-.106 0 0 1.011 1.216 1.849 1.569a4.822 4.822 0 01-2.033-1.392 2.639 2.639 0 00.286 1.486s-.854-.392-.525-1.785c0 0-.752-.976-.756-1.176 0 0-.513 1.322-.392 2.255 0 0-.63-.977.259-2.565l-.498-1.177s-.783 1.714-.724 2.554c0 0-.486-1.095.627-2.864l-.314-1.22a9.785 9.785 0 00-.928 2.354s-.231-1.11.85-2.722l-.11-.84s-.552 1.052-.681 1.365c-.13.314-.227.31-.227.31a4.02 4.02 0 01.853-2.028s-.121-1.753-.23-1.753zm23.673 47.932s2.463 9.021 8.307 5.883a1.597 1.597 0 001.324-1.326s-.462.142-.607-.804a4.363 4.363 0 00-.282-.976 2.074 2.074 0 00-.882-1.012s-1.868-2.142-6.266-1.734c0 0-1.128-.412-1.348-.306l1.144 1.275s.905-.875 1.935-.785c0 0-1.915.706-1.774.977.031.055.634.651.634.651s1.567-1.518 3.165-1.318c0 0-2.393.534-2.934 1.546l.968.843s1.59-1.683 3.407-1.526c0 0-2.487.643-3.184 1.695l1.065.702s1.567-1.612 3.094-1.467c0 0-2.796 1.031-2.839 1.612.428.257.885.462 1.363.608 0 0 1.175-1.13 2.033-.969 0 0-1.798.89-1.735 1.098 0 0 1.527.392 2.408.204a4.769 4.769 0 01-2.459.039c.252.449.63.814 1.088 1.048 0 0-.924.168-1.457-1.154 0 0-1.175-.364-1.3-.529 0 0 .345 1.381.979 2.071 0 0-1.073-.435-1.265-2.248l-1.085-.678s.357 1.847.874 2.502c0 0-1.026-.612-1.136-2.698l-.956-.816c.093.846.296 1.677.603 2.471 0 0-.826-.784-.869-2.714l-.576-.624s.157 1.177.231 1.51c.075.334 0 .392 0 .392a4.036 4.036 0 01-.47-2.149s-1.108-1.353-1.198-1.294zm66.834 8.056s2.463 9.021 8.303 5.884a1.59 1.59 0 001.328-1.326s-.466.141-.611-.785a4.126 4.126 0 00-.278-.976 2.104 2.104 0 00-.885-1.012s-1.869-2.142-6.267-1.73c0 0-1.128-.416-1.344-.31l1.14 1.275s.905-.875 1.935-.785c0 0-1.915.706-1.77.977.027.055.634.651.634.651s1.567-1.518 3.165-1.318c0 0-2.397.534-2.938 1.546l.972.843s1.566-1.683 3.403-1.526c0 0-2.483.643-3.18 1.695l1.065.702s1.567-1.612 3.091-1.467c0 0-2.797 1.031-2.836 1.612.426.258.883.462 1.359.608 0 0 1.175-1.13 2.033-.969 0 0-1.794.89-1.735 1.098 0 0 1.527.392 2.412.204a4.784 4.784 0 01-2.463.039c.253.448.631.812 1.089 1.048 0 0-.925.168-1.457-1.154 0 0-1.175-.364-1.297-.529 0 0 .341 1.381.975 2.071 0 0-1.073-.435-1.265-2.248l-1.085-.686s.357 1.847.878 2.503c0 0-1.026-.612-1.136-2.699l-.96-.816c.093.847.297 1.678.607 2.471 0 0-.83-.784-.873-2.714l-.576-.624s.157 1.177.231 1.51c.075.334 0 .393 0 .393a4.04 4.04 0 01-.47-2.15s-1.104-1.365-1.194-1.306z" fill="#FF6363"/>
    <path d="M162.24 248.757s20.32-6.853 16.113-31.132l-25.81-6.711-5.993 19.922 15.69 17.921z" fill="#CED7E7"/>
    <path opacity=".1" d="M146.55 230.836l15.686 17.921s20.32-6.853 16.113-31.132l-31.799 13.211z" fill="#000"/>
    <path d="M61.167 51.466s2.741 4.467 6.49 2.235c3.748-2.232.152-8.398.152-8.398s-7.179-.984-6.642 6.163z" fill="#FED253"/>
    <path opacity=".1" d="M67.657 53.701a3.862 3.862 0 01-3.02.51c-1.375-.349-2.432-1.408-3-2.102a6.556 6.556 0 01-.47-.64c-.192-2.55.599-4.067 1.696-4.961 1.508-1.228 3.595-1.28 4.496-1.24.278 0 .439.04.439.04l.074.125c.106.2.337.643.584 1.235.838 1.942 1.837 5.46-.8 7.033z" fill="#000"/>
    <path d="M164.238 216.484l14.1 1.141 26.241.216-20.676 25.495s-6.56.357-7.911 1.283c-1.352.926-20.324.431-20.324.431l-3.063-13.069 11.633-15.497z" fill="#FFA2A2"/>
    <path opacity=".05" d="M164.238 216.484l14.1 1.141 26.241.216-20.676 25.495s-6.56.357-7.911 1.283c-1.352.926-20.324.431-20.324.431l-3.063-13.069 11.633-15.497z" fill="#000"/>
    <path d="M149.977 147.936l3.278 5.57.713 9.712s2.284 8.28 3.995 10.708c1.712 2.428 2.425 8.856 2.425 8.856s.712 5.998 1.566 7.28c.854 1.283 1.998 10.591 1.998 10.591s7.559 15.136 14.401 16.992c0 0-33.938 11.139-16.113 31.131 0 0-12.69 3.138-15.686-.427-2.996-3.566-10.837-56.408-10.837-56.408l2.424-44.558 11.836.553z" fill="#CED7E7"/>
    <path opacity=".05" d="M149.977 147.936l3.278 5.57.713 9.712s2.284 8.28 3.995 10.708c1.712 2.428 2.425 8.856 2.425 8.856s.712 5.998 1.566 7.28c.854 1.283 1.998 10.591 1.998 10.591s7.559 15.136 14.401 16.992c0 0-33.938 11.139-16.113 31.131 0 0-12.69 3.138-15.686-.427-2.996-3.566-10.837-56.408-10.837-56.408l2.424-44.558 11.836.553z" fill="#000"/>
    <path d="M108.801 93.654a30.632 30.632 0 00.823 14.866l-5.28 15.137s-40.212-22.421-36.79-27.85c1.94-3.078 2.186-11.225 2.03-17.697-.114-4.918-.463-8.864-.463-8.864s49.35 4.86 42.782 16.14a26.658 26.658 0 00-3.102 8.269z" fill="#FFA2A2"/>
    <path opacity=".1" d="M111.903 85.386a26.658 26.658 0 00-3.102 8.269 33.226 33.226 0 01-22.382-.754 33.287 33.287 0 01-16.835-14.79c-.114-4.92-.463-8.865-.463-8.865s49.339 4.86 42.782 16.14z" fill="#000"/>
    <path d="M131.866 61.107a33.297 33.297 0 01-13.605 26.876 33.2 33.2 0 01-29.695 4.857 33.22 33.22 0 01-13.246-8.003 33.285 33.285 0 01-8.191-13.14 33.323 33.323 0 014.397-29.81c.47-.662.965-1.307 1.485-1.938a33.245 33.245 0 0110.814-8.629c2.261-1.133 4.647-2 7.108-2.58a33.242 33.242 0 0126.133 4.695 33.349 33.349 0 0114.393 22.342 33.6 33.6 0 01.407 5.33z" fill="#FFA2A2"/>
    <path d="M144.983 197.923c-.497 2.659.126 7.519 1.069 12.465.04.216.083.432.126.648.043.215.106.549.16.819.435 2.126.909 4.233 1.371 6.147.462 1.914.878 3.553 1.23 4.903.533 2.02.897 3.29.897 3.29a606.051 606.051 0 00.223 7.316c0 .447.028.902.039 1.373.02.819.04 1.67.059 2.541 0 .283 0 .565.02.851 0 .938.035 1.895.051 2.848.019 1.31.035 2.62.043 3.891v4.887c-.043 3.04-.165 5.335-.423 5.998a9.21 9.21 0 00-.251.733 24.71 24.71 0 00-.736 3.715l-.666-.546c-1.273-1.051-2.534-2.126-3.815-3.169a55.521 55.521 0 00-6.76-4.856c-.161-.094-.321-.188-.486-.278a24.605 24.605 0 00-1.339-.722 30.536 30.536 0 00-2.875-1.271c-4.524-1.726-9.369-2.353-14.28-2.247-1.959.749-3.232 1.286-3.232 1.286l-2.491.753-.415.126c-2.698.823-6.494 1.992-7.86 2.479-2.209.784-21.39 4.781-21.39 4.781a31.864 31.864 0 01-5.35.981 75.564 75.564 0 01-10.03 2.102 55.81 55.81 0 01-22.956-1.851 3.798 3.798 0 01-.666-.02c.138 0 .27-.031.392-.055l-.478-.141-.654-.204a58.196 58.196 0 01-3.262-1.134l-.654-.251a50.32 50.32 0 01-3.067-1.298l-.654-.298a56.64 56.64 0 01-3.067-1.541c-.36-.189-.717-.393-1.07-.585a62.408 62.408 0 01-3.133-1.875 110.212 110.212 0 01-.262-2.467l-1.528-7.617-.078-.392-1.097-5.492-.078-.392-2.385-11.948-.079-.392L22 216.323l-.078-.392-2.417-11.94-.078-.392-1.097-5.492-.078-.392-2.397-11.963-.079-.392-1.096-5.472-.079-.392-.435-2.158-.654-3.267s-2.087-2.989-4.437-6.523l-.263-.392c-.67-.992-1.359-2.024-2.028-3.036-.224-.333-.44-.663-.655-.988-.326-.495-.642-.977-.947-1.448l-.212-.325-.043-.067c-3.376-5.232-1.116-7.507-1.116-7.507s1.418-1.922 3.247-4.464c.09-.13.184-.259.282-.392.783-1.099 1.645-2.299 2.49-3.499l.655-.934c.247-.349.49-.698.724-1.043.094-.129.184-.263.27-.392 1.806-2.613 3.295-4.891 3.6-5.699.478-1.275 3.525-5.045 6.56-8.351 2.394-2.612 4.775-4.934 5.844-5.491 2.425-1.283 3.423-5.429 3.423-5.429s5.276-1.851 5.989-3.279c.713-1.428 10.696-7.845 10.696-7.845s4.038-2.604 5.672-4.173a3.38 3.38 0 00.599-.702c.568-1.02 4.277-1.86 5.785-2.162.392-.078.634-.121.634-.121a12.78 12.78 0 012.284-3c.615-.546 1.382-2.425 2.029-4.245.7-1.984 1.245-3.895 1.245-3.895 1.144-3.855 3.423-2.714 3.423-2.714a7.847 7.847 0 00.15 1.569c.95 4.707 6.12 6.668 8.835 8.868 2.996 2.424 7.7 8.712 11.41 9.995 3.07 1.063 6.63 5.071 7.758 6.409l.086.102c.188.219.282.345.282.345s2.104-.11 3.384-.133h.467a1.36 1.36 0 00.712-.291c1.273-.867 3.169-3.408 3.995-3.993.995-.717 1.998-12.284 1.998-12.284l.051-.024c3.552-1.667 7.363 15.019 7.363 15.019s6.702 2 7.273 3.428c.11.282.615.784 1.375 1.392a75.336 75.336 0 0011.006 7.002c.086.043.168.086.255.121.077.042.157.08.238.114.145.071.286.133.42.192.211.094.407.173.587.236l.235.082a5.67 5.67 0 011.567.812c.141.102.282.208.419.322a11.09 11.09 0 011.465 1.474c.066.079.129.161.192.24.297.372.564.741.783 1.082.36.527.688 1.074.983 1.64 0 0 5.844 9.998 7.7 11.135 1.857 1.138 2.996 12.713 2.996 12.713l-6.266 23.263s-.294 5.884-.842 11.885c-.306 3.366-.694 6.79-1.156 9.253z" fill="#CED7E7"/>
    <path d="M97.783 113.949s-4.202 2.283-7.484 2.498c-.43.02-.86-.005-1.285-.074-3.439-.522-8.483-3.354-8.483-3.354l5.918-6.499 7.198 3.573 2.648 2.467 1.488 1.389z" fill="#63667E"/>
    <path opacity=".1" d="M131.443 55.776a3.907 3.907 0 01-.505.585c-2.06 1.96-5.718 1.149-8.526.694a31.008 31.008 0 01-7.101-2.056c-1.982-.847-4.36-1.882-6.142-.666-.685.463-1.155 1.204-1.868 1.612-.713.408-1.621.435-2.463.447-2.742 0-5.484.031-8.159-.588-3.99-.934-8.12-3.283-11.914-1.734-2.97 1.208-4.579 4.444-5.382 7.554-.391 1.526-.681 3.138-1.566 4.433-.886 1.294-2.597 2.212-4.054 1.604-2.15-.898-2.468-4.554-5.06-4.738-2.848-.2-2.813 2.745-1.983 4.875 1.23 3.138 2.84 6.276 2.91 9.547a33.336 33.336 0 011.896-35.474 3.583 3.583 0 001.414-1.655 2.15 2.15 0 00.07-.282c.216-1.095-.391-2.244-.426-3.39-.137-2.796 2.886-4.745 5.66-5.098 1.844-.236 3.732-.055 5.58-.114.932-.02 1.858-.144 2.762-.369a13.263 13.263 0 004.308-2.216 33.243 33.243 0 0126.132 4.695 33.306 33.306 0 019.517 9.672 33.382 33.382 0 014.877 12.67l.023-.008z" fill="#000"/>
    <path d="M132.113 53.466a4.313 4.313 0 01-1.175 2.04c-2.06 1.96-5.718 1.145-8.526.69a30.616 30.616 0 01-7.101-2.04c-1.982-.843-4.36-1.879-6.142-.663-.685.463-1.155 1.204-1.868 1.612-.713.408-1.621.436-2.463.444-2.742.02-5.484.035-8.159-.585-3.99-.937-8.12-3.283-11.914-1.737-2.97 1.208-4.579 4.448-5.382 7.558-.391 1.526-.681 3.138-1.566 4.428-.886 1.29-2.597 2.216-4.054 1.608-2.15-.898-2.468-4.553-5.06-4.738-2.848-.2-2.813 2.746-1.982 4.876 1.457 3.714 3.438 7.41 2.788 11.347-.646 0-1.715-.023-2.35-.04.494-.842-.446-1.847-1.382-2.133-.936-.286-2.03-.282-2.742-.965-.713-.682-.717-1.737-.642-2.683.162-2.02.656-4 1.46-5.86.514-1.176 1.176-2.451.784-3.683a10.471 10.471 0 00-.846-1.604c-.815-1.569-.623-3.53.074-5.15.298-.69.513-1.342.76-1.961a8.727 8.727 0 011.336-2.444c.897-1.118 1.774-2.8.783-3.84-.25-.263.25-.443.09-.784a.672.672 0 01-.059-.185c-.046-.413.054-.83.282-1.176a2.88 2.88 0 01.153-.263c.045-.09.096-.176.153-.26a12.464 12.464 0 013.388-3.698c.85-.616 1.845-1.208 2.181-2.204.392-1.177-.297-2.428-.356-3.672-.137-2.796 2.887-4.746 5.66-5.099 2.773-.353 5.647.232 8.35-.486 3.834-1.012 6.529-4.401 10.01-6.303a14.158 14.158 0 0112.456-.447c4.065 1.859 7.132 5.616 11.378 7.028 1.504.502 3.133.703 4.488 1.534 1.567.965 2.519 2.652 3.333 4.315 1.242 2.522 1.493 5.056 2.35 7.727.682 2.118 1.626 4.887 1.704 7.327a7.33 7.33 0 01-.192 2.169z" fill="#896363"/>
    <path opacity=".1" d="M67.253 48.551a1.748 1.748 0 00-.294-1.467c.102.306-.34.482-.098.737.194.204.33.456.392.73zm-.305-2.365c-.047.137-.074.28-.083.423.075-.125.177-.255.083-.423zm64.1 8.362c-2.064 1.962-5.719 1.15-8.535.69a30.433 30.433 0 01-7.093-2.05c-1.986-.848-4.359-1.883-6.145-.668-.682.463-1.152 1.205-1.868 1.613-.717.408-1.622.435-2.464.443-2.742 0-5.483.035-8.162-.589-3.987-.933-8.116-3.275-11.91-1.733-2.97 1.212-4.58 4.448-5.382 7.558-.392 1.526-.678 3.138-1.567 4.433-.889 1.294-2.6 2.212-4.054 1.608-2.15-.902-2.467-4.554-5.06-4.738-2.025-.146-2.589 1.306-2.452 2.918.118-1.232.783-2.181 2.452-2.064 2.593.185 2.91 3.84 5.06 4.739 1.453.608 3.169-.306 4.054-1.608.885-1.303 1.175-2.907 1.567-4.429.803-3.11 2.412-6.35 5.381-7.558 3.795-1.546 7.924.784 11.91 1.733 2.664.624 5.429.605 8.163.585.842 0 1.731-.024 2.464-.44.732-.415 1.175-1.149 1.868-1.615 1.786-1.212 4.159-.177 6.145.666a30.627 30.627 0 007.093 2.056c2.816.455 6.471 1.275 8.535-.694 1.12-1.071 1.457-2.62 1.382-4.315-.062 1.345-.454 2.565-1.382 3.46zM72.713 34.992c-.022.195-.03.391-.023.588.039.816.348 1.632.446 2.428.145-.977-.305-1.997-.423-3.017zM64.754 62.82c.033.118.057.237.075.358a2.82 2.82 0 00-.075-1.212 10.18 10.18 0 00-.846-1.608 4.848 4.848 0 01-.513-1.864c-.08.938.098 1.879.513 2.723a9.98 9.98 0 01.846 1.604zm4.861 14.506l-2.291-.036a.987.987 0 01-.07.855c.645 0 1.719.024 2.35.04a9.67 9.67 0 00.113-2.032 9.195 9.195 0 01-.102 1.173zm-3.748-2.17c-.937-.282-2.025-.286-2.723-.972a2.489 2.489 0 01-.65-1.644c-.058.902 0 1.875.65 2.503.698.686 1.786.69 2.723.972a2.326 2.326 0 011.421 1.177c.396-.812-.513-1.765-1.421-2.035zm71.256 176.343a30.423 30.423 0 00-4.215-1.993c-4.523-1.726-9.368-2.353-14.28-2.248-1.958.75-3.231 1.287-3.231 1.287l-2.491.753-.415.126c-.028-.275-.059-.55-.086-.828-.028-.279-.059-.545-.091-.82-.877-8.319-1.566-16.866-1.566-16.866v-8.241l-.047-21.749-.392-7.171-.184-3.173-.035-.604-.071-1.239-.039-.738a6.54 6.54 0 01-.219-.714 35.162 35.162 0 01-.392-1.769c-.717-3.608-1.614-9.692-1.668-10.927-.071-1.648-1.497-11.501-1.497-11.501-.144-5.424-4.7-15.638-5.847-17.564-1.148-1.926-2.428-13.497-1.998-14.121.224-.333.369-2.306.459-4.126 0-.208.02-.412.027-.612.059-1.424.086-2.612.086-2.612l4.481-.887 1.202-.235.094-.02.039.079c.13.239.533 1.004 1.007 2.008.055.106.106.22.161.334.023.054.051.109.078.164.877 1.922 1.892 4.452 1.849 5.907-.071 2.573 2.855 8.787 2.855 8.787.282 1.427 6.486 15.634 6.486 15.634s5.064 13.925 4.778 16.211c-.286 2.287 2.425 17.423 2.425 17.423l2.78 15.568c1.352 3.068 3.134 10.136 3.134 10.136l.677 4.008.13.765 1.805 10.697.885 5.24s.372 2.785.936 5.883c.047.279.102.561.157.844.348 2.04.841 4.052 1.477 6.021.315.943.567 1.906.756 2.883z" fill="#000"/>
    <path d="M137.608 251.777c-.16-.094-.321-.188-.486-.278a30.423 30.423 0 00-4.214-1.993c-4.524-1.726-9.369-2.353-14.28-2.248-1.958.75-3.231 1.287-3.231 1.287l-2.491.753c-.032-.274-.059-.549-.09-.828a37.155 37.155 0 01-.079-.753c-.877-8.299-1.566-16.807-1.566-16.807v-8.311l-.047-21.695-.392-6.849-.078-1.419-.055-.961-.071-1.271-.07-1.291-.051-.929v-.204c0-.02 0-.043-.028-.067a10.562 10.562 0 01-.262-.941l-.047-.197c-.02-.09-.043-.188-.063-.286-.736-3.346-1.817-10.559-1.876-11.912-.07-1.647-1.496-11.5-1.496-11.5-.145-5.425-4.7-15.639-5.847-17.565-1.148-1.926-2.425-13.497-1.998-14.12.247-.393.392-2.774.486-4.739v-.455c.05-1.212.07-2.157.07-2.157l4.168-.824 1.057-.208.165-.031.391-.078s.513.949 1.128 2.255l.079.165c.896 1.937 1.958 4.573 1.927 6.072-.071 2.573 2.855 8.786 2.855 8.786.282 1.427 6.486 15.634 6.486 15.634s5.064 13.925 4.778 16.211c-.286 2.287 2.425 17.424 2.425 17.424l2.78 15.568c1.352 3.067 3.134 10.135 3.134 10.135l.63 3.734.13.757 1.421 8.441 1.312 7.778s.392 2.773.933 5.884c.05.282.101.564.156.851a43.47 43.47 0 001.477 6.048c.347 1.025.624 2.072.83 3.134z" fill="#63667E"/>
    <path d="M134.075 50.328s-1.496 1.93-2.847 1.93-6.611-.216-9.353-1.071-16.184-1.502-16.184-1.502-19.035.07-19.677-.573c-.642-.643-11.836-4.071-12.976-3.856-.239.047-.822.15-1.602.279l-.893.145c-1.351.216-3.04.467-4.582.651-1.908.224-3.584.337-4.117.141V44.83s2.21-3.217 2.35-4.138c.141-.922 1.998-14.286 6.847-19.067a19.125 19.125 0 019.196-8.63c6.56-2.859 13.12-5.283 13.12-5.283l1.148-.164 3.702-.55c.112-.112.234-.214.364-.305 1.026-.785 4.136-2.491 8.19 1.176l.716 1.146s12.475 2.926 18.248 13.136c5.773 10.21 6.063 20.208 6.49 24.777 0 0-.286 1.287.286 1.785.207.183.404.377.591.58.051.051.102.102.149.157.165.165.317.338.443.479a.181.181 0 01.039.04c.031.036.063.072.098.105l.254.255z" fill="#FED253"/>
    <path opacity=".05" d="M134.075 50.328s-1.496 1.93-2.847 1.93-6.611-.216-9.353-1.07c-2.742-.856-16.184-1.503-16.184-1.503s-19.035.07-19.677-.573c-.642-.643-11.836-4.071-12.976-3.855a73.03 73.03 0 01-1.602.278l-.203-1.255-.051-.31s21.604-4.64 36.006-2.208c14.401 2.431 25.027 5.138 25.027 5.138s-.286 1.287.286 1.785c.207.183.404.377.591.58.051.051.102.102.149.157.165.165.317.337.443.479a.184.184 0 01.039.039c.031.037.063.072.098.106l.254.282z" fill="#000"/>
    <path opacity=".1" d="M132.113 53.466c-2.667.208-7.582-.444-9.733-.761-.611-.09-1.21-.2-1.813-.334-2.307-.502-9.4-1.91-13.708-1.259-5.206.785-19.893-.643-19.893-.643s-9.056-1.855-12.694-3.354c-1.336-.553-3.568-.725-5.789-.45-.566.07-1.129.17-1.684.301-3.032.718-5.59 2.354-5.147 5.143a6.556 6.556 0 01-.47-.64c-.192-2.55.6-4.067 1.696-4.962l.259-.105a31.586 31.586 0 014.08-.875c.216-.035.44-.067.667-.094 3.897-.526 9.533-.644 14.288 1.753 0 0 4.418 2.075 7.414 2.075 2.996 0 27.378.216 33.084 1.855a24.26 24.26 0 003.466.734c2.081.268 4.195.069 6.189-.585a7.345 7.345 0 01-.212 2.2z" fill="#000"/>
    <path opacity=".1" d="M134.075 50.328s-1.496 1.93-2.847 1.93-6.611-.216-9.353-1.071-16.184-1.502-16.184-1.502-19.035.07-19.677-.573c-.642-.643-11.836-4.072-12.976-3.856-.239.047-.822.15-1.602.279l-.893.145a15.877 15.877 0 00-4.582.651c-1.908.224-3.584.337-4.117.141v-.325c.41-.239.84-.446 1.281-.62a34.59 34.59 0 018.108-1.263c3.419-.126 7.418.274 10.93 2.047 0 0 4.419 2.075 7.415 2.075 2.996 0 27.378.212 33.084 1.856 1.137.325 2.295.569 3.467.73 2.57.323 5.18-.052 7.555-1.087a.184.184 0 01.039.039c.031.037.063.072.098.106l.254.298z" fill="#000"/>
    <path d="M61.707 52.042s-4.778-3.644 1.426-6.072c0 0 10.837-3.353 19.039.785 0 0 4.418 2.067 7.414 2.067 2.996 0 27.377.215 33.084 1.859 1.136.326 2.295.57 3.466.73a14.735 14.735 0 008.801-1.675c.392-.216.744-.326.85-.2.356.431.074 2.93-3.063 3.428-2.448.392-8.009-.35-10.348-.69-.607-.09-1.21-.205-1.809-.334-2.307-.502-9.4-1.91-13.728-1.26-5.201.785-19.893-.642-19.893-.642s-9.051-1.856-12.69-3.358c-3.638-1.502-13.904-.208-12.549 5.362z" fill="#FED253"/>
    <path opacity=".1" d="M101.99 13.756c-.392-.565-5.424-4.601-7.477-6.233l3.701-.55c.113-.111.235-.214.365-.305 2.69 2.828 3.411 7.088 3.411 7.088zM85.665 35.403l-1.64 2.428 6.274-.211.14-2.715-4.774.498zm38.286 2.931l.713 2.212 3.995.643-1.712-2.644-2.996-.212zM55.362 112.6c.427.713 14.472 19.219 18.181 18.705 3.71-.513-18.18-18.705-18.18-18.705zm47.059 16.913s3.423 3.287 2.922 4.57c-.502 1.282-2.922-4.57-2.922-4.57zM65.06 152.078s-2.997 14.066-1.426 14.513c1.57.447 1.426-14.513 1.426-14.513zm38.501 54.623c.497 1.428 4.633 10.712 5.561 11.21.928.499-5.561-11.21-5.561-11.21zm48.057-38.129c-.145.498-3.709 3.428-2.926 4.499.784 1.071 2.926-4.499 2.926-4.499zm-27.667 26.06c-.071.361-.783 7.845.572 9.284 1.355 1.44-.572-9.284-.572-9.284z" fill="#000"/>
    <path opacity=".1" d="M160.485 233.511a68.962 68.962 0 01-3.192 1.667 80.419 80.419 0 01-3.548 1.631c-.478.208-.956.412-1.43.608-.72.298-1.433.585-2.138.859-2.143.84-4.207 1.569-6.044 2.185-.712.239-1.394.459-2.028.663-3.196 1.016-5.319 1.569-5.319 1.569a5.771 5.771 0 00-1.477-.122h-.423c-.663.048-1.323.132-1.978.251-4.375.785-10.555 2.985-14.28 4.425a113.85 113.85 0 00-3.231 1.286l-2.491.753-.415.126c-2.699.824-6.494 1.992-7.861 2.479-2.209.784-21.39 4.781-21.39 4.781a31.865 31.865 0 01-5.35.981 97.664 97.664 0 01-13.402.306c-4.489.29-11.75-.698-15.976-1.365l-.674-.106a143.801 143.801 0 01-2.671-.459l.548-.757 11.245-15.537.067-.094 10.477-14.469.391-.526.952-1.314s.572-.784 2.773-.835h.85c1.849.148 3.673.521 5.433 1.11l.509.153c7.586 2.177 19.313 1.631 19.313 1.631s7.297-1.176 13.031-1.882l.426-.055a52.705 52.705 0 015.652-.491c3.494.071 11.053-1.784 11.053-1.784 1.625-.349 2.311-.644 3.227-1.299.122-.086.251-.18.392-.282.392-.294.842-.655 1.422-1.102 1.057-.812 2.542-1.914 4.876-3.46.204-.133.419-.266.65-.392.231-.126.525-.294.807-.435a30.524 30.524 0 017.097-2.354 41.6 41.6 0 016.177-.851h.309c5.875-.314 11.875.694 15.385 4.001a9.655 9.655 0 011.59 1.961c.214.342.405.699.572 1.067.32.702.558 1.439.709 2.196.028.142.052.283.07.424v.126c0 .113.024.227.031.341.314 4.695-4.551 8.939-10.716 12.391z" fill="#000"/>
    <path d="M45.167 255.186s12.69 2.353 19.32 1.926c0 0 12.194.643 18.754-1.283 0 0 19.192-4.001 21.389-4.785 2.197-.785 10.767-3.358 10.767-3.358s16.685-6.997 21.389-5.856c0 0 36.934-9.567 34.294-22.491-2.64-12.924-25.952-9.994-33.292-5.142-7.339 4.852-6.266 5.358-9.909 6.142 0 0-7.559 1.856-11.053 1.785-3.493-.071-19.11 2.428-19.11 2.428s-12.262.573-19.817-1.785c-7.556-2.357-9.056-.286-9.056-.286l-23.676 32.705z" fill="#FFA2A2"/>
    <path opacity=".1" d="M72.686 221.642a.194.194 0 010 .047 2.655 2.655 0 01-.224.843c-1.504 3.695-10.042 13.662-10.042 13.662a27.53 27.53 0 01-1.406 3.459 53.008 53.008 0 01-4.054 6.884 93.214 93.214 0 01-7.375 9.363h-.02c-.337.251-.69.483-1.053.694-.92.549-2.303 1.228-3.608 1.31a3.704 3.704 0 01-.665-.02c.137 0 .27-.031.391-.054l-.477-.142-.654-.204a59 59 0 01-3.263-1.133l-.654-.251a50.968 50.968 0 01-3.067-1.299l-.654-.298a57.01 57.01 0 01-3.067-1.541c-.36-.188-.716-.392-1.069-.585a64.505 64.505 0 01-6.322-4.044c-.783-1.455-1.43-2.745-1.782-3.439-.642-1.291-.697-3.138-.618-4.476 0-.137 0-.267.023-.392.067-.84.169-1.416.169-1.416a20.124 20.124 0 01-1.567-2.448 2.88 2.88 0 01-.439-1.408c.018-.2 0-.402-.055-.596-.301-1.239-1.598-3.369-2.796-4.707-.893-.984-.948-4.664-.862-7.272.051-1.569.149-2.722.149-2.722a.916.916 0 01-.372-.483 11.663 11.663 0 01-.635-2.659c0-.129-.035-.259-.054-.392-.251-1.801-.365-3.609-.365-3.609-2.898-2.114-4.277-5.413-4.92-8.354l-.081-.393a24.744 24.744 0 01-.447-5.491v-.49s.384-8.5 1.457-11.818a5.62 5.62 0 01.137-.393c.08-.208.182-.407.306-.592.391-.522.67-1.506.9-2.671.161-.808.294-1.706.392-2.601a72.572 72.572 0 00.415-5.44l-.724-3.577c-.2-.977-.353-1.961-.458-2.946 0-.129-.032-.259-.047-.392a33.198 33.198 0 01-.098-5.472c0-.133 0-.262.023-.392a33.199 33.199 0 013.196-11.963l.196-.392c.261-.523.535-1.037.822-1.542.208-.373.427-.741.655-1.106a32.292 32.292 0 011.958-2.828 31.859 31.859 0 014.371-4.581c3.956-3.405 7.587-4.884 10.884-4.997 14.421-.51 22.51 25.032 23.818 29.508.125.431.188.666.188.666s5.843 5.856 4.132 8.426a4.423 4.423 0 00-.592 1.851c-.47 3.456.878 9.147.878 9.147s.477 1.569 1.872 5.327l.411 1.098c.873 2.353 1.077 6.303.576 9.841-.482 3.389-1.614 6.386-3.427 7.154-3.71 1.569-2.71 3.138-1.857 4.429.508.925.931 1.894 1.265 2.894a87.907 87.907 0 011.305 3.817 7.799 7.799 0 011.61-.432c.7-.098 1.394-.027 1.527.573.07.322.474.702 1.042 1.083 1.684 1.161 4.802 2.377 4.802 2.377z" fill="#000"/>
    <path d="M71.832 221.641a2.6 2.6 0 01-.223.863c-1.497 3.699-10.043 13.689-10.043 13.689-.39 1.184-.86 2.34-1.406 3.46a49.974 49.974 0 01-3.2 5.597 92.153 92.153 0 01-8.139 10.551l-.09.098s-.345.263-.893.601a10.18 10.18 0 01-3.192 1.341l-.478-.141-.654-.204a58.196 58.196 0 01-3.262-1.134l-.655-.251a50.318 50.318 0 01-3.066-1.298l-.654-.298c-1.045-.486-2.067-1-3.067-1.542-.36-.188-.717-.392-1.07-.584a65.143 65.143 0 01-7.747-5.107 117.537 117.537 0 01-1.214-2.377c-.642-1.29-.697-3.138-.619-4.475 0-.138 0-.267.024-.393.067-.839.168-1.416.168-1.416s-.317-.427-.7-1.008a16.285 16.285 0 01-.655-1.063c-.391-.69-.697-1.388-.638-1.784a.88.88 0 000-.204 1.893 1.893 0 00-.059-.392c-.302-1.24-1.602-3.37-2.8-4.707-.893-.985-.948-4.664-.866-7.272v-.393c.055-1.353.137-2.33.137-2.33-.442-.192-.783-1.616-1.003-3.137l-.058-.393c-.25-1.8-.365-3.608-.365-3.608-2.898-2.114-4.277-5.413-4.915-8.355a23.982 23.982 0 01-.51-6.276v-.098s.338-8.543 1.41-11.865c.044-.141.091-.271.138-.392.094-.204.211-.396.349-.573.595-.831.99-2.832 1.249-4.879l.047-.393c.325-2.745.415-5.44.415-5.44l-.728-3.577a32.713 32.713 0 01-.459-2.946c-.02-.129-.03-.263-.047-.392a33.209 33.209 0 01-.098-5.472c0-.133 0-.263.028-.392a33.122 33.122 0 013.196-11.963 6.95 6.95 0 01.196-.392 30.77 30.77 0 011.676-2.966c.212-.333.427-.663.654-.988a30.12 30.12 0 011.116-1.522l.314-.392a31.983 31.983 0 014.022-4.178c4.308-3.698 8.225-5.126 11.75-4.997 13.885.498 21.679 25.123 22.96 29.508.125.432.188.667.188.667s5.847 5.856 4.136 8.425a4.426 4.426 0 00-.592 1.852c-.474 3.455.878 9.147.878 9.147s.477 1.569 1.872 5.326c.125.349.262.714.391 1.099.874 2.353 1.078 6.303.576 9.841-.481 3.393-1.61 6.385-3.427 7.154-3.705 1.569-2.71 3.138-1.852 4.429.507.925.93 1.893 1.265 2.894.677 1.848 1.3 3.817 1.3 3.817a7.68 7.68 0 01.783-.255 3.995 3.995 0 011.692-.177.751.751 0 01.67.573c.106.471.916 1.055 1.9 1.608a36.112 36.112 0 003.944 1.851z" fill="#CED7E7"/>
    <path opacity=".1" d="M20.28 183.924c1.356-.071 15.902-5.711 18.898-3.785 2.997 1.926 21.542 14.422 21.542 14.422s-11.62-15.207-21.745-18.776c-10.125-3.569-18.695 8.139-18.695 8.139zm20.912 22.993s14.546 2.926 16.755 4.926l-16.755-4.926zm-2.801 21.785c-.211.215-5.483 12.065-5.06 12.065.423 0 4.92-7.06 4.92-7.06l.14-5.005zm9.913-14.219s-4.277 1.502-3.78 1.644c.498.141 3.635-1.001 3.78-1.644zm-4.277 17.925c.713 1.499 2.993 5.998 3.494 5.284.501-.714-3.494-5.284-3.494-5.284zM97.42 113.647l-.612.871s-4.853-3.425-6.846-5.139c-1.994-1.714-6.702 6.139-10.41 8.28-3.71 2.142-9.98 2.715-9.98 2.715s-4.85-4.856-4.7-6.276c.149-1.42-2.28-1.855-2.425-2.856-.145-1-.998-3.855-2.138-5.283-.603-.753-.69-3.111-.635-5.162.392-.078.635-.122.635-.122a12.788 12.788 0 012.283-3c1.285-1.141 3.279-8.139 3.279-8.139 1.14-3.856 3.419-2.714 3.419-2.714 0 5.856 5.992 7.997 8.985 10.425 2.992 2.428 7.7 8.712 11.409 9.998 3.043 1.04 6.603 5.06 7.735 6.402z" fill="#000"/>
    <path d="M97.42 112.788l-.612.874s-4.872-3.416-6.866-5.142c-1.993-1.726-6.701 6.139-10.41 8.28-3.71 2.142-9.98 2.718-9.98 2.718s-4.849-4.859-4.7-6.275c.15-1.416-2.28-1.856-2.424-2.86-.145-1.004-.999-3.855-2.139-5.283-.603-.753-.689-3.111-.634-5.162l.634-.118a12.783 12.783 0 012.284-3c1.284-1.146 3.278-8.14 3.278-8.14 1.14-3.855 3.42-2.718 3.42-2.718 0 5.857 5.992 8.002 8.984 10.43 2.992 2.428 7.7 8.708 11.41 9.994 3.062 1.055 6.622 5.06 7.754 6.402z" fill="#CED7E7"/>
    <path opacity=".1" d="M97.784 113.949s-4.203 2.283-7.485 2.498c-.43.02-.86-.005-1.285-.074 0 0 3.623-2.711 6.987-3.264l1.783.84zm8.558 11.638s-5.3-2.067-7.05 1.043c.058-1.428.082-2.612.082-2.612l5.777-1.146s.556 1.032 1.206 2.42c-.015.185-.015.295-.015.295z" fill="#000"/>
    <path d="M89.014 116.373s6.35-3.817 9.4-3.495c3.2.334 9.4.569 9.4.569s-2.138 4.856-1.852 5.856c.285 1 .356 5.856.356 5.856s-6.415-2.498-7.485 2.142c0 0-3.493-5.213-5.847-6.786a16.017 16.017 0 01-3.972-4.142z" fill="#63667E"/>
    <path opacity=".1" d="M124.879 120.805c-1.853 0-8.413-4.146-9.839-6.856-1.425-2.711-3.423.282-5.275 1.286-1.175.644-5.832-.702-8.343-1.678 1.273-.867 4.093-3.307 4.919-3.891.995-.718 1.998-12.285 1.998-12.285 3.564-1.856 7.414 14.995 7.414 14.995s6.706 2 7.273 3.428c.11.283.615.785 1.375 1.393.784 1.976 1.214 3.608.478 3.608z" fill="#000"/>
    <path d="M124.879 119.946c-1.853 0-8.413-4.142-9.839-6.852-1.425-2.711-3.423.282-5.275 1.282-1.175.644-4.908-.6-7.419-1.569 1.273-.862 3.169-3.404 3.995-3.992.995-.714 1.998-12.281 1.998-12.281 3.564-1.856 7.414 14.995 7.414 14.995s6.706 2 7.273 3.428c.11.282.615.784 1.375 1.392.784 1.965 1.214 3.597.478 3.597z" fill="#CED7E7"/>
    <path d="M150.216 245.058l62.005-51.775a3.314 3.314 0 012.217-.785l23.131.608s1.602 1.177-.748 3.75l-58.491 48.069a3.722 3.722 0 01-2.233.839l-25.294.839a.868.868 0 01-.843-.563.872.872 0 01.256-.982z" fill="#FF6363"/>
    <path d="M180.21 238.688s13.544 19.424 28.592 1.357c15.047-18.066 10.696-27.558 6.133-28.06-4.563-.502-30.237 19.278-34.725 26.703z" fill="#FFA2A2"/>
    <path opacity=".1" d="M271.558 21.444s17.457-33.929 38.09-16.431c0 0 4.504 1.643 4.163 6.413 0 0-1.735-.953-3.113 2.69a17.632 17.632 0 01-1.959 3.66 8.616 8.616 0 01-4.347 3.287s-9.259 6.947-26.41 1.589c0 0-4.849.698-5.632.094l5.636-4.126s2.863 4.255 7.05 4.742c0 0-7.05-4.433-6.244-5.393.165-.197 3.087-2.052 3.087-2.052s5.009 7.378 11.503 7.923c0 0-9.098-4.154-10.403-8.629l4.571-2.553s4.912 8.06 12.287 8.962c0 0-9.361-4.671-11.249-9.453l4.837-1.89s4.947 7.766 11.084 8.476c0 0-10.269-6.492-9.948-8.837 0 0 4.547-1.467 5.942-1.275 0 0 3.677 5.491 7.281 5.59 0 0-6.404-5.068-5.981-5.849 0 0 6.431-.333 9.792 1.224 0 0-4.779-2.663-9.792-2.232 0 0 2.268-2.671 5.225-3.26 0 0-3.545-1.458-6.784 3.358 0 0-5.002.46-5.62 1.016 0 0 2.53-5.209 5.644-7.425 0 0-4.642.82-6.941 7.88l-4.903 1.793s2.98-7.06 5.608-9.242c0 0-4.606 1.57-6.807 9.806l-4.512 2.456s2.103-6.276 4.504-9.34c0 0-3.96 2.378-5.773 10.089l-2.82 1.989s1.618-4.558 2.201-5.825c.584-1.267.29-1.53.29-1.53a16.431 16.431 0 00-3.693 8.147s-5.539 4.471-5.864 4.158zm72.196 18.144s7.889-15.332 17.21-7.425c0 0 2.037.742 1.88 2.895 0 0-.783-.427-1.406 1.22a7.872 7.872 0 01-.877 1.651 3.916 3.916 0 01-1.959 1.487s-4.186 3.138-11.938.718c0 0-2.189.313-2.541.043l2.545-1.867s1.293 1.926 3.189 2.141c0 0-3.181-2-2.82-2.435.07-.087 1.39-.926 1.39-.926s2.264 3.334 5.201 3.581c0 0-4.112-1.879-4.7-3.922l2.068-1.15s2.217 3.644 5.55 4.052c0 0-4.23-2.11-5.091-4.271l2.185-.855s2.233 3.51 5.006 3.832c0 0-4.642-2.934-4.493-3.993 0 0 2.052-.663 2.683-.577 0 0 1.661 2.483 3.29 2.522 0 0-2.894-2.286-2.702-2.64 0 0 2.906-.148 4.418.554 0 0-2.159-1.204-4.418-1.008a4.85 4.85 0 012.35-1.475s-1.602-.66-3.067 1.518c0 0-2.26.208-2.538.459 0 0 1.143-2.354 2.55-3.354 0 0-2.1.369-3.134 3.562l-2.193.823s1.343-3.189 2.534-4.177c0 0-2.084.71-3.079 4.428l-2.036 1.106s.948-2.84 2.033-4.22c0 0-1.79 1.075-2.605 4.558l-1.277.898s.733-2.06.995-2.632c.262-.573.129-.69.129-.69a7.454 7.454 0 00-1.668 3.69s-2.527 2.02-2.664 1.88zm-85.473 17.84s7.888-15.333 17.233-7.425c0 0 2.033.74 1.88 2.898 0 0-.783-.431-1.406 1.216a8.006 8.006 0 01-.877 1.651 3.92 3.92 0 01-1.978 1.487s-4.183 3.138-11.934.718c0 0-2.19.318-2.542.043l2.546-1.867s1.292 1.926 3.184 2.145c0 0-3.181-2.004-2.82-2.44.074-.086 1.394-.925 1.394-.925s2.264 3.334 5.198 3.581c0 0-4.109-1.879-4.7-3.922l2.068-1.146s2.22 3.64 5.553 4.048c0 0-4.23-2.11-5.091-4.271l2.185-.855s2.237 3.51 5.01 3.832c0 0-4.642-2.934-4.497-3.993 0 0 2.057-.663 2.687-.577 0 0 1.661 2.483 3.29 2.526 0 0-2.894-2.29-2.702-2.643 0 0 2.902-.15 4.418.553 0 0-2.162-1.204-4.422-1.008a4.85 4.85 0 012.35-1.475s-1.598-.66-3.063 1.518c0 0-2.26.208-2.538.459 0 0 1.14-2.354 2.55-3.354 0 0-2.1.369-3.134 3.562l-2.22.823s1.347-3.189 2.534-4.173c0 0-2.08.706-3.075 4.424l-2.04 1.106s.951-2.84 2.036-4.22c0 0-1.79 1.075-2.608 4.558l-1.277.898s.732-2.06.995-2.632c.262-.573.133-.69.133-.69a7.414 7.414 0 00-1.669 3.69s-2.514 2.02-2.651 1.88z" fill="#FF6363"/>
  </g>
  <defs>
    <clipPath id="projectlink-engineer__clip0">
      <path fill="#fff" d="M0 0h420v306H0z"/>
    </clipPath>
  </defs>
</svg>
