<svg fill="none" xmlns="http://www.w3.org/2000/svg" viewBox="0 0 241 259">
  <g clip-path="url(#projectlink-searching__clip0)">
    <path d="M152.874 146.948L48.699 173.742a13.79 13.79 0 01-10.424-1.48 13.761 13.761 0 01-6.333-8.402L.437 41.663a13.744 13.744 0 011.482-10.411 13.774 13.774 0 018.412-6.325L107.249 0l24.806 11.092 30.713 119.12a13.75 13.75 0 01-1.482 10.411 13.774 13.774 0 01-8.412 6.325z" fill="#F2F2F2"/>
    <path d="M11.317 28.759a9.808 9.808 0 00-5.99 4.504 9.787 9.787 0 00-1.055 7.413l31.506 122.198a9.801 9.801 0 004.509 5.983 9.822 9.822 0 007.423 1.054l104.175-26.794a9.808 9.808 0 005.99-4.504 9.787 9.787 0 001.056-7.414L128.694 13.924l-21.8-9.748L11.317 28.76z" fill="#fff"/>
    <path d="M131.79 11.722l-16.123 4.147a4.585 4.585 0 01-5.58-3.291L107.02.684a.284.284 0 01.093-.29.286.286 0 01.301-.043l24.421 10.832a.286.286 0 01-.045.539z" fill="#F2F2F2"/>
    <path d="M123.308 116.076l-47.43 12.199a2.295 2.295 0 01-2.402-.841 2.286 2.286 0 011.26-3.592l47.429-12.199a2.317 2.317 0 011.737.246 2.297 2.297 0 011.054 1.4 2.292 2.292 0 01-1.648 2.787zm11.082 5.126l-56.583 14.553a2.294 2.294 0 01-2.79-1.646 2.289 2.289 0 011.648-2.787l56.582-14.553a2.29 2.29 0 012.543 3.38 2.294 2.294 0 01-1.4 1.053z" fill="#CCC"/>
    <path d="M56.52 142.967c4.473 0 8.099-3.621 8.099-8.089 0-4.467-3.626-8.088-8.099-8.088-4.473 0-8.098 3.621-8.098 8.088 0 4.468 3.626 8.089 8.098 8.089z" fill="#E6E6E6"/>
    <path d="M118.265 94.907l-62.992 16.195a7.1 7.1 0 01-8.631-5.091l-13.2-51.219a7.08 7.08 0 01.763-5.363 7.096 7.096 0 014.334-3.258l62.991-16.195a7.104 7.104 0 015.37.763 7.091 7.091 0 013.262 4.328l13.2 51.22a7.076 7.076 0 01-.764 5.362 7.094 7.094 0 01-4.333 3.258z" fill="#fff"/>
    <path d="M118.265 94.907l-62.992 16.195a7.1 7.1 0 01-8.631-5.091l-13.2-51.219a7.08 7.08 0 01.763-5.363 7.096 7.096 0 014.334-3.258l62.991-16.195a7.104 7.104 0 015.37.763 7.091 7.091 0 013.262 4.328l13.2 51.22a7.076 7.076 0 01-.764 5.362 7.094 7.094 0 01-4.333 3.258zm-79.518-47.93a6.26 6.26 0 00-3.824 2.875 6.247 6.247 0 00-.674 4.732l13.2 51.22a6.258 6.258 0 007.617 4.492l62.99-16.196a6.25 6.25 0 004.498-7.607l-13.201-51.218a6.253 6.253 0 00-2.878-3.82 6.269 6.269 0 00-4.738-.673l-62.99 16.196z" fill="#E6E6E6"/>
    <path d="M98.335 47.198L66.544 55.37a1.14 1.14 0 01-1.38-.715 1.096 1.096 0 01.773-1.391l32.36-8.32c1.308.661.964 2.014.037 2.253zm1.435 5.569l-31.791 8.174a1.14 1.14 0 01-1.38-.716 1.096 1.096 0 01.773-1.39l32.361-8.32c1.307.66.963 2.014.036 2.252z" fill="#F2F2F2"/>
    <path d="M61.924 65.879l-9.703 2.494a1.237 1.237 0 01-1.502-.886l-2.947-11.435a1.232 1.232 0 01.887-1.501l9.702-2.495a1.237 1.237 0 011.503.887l2.947 11.435a1.231 1.231 0 01-.887 1.5z" fill="#E6E6E6"/>
    <path d="M102.617 64.195l-48.52 12.474a1.14 1.14 0 01-1.379-.716 1.095 1.095 0 01.773-1.39l49.089-12.621c1.308.661.964 2.014.037 2.253zm1.435 5.571L55.534 82.24a1.14 1.14 0 01-1.38-.715 1.096 1.096 0 01.773-1.391l49.089-12.621c1.307.661.963 2.014.036 2.253zm1.435 5.568L56.969 87.808a1.14 1.14 0 01-1.38-.716 1.093 1.093 0 01.773-1.39L105.45 73.08c1.307.662.963 2.015.036 2.254zm1.436 5.57L58.404 93.38a1.14 1.14 0 01-1.38-.716 1.095 1.095 0 01.773-1.39l49.09-12.622c1.307.662.963 2.015.036 2.253zm1.435 5.568L59.839 98.947a1.14 1.14 0 01-1.38-.716 1.092 1.092 0 01.376-1.197c.118-.09.253-.157.397-.194l49.09-12.62c1.307.66.963 2.014.036 2.252z" fill="#F2F2F2"/>
    <path d="M57.118 137.714a.842.842 0 01-.532-.037l-.01-.004-2.206-.934a.862.862 0 01-.455-.462.843.843 0 01.794-1.161.837.837 0 01.323.068l1.43.607 1.873-4.401a.851.851 0 01.462-.453.837.837 0 01.647.006l-.011.029.011-.029a.848.848 0 01.447 1.108l-2.204 5.175a.854.854 0 01-.569.487v.001z" fill="#fff"/>
    <path d="M192.831 193.514H85.257a13.78 13.78 0 01-9.725-4.03 13.748 13.748 0 01-4.035-9.713V53.588a13.75 13.75 0 014.035-9.714 13.784 13.784 0 019.725-4.03h100.08l21.253 16.92v123.007a13.75 13.75 0 01-4.034 9.713 13.782 13.782 0 01-9.725 4.03z" fill="#E6E6E6"/>
    <path d="M85.257 43.801a9.816 9.816 0 00-6.926 2.87 9.791 9.791 0 00-2.873 6.917V179.77a9.79 9.79 0 002.873 6.917 9.815 9.815 0 006.926 2.87H192.83a9.814 9.814 0 006.925-2.87 9.79 9.79 0 002.873-6.917V58.67L183.951 43.8H85.257z" fill="#fff"/>
    <path d="M171.908 80.492h-48.977a2.29 2.29 0 01-2.292-2.289 2.29 2.29 0 012.292-2.288h48.977a2.294 2.294 0 012.291 2.288 2.286 2.286 0 01-2.291 2.289zm9.452 7.724h-58.429a2.293 2.293 0 01-2.288-2.289 2.287 2.287 0 012.288-2.288h58.429a2.29 2.29 0 110 4.577z" fill="#FF6363"/>
    <path d="M171.908 110.528h-48.975a2.289 2.289 0 00-1.621 3.906c.43.429 1.013.67 1.621.67h48.975a2.293 2.293 0 002.291-2.288 2.293 2.293 0 00-2.291-2.288zm9.452 7.725h-58.427a2.291 2.291 0 00-2.291 2.288 2.288 2.288 0 002.291 2.289h58.427a2.292 2.292 0 002.292-2.289 2.289 2.289 0 00-2.292-2.288zm-9.452 31.467h-48.977a2.291 2.291 0 01-2.292-2.288c0-.607.242-1.189.672-1.618a2.288 2.288 0 011.62-.671h48.977a2.291 2.291 0 012.291 2.289c0 .607-.241 1.189-.671 1.618-.43.429-1.013.67-1.62.67zm9.452 7.724h-58.429a2.293 2.293 0 01-2.288-2.288 2.29 2.29 0 012.288-2.289h58.429a2.298 2.298 0 012.119 1.412 2.276 2.276 0 010 1.753 2.287 2.287 0 01-2.119 1.412z" fill="#CCC"/>
    <path d="M102.536 90.154c4.472 0 8.098-3.621 8.098-8.089 0-4.467-3.626-8.088-8.098-8.088-4.473 0-8.099 3.621-8.099 8.088 0 4.468 3.626 8.09 8.099 8.09z" fill="#FF6363"/>
    <path d="M101.733 85.15a.839.839 0 01-.505-.167l-.009-.007-1.904-1.454a.845.845 0 111.03-1.34l1.232.944 2.913-3.796a.853.853 0 01.561-.324.845.845 0 01.625.167l-.018.026.019-.025a.846.846 0 01.156 1.184l-3.427 4.462a.846.846 0 01-.672.33h-.001z" fill="#fff"/>
    <path d="M111.466 116.679a8.066 8.066 0 01-2.37 5.721 8.115 8.115 0 01-5.727 2.37 1.608 1.608 0 01-.208-.008 8.095 8.095 0 01-7.333-5.135 8.079 8.079 0 011.889-8.744 8.11 8.11 0 018.8-1.659 8.1 8.1 0 013.6 2.982 8.073 8.073 0 011.349 4.473zm-8.93 42.704c4.472 0 8.098-3.622 8.098-8.089 0-4.467-3.626-8.089-8.098-8.089-4.473 0-8.099 3.622-8.099 8.089 0 4.467 3.626 8.089 8.099 8.089zM206.177 57.31h-16.649a4.584 4.584 0 01-3.24-1.341 4.572 4.572 0 01-1.342-3.237V40.451a.29.29 0 01.043-.152.288.288 0 01.421-.072l20.945 16.572a.287.287 0 01-.178.51z" fill="#CCC"/>
    <path d="M111.466 116.679a8.066 8.066 0 01-2.37 5.721 8.115 8.115 0 01-5.727 2.37 1.6 1.6 0 01-.208-.008 17.484 17.484 0 011.572-16.058 8.108 8.108 0 014.825 2.759 8.085 8.085 0 011.908 5.216zm9.173-3.861a2.297 2.297 0 012.294-2.29h12.204a17.297 17.297 0 011.505 4.576h-13.709a2.292 2.292 0 01-2.294-2.286zm16.287 5.435a17.47 17.47 0 01-.609 4.577h-13.384a2.292 2.292 0 01-2.292-2.289 2.289 2.289 0 012.292-2.288h13.993z" fill="#FF6363"/>
    <path d="M167.122 146.479a2.503 2.503 0 01-3.438.832l-29.189-17.783a2.486 2.486 0 01-1.129-1.545 2.497 2.497 0 011.843-3.016 2.501 2.501 0 011.891.295l29.189 17.782a2.497 2.497 0 01.833 3.435z" fill="#3F3D56"/>
    <path d="M137.933 128.696a20.009 20.009 0 01-8.669 7.727 20.038 20.038 0 01-21.972-3.429 19.97 19.97 0 011.758-30.855 20.032 20.032 0 0122.219-.917 20.009 20.009 0 019.02 12.361 19.987 19.987 0 01-2.356 15.113zm-29.9-18.216a14.975 14.975 0 00.689 16.644 15.027 15.027 0 0023.169 1.317 14.985 14.985 0 00-3.227-22.953 15.043 15.043 0 00-11.349-1.765 15.026 15.026 0 00-9.282 6.757z" fill="#3F3D56"/>
    <path d="M202.057 121.492c5.656 0 10.241-4.579 10.241-10.228s-4.585-10.229-10.241-10.229-10.241 4.58-10.241 10.229c0 5.649 4.585 10.228 10.241 10.228zm-.662 47.113a4.591 4.591 0 01.414-3.723 4.588 4.588 0 013.057-2.17c.2-.04.404-.065.608-.075l10.787-17.293-9.853-9.356a3.926 3.926 0 01-.951-4.283 3.919 3.919 0 012.105-2.171 3.92 3.92 0 011.509-.32 3.92 3.92 0 012.807 1.13l13.605 13.399.028.033a3.553 3.553 0 01-.248 4.242l-15.115 17.854c.045.143.083.288.113.436a4.585 4.585 0 01-7.202 4.594 4.606 4.606 0 01-1.664-2.297zm-16.204 85.012h-5.112l-2.432-19.693 7.544.001v19.692z" fill="#A0616A"/>
    <path d="M186.494 258.567l-16.482-.001v-.208a6.404 6.404 0 013.96-5.92 6.423 6.423 0 012.455-.488h.001l10.066.001v6.616z" fill="#4D4C5F"/>
    <path d="M235.999 246.558l-4.392 2.612-12.177-15.677 6.482-3.855 10.087 16.92z" fill="#A0616A"/>
    <path d="M239.654 250.145l-14.162 8.422-.107-.179a6.4 6.4 0 01.371-7.11 6.384 6.384 0 011.859-1.674h.001l8.649-5.144 3.389 5.685z" fill="#4D4C5F"/>
    <path d="M177.002 244.945c-3.424-40.273-5.461-77.687 7.057-92.949l.097-.118 21.066 8.417.035.075c.071.155 7.077 15.547 5.443 25.901l5.197 23.874 16.943 28.336a1.875 1.875 0 01-.855 2.676l-7.363 3.236a1.886 1.886 0 01-2.356-.735l-18.431-30.018-10.41-23.024a.628.628 0 00-1.024-.172.628.628 0 00-.168.363l-5.771 54.179a1.872 1.872 0 01-1.865 1.676h-5.725a1.89 1.89 0 01-1.87-1.717z" fill="#000"/>
    <path d="M184.13 152.316l-.101-.048-.015-.111c-.787-5.501.144-11.613 2.768-18.167a14.432 14.432 0 016.774-7.43 14.458 14.458 0 019.989-1.209 14.441 14.441 0 015.341 2.568 14.4 14.4 0 013.857 4.497 14.242 14.242 0 01.989 11.421c-3.308 9.662-7.599 18.701-7.642 18.792l-.09.188-21.87-10.501z" fill="#FF6363"/>
    <path d="M161.145 138.613a4.587 4.587 0 016.742 1.183c.107.174.202.355.283.543l19.995 4.036 5.324-12.495a3.92 3.92 0 013.683-2.39 3.938 3.938 0 013.603 2.51c.187.483.277 1 .264 1.518a3.934 3.934 0 01-.342 1.503l-7.801 17.421-.022.037a3.56 3.56 0 01-4.064 1.253l-22.037-7.888a4.211 4.211 0 01-.369.258 4.597 4.597 0 01-5.402-.416 4.59 4.59 0 01-1.315-1.881 4.6 4.6 0 01-.114-2.832 4.598 4.598 0 011.572-2.36z" fill="#A0616A"/>
    <path d="M239.053 122.217c-.986-1.745-2.424-3.344-4.323-3.99-2.454-.833-5.111.054-7.634.647-1.943.456-3.974.736-5.933.35-1.959-.385-3.849-1.523-4.74-3.308-1.311-2.625-.207-5.755-.287-8.688a10.545 10.545 0 00-4.244-8.187 10.569 10.569 0 00-9.066-1.729c-2.416-.696-4.603-.76-6.097 1.094a7.09 7.09 0 00-5.012 2.074 7.07 7.07 0 00-2.076 5.006h6.777a6.716 6.716 0 001.024 4.968c1.196 1.756 3.277 3.026 3.677 5.112.388 2.021-.987 3.939-2.43 5.408-1.443 1.469-3.117 2.925-3.568 4.934a6.112 6.112 0 00.877 4.399 14.337 14.337 0 003.08 3.388 45.21 45.21 0 0018.779 9.595c4.88 1.174 10.218 1.478 14.748-.681a14.63 14.63 0 008.26-14.72 14.61 14.61 0 00-1.812-5.672z" fill="#000"/>
    <path d="M240.583 259h-79.221a.417.417 0 110-.833h79.221a.417.417 0 110 .833z" fill="#545454"/>
  </g>
  <defs>
    <clipPath id="projectlink-searching__clip0">
      <path fill="#fff" d="M0 0h241v259H0z"/>
    </clipPath>
  </defs>
</svg>
