<svg width="100%" viewBox="0 0 276 275" fill="none" xmlns="http://www.w3.org/2000/svg">
  <g clip-path="url(#projectlink-new-post__clip0)">
    <path d="M93.949 72.858h45.301a6.513 6.513 0 005.15-2.5 6.625 6.625 0 001.236-5.67 114.806 114.806 0 01.001-53.262 6.624 6.624 0 00-3.524-7.515 6.512 6.512 0 00-2.863-.653H93.949a6.598 6.598 0 00-4.266 1.58 6.613 6.613 0 00-2.233 3.969 192.447 192.447 0 000 58.502 6.613 6.613 0 002.233 3.968 6.598 6.598 0 004.266 1.58z" fill="#E6E6E6"/>
    <path d="M139.249 6.67a3.13 3.13 0 012.474 1.2 3.222 3.222 0 01.599 2.76 118.244 118.244 0 000 54.855 3.224 3.224 0 01-.599 2.76 3.137 3.137 0 01-2.474 1.2h-45.3a3.169 3.169 0 01-3.13-2.654 189.045 189.045 0 010-57.466 3.176 3.176 0 013.13-2.654h45.3z" fill="#fff"/>
    <path d="M103.834 23.08h23.772a3.419 3.419 0 003.409-3.412v-1.334a3.419 3.419 0 00-3.409-3.413h-23.772a3.411 3.411 0 00-3.408 3.413v1.334a3.418 3.418 0 003.408 3.412zm0 16.85h23.772a3.419 3.419 0 003.409-3.413v-1.333a3.419 3.419 0 00-3.409-3.412h-23.772a3.411 3.411 0 00-3.408 3.412v1.334a3.418 3.418 0 003.408 3.412zm0 16.85h23.772a3.419 3.419 0 003.409-3.413v-1.333a3.419 3.419 0 00-3.409-3.412h-23.772a3.411 3.411 0 00-3.408 3.412v1.334a3.411 3.411 0 003.408 3.413zM8.735 116.084h45.3a6.514 6.514 0 005.15-2.499 6.61 6.61 0 001.237-5.669 114.814 114.814 0 010-53.264 6.62 6.62 0 00-1.236-5.669 6.522 6.522 0 00-5.15-2.499H8.734a6.599 6.599 0 00-4.266 1.581 6.613 6.613 0 00-2.233 3.968 192.45 192.45 0 000 58.503 6.612 6.612 0 002.233 3.967 6.591 6.591 0 004.266 1.581z" fill="#E6E6E6"/>
    <path d="M54.035 49.897a3.129 3.129 0 012.474 1.2 3.22 3.22 0 01.599 2.76 118.244 118.244 0 000 54.855 3.221 3.221 0 01-.599 2.76 3.134 3.134 0 01-2.474 1.2h-45.3a3.172 3.172 0 01-3.13-2.655 189.044 189.044 0 010-57.466 3.176 3.176 0 013.13-2.654h45.3z" fill="#fff"/>
    <path d="M99.062 165.283h45.3a6.796 6.796 0 005.374-2.607 6.897 6.897 0 001.289-5.912 114.537 114.537 0 01.001-53.131 6.898 6.898 0 00-1.29-5.912 6.81 6.81 0 00-5.374-2.607h-45.3a6.884 6.884 0 00-4.45 1.65 6.9 6.9 0 00-2.33 4.14 192.73 192.73 0 000 58.589 6.898 6.898 0 002.33 4.14 6.887 6.887 0 004.45 1.65z" fill="#F2F2F2"/>
    <path d="M18.62 74.838h23.772a3.41 3.41 0 003.408-3.412v-1.334a3.418 3.418 0 00-3.408-3.413H18.62a3.41 3.41 0 00-3.408 3.413v1.334a3.418 3.418 0 003.408 3.412zm0 16.85h23.772a3.41 3.41 0 003.408-3.412v-1.334a3.418 3.418 0 00-3.408-3.412H18.62a3.41 3.41 0 00-3.408 3.412v1.334a3.418 3.418 0 003.408 3.412z" fill="#E6E6E6"/>
    <path d="M121.585 143.045c-7.216 0-13.066-5.856-13.066-13.081s5.85-13.082 13.066-13.082c7.217 0 13.067 5.857 13.067 13.082 0 7.225-5.85 13.081-13.067 13.081z" fill="#fff"/>
    <path d="M115.336 128.257h4.545v-4.55a1.71 1.71 0 011.704-1.706 1.706 1.706 0 011.705 1.706v4.55h4.544a1.707 1.707 0 010 3.413h-4.544v4.55a1.707 1.707 0 01-1.705 1.707 1.704 1.704 0 01-1.704-1.707v-4.55h-4.545a1.704 1.704 0 01-1.704-1.706 1.706 1.706 0 011.704-1.707z" fill="#E6E6E6"/>
    <path d="M105.111 9.67h23.86a2.562 2.562 0 002.556-2.56V2.56A2.562 2.562 0 00128.971 0h-23.86a2.557 2.557 0 00-2.557 2.56v4.55a2.557 2.557 0 002.557 2.56zM18.76 53.464h23.86a2.558 2.558 0 002.556-2.56v-4.55a2.564 2.564 0 00-2.556-2.559H18.76a2.558 2.558 0 00-2.556 2.56v4.55a2.564 2.564 0 002.556 2.56z" fill="#CCC"/>
    <path d="M225.669 267.925h-6.965l-2.177-26.896h9.143l-.001 26.896z" fill="#FFB8B8"/>
    <path d="M227.445 265.649l-13.716-.001a8.726 8.726 0 00-6.181 2.563 8.744 8.744 0 00-2.56 6.188v.285h22.457v-9.035z" fill="#2F2E41"/>
    <path d="M263.163 267.925h-6.964l-3.314-26.896h10.28l-.002 26.896z" fill="#FFB8B8"/>
    <path d="M264.94 265.649l-13.716-.001h-.001a8.73 8.73 0 00-6.181 2.563 8.757 8.757 0 00-2.56 6.188v.285h22.457l.001-9.035zm-3.012-6.22a2.834 2.834 0 001.917-.75 2.837 2.837 0 00.918-2.012l2.793-100.225-39.66 9.926-12.236 36.753a40.116 40.116 0 00-2.014 14.688l1.519 35.626a2.837 2.837 0 002.838 2.706h6.651a2.85 2.85 0 002.815-2.462l4.755-39.326a21.529 21.529 0 013.142-8.625l9.356-14.831a.568.568 0 011.044.233l7.343 65.459a2.835 2.835 0 002.662 2.501l5.995.334c.054.003.108.005.162.005z" fill="#2F2E41"/>
    <path d="M234.496 91.553c-7.706 0-13.953-6.254-13.953-13.97 0-7.715 6.247-13.969 13.953-13.969 7.706 0 13.953 6.254 13.953 13.97 0 7.715-6.247 13.97-13.953 13.97z" fill="#FFB8B8"/>
    <path d="M228.086 170.444c.241 0 .48-.03.712-.09h.001l39.348-10.101a2.843 2.843 0 002.081-3.308l-9.037-48.738a17.758 17.758 0 00-10.367-12.82 17.09 17.09 0 00-16.058 1.18 27.8 27.8 0 00-1.649 1.116 17.628 17.628 0 00-7.146 13.951l-.718 55.926a2.852 2.852 0 001.74 2.661c.346.146.718.222 1.093.223z" fill="#FF6363"/>
    <path d="M264.099 171.018a5.73 5.73 0 00-.406-6.959 5.719 5.719 0 00-1.988-1.477l1.75-20.25-9.275 5.033-.24 18.457a5.756 5.756 0 002.775 7.116 5.737 5.737 0 007.384-1.92z" fill="#FFB8B8"/>
    <path d="M260.785 159.903a3.12 3.12 0 002.216-.92c.397-.4.679-.899.817-1.445l4.557-18.135a26.972 26.972 0 00-2.136-18.846l-9.549-18.702a8.839 8.839 0 00-4.061-5.324 8.82 8.82 0 00-6.624-.943 8.717 8.717 0 00-5.383 4.039 8.87 8.87 0 00-.939 6.775l13.593 30.433-.162 18.221a3.138 3.138 0 002.037 2.96l4.549 1.691c.347.13.715.196 1.085.196z" fill="#FF6363"/>
    <path d="M195.718 163.569a5.704 5.704 0 004.119-2.532 5.726 5.726 0 00.706-4.787l16.471-11.882-9.86-3.754-14.13 11.858a5.743 5.743 0 00-3.068 2.693 5.758 5.758 0 001.801 7.422 5.738 5.738 0 003.961.982z" fill="#FFB8B8"/>
    <path d="M204.341 154.893c.485 0 .964-.113 1.399-.331l16.701-8.37a26.941 26.941 0 0012.874-13.915l7.929-19.447a8.846 8.846 0 00-2.226-12.197 8.727 8.727 0 00-6.584-1.446 8.84 8.84 0 00-5.727 3.704l-14.171 30.167-13.899 11.763a3.138 3.138 0 00-.913 3.477l1.687 4.555a3.123 3.123 0 002.93 2.04z" fill="#FF6363"/>
    <path d="M237.426 91.767c-.741.325-2.259-5.59-1.579-6.772 1.011-1.76.951-1.747 1.623-2.91.671-1.165.821-2.758-.048-3.782-.87-1.024-2.881-.888-3.278.396.255-2.439-2.154-4.4-4.541-4.95-2.387-.55-4.904-.209-7.304-.7-2.785-.568-5.683-2.905-4.571-5.972.19-.51.476-.98.841-1.384 1.284-1.445 3.08-2.062 4.836-2.659 3.652-1.241 7.405-2.498 11.26-2.361a16.35 16.35 0 018.804 3.136 16.379 16.379 0 015.652 7.448c.266.746.472 1.511.616 2.29 1.323 7.123-2.809 14.15-9.519 16.862l-2.792 1.358z" fill="#2F2E41"/>
    <path opacity=".2" d="M253.901 155.469l-.316-18.729-9.91-19.947 7.954 20.476 2.272 18.2z" fill="#000"/>
    <path d="M164.041 202.472l41.834-17.402a6.524 6.524 0 003.798-4.286 6.605 6.605 0 00-1.031-5.71 114.762 114.762 0 01-20.412-49.187 6.612 6.612 0 00-6.133-5.586 6.512 6.512 0 00-2.895.496l-41.834 17.402a6.61 6.61 0 00-3.874 7.62 192.324 192.324 0 0022.42 54.025 6.602 6.602 0 008.127 2.628z" fill="#E6E6E6"/>
    <path d="M180.51 123.949a3.11 3.11 0 011.39-.239c.476.027.939.162 1.354.396a3.207 3.207 0 011.611 2.319 118.184 118.184 0 0021.022 50.657 3.218 3.218 0 01.505 2.778v.001a3.146 3.146 0 01-1.825 2.058l-41.833 17.402a3.172 3.172 0 01-3.908-1.25 188.927 188.927 0 01-22.022-53.067 3.177 3.177 0 011.872-3.654l41.834-17.401z" fill="#fff"/>
    <path d="M158.235 162.686l21.953-9.132a3.414 3.414 0 001.84-4.46l-.511-1.232a3.414 3.414 0 00-4.456-1.842l-21.952 9.132a3.414 3.414 0 00-1.84 4.46l.511 1.232a3.414 3.414 0 004.455 1.842zm6.458 15.561l21.953-9.132a3.418 3.418 0 001.839-4.461l-.511-1.231a3.406 3.406 0 00-4.455-1.842l-21.953 9.131a3.42 3.42 0 00-1.839 4.461l.511 1.232a3.411 3.411 0 004.455 1.842z" fill="#FF6363"/>
    <path d="M149.439 140.817c.329 0 .654-.064.958-.188l22.121-8.954a2.56 2.56 0 001.412-3.332l-1.704-4.219a2.555 2.555 0 00-3.328-1.413l-22.121 8.954a2.56 2.56 0 00-1.411 3.332l1.703 4.219a2.57 2.57 0 002.37 1.601zM195.899 275h79.533a.568.568 0 00.402-.971.568.568 0 00-.402-.167h-79.533a.566.566 0 00-.569.569.566.566 0 00.569.569z" fill="#CCC"/>
  </g>
  <defs>
    <clipPath id="projectlink-new-post__clip0">
      <path fill="#fff" transform="matrix(-1 0 0 1 276 0)" d="M0 0h276v275H0z"/>
    </clipPath>
  </defs>
</svg>
