<svg fill="none" xmlns="http://www.w3.org/2000/svg" viewBox="0 0 367 227">
  <g clip-path="url(#projectlink-invest__clip0)">
    <path d="M41.2 220.664h-5.956l-.89-22.986H41.2v22.986z" fill="#FFB8B8"/>
    <path d="M42.718 226.44H23.517v-.244a7.486 7.486 0 012.189-5.288 7.483 7.483 0 015.284-2.19h11.728v7.722z" fill="#2F2E41"/>
    <path d="M74.741 220.664h5.955l.89-22.986H74.74l.001 22.986z" fill="#FFB8B8"/>
    <path d="M73.222 218.718h11.727a7.466 7.466 0 015.285 2.19 7.475 7.475 0 012.19 5.288v.244H73.221v-7.722zm1.675-1a2.197 2.197 0 01-2.134-1.712l-14.76-64.425a.706.706 0 00-.711-.571h-.004a.707.707 0 00-.709.578l-13.554 63.99a2.197 2.197 0 01-2.138 1.734H34.43a2.186 2.186 0 01-2.182-2.317l4.81-81.105 1.934-.573.037.001 38.012.332 8.096 81.016a2.195 2.195 0 01-.499 1.616 2.192 2.192 0 01-1.5.777l-8.066.652a2.58 2.58 0 01-.175.007z" fill="#2F2E41"/>
    <path d="M59.2 59.078c6.588 0 11.93-5.345 11.93-11.938 0-6.594-5.342-11.94-11.93-11.94-6.59 0-11.93 5.346-11.93 11.94 0 6.593 5.34 11.938 11.93 11.938z" fill="#A0616A"/>
    <path d="M51.891 142.782a20.573 20.573 0 01-6.182-.87 13.653 13.653 0 01-8.276-6.988 2.19 2.19 0 01-.163-1.63c1.316-4.494 7.674-27.853 3.618-46.422a19.693 19.693 0 012.795-15.124 19.425 19.425 0 0112.594-8.477c.673-.132 1.35-.24 2.01-.321a19.336 19.336 0 0115.669 5.159 19.844 19.844 0 016.225 15.73l-3.118 50.068a2.172 2.172 0 01-1.165 1.8c-3.59 1.883-14.377 7.075-24.007 7.075z" fill="#CCC"/>
    <path d="M40.056 134.561a5.22 5.22 0 002.788-5.72 5.22 5.22 0 00-.922-2.066l3.902-38.177H37.39l-3.1 37.278a5.25 5.25 0 005.765 8.685z" fill="#A0616A"/>
    <path d="M46.42 70.525a6.92 6.92 0 015.533 7.263l-1.162 16.644a1.944 1.944 0 01-2.507 1.724l-14-4.29a1.942 1.942 0 01-1.245-2.556l5.57-14.488a6.915 6.915 0 017.811-4.297z" fill="#CCC"/>
    <path d="M72.677 38.352a14.655 14.655 0 00-6.431-7.358 14.638 14.638 0 00-9.624-1.675l3.762 3.041c-4.674.158-9.593-.177-12.93 3.101 1.062-.03 2.454 2.245 3.517 2.215-1.986.04-3.787 1.436-4.665 3.22a9.177 9.177 0 00-.54 5.831c.392 1.949 3.384 6.514 4.19 8.332-.14-4.75 9.203-16.077 13.766-14.895a12.52 12.52 0 00-5.78 4.392 16.944 16.944 0 0110.054-1.647c.786.18 1.597.226 2.398.135a2.925 2.925 0 002.323-3.325 2.93 2.93 0 00-.588-1.356l.548-.011z" fill="#2F2E41"/>
    <path d="M151.431 227H-33.632a.486.486 0 110-.972H151.43a.484.484 0 01.343.83.484.484 0 01-.343.142z" fill="#3F3D56"/>
    <path d="M363.6 14.096h-2.914v.486h2.914v-.486zm-8.802.486h-5.888v-.486h5.888v.486zm-11.775 0h-5.888v-.486h5.888v.486zm-11.776 0h-5.887v-.486h5.887v.486zm-11.775 0h-5.888v-.486h5.888v.486zm-11.775 0h-5.888v-.486h5.888v.486zm-11.776 0h-5.887v-.486h5.887v.486zm-11.775 0h-5.887v-.486h5.887v.486zm-11.775 0h-5.888v-.486h5.888v.486zm-11.775 0h-5.888v-.486h5.888v.486zm-11.776 0h-5.887v-.486h5.887v.486zm-11.775 0h-5.888v-.486h5.888v.486zm-11.775 0h-5.888v-.486h5.888v.486zm-11.776 0h-5.887v-.486h5.887v.486zm-11.775 0h-5.888v-.486h5.888v.486zm-11.775 0h-5.888v-.486h5.888v.486zm-11.776 0h-5.887v-.486h5.887v.486zm-11.775-.486h-2.914v.486h2.914v-.486zm101.518 45.206h-2.915v.486h2.915v-.486zm-8.715.486h-5.8v-.486h5.8v.486zm-11.6 0h-5.8v-.486h5.8v.486zm-11.6 0h-5.801v-.486h5.801v.486zm-11.601 0h-5.8v-.486h5.8v.486zm-11.6 0h-5.8v-.486h5.8v.486zm-11.601 0h-5.8v-.486h5.8v.486zm-11.6 0h-5.8v-.486h5.8v.486zm-11.6 0h-5.801v-.486h5.801v.486zm-11.601-.486h-2.914v.486h2.914v-.486zM211.08 80.69h-2.914v.486h2.914v-.487zm-8.881.485h-5.968v-.486h5.968v.487zm-11.936 0h-5.967v-.486h5.967v.487zm-11.935 0h-5.967v-.486h5.967v.487zm-11.935-.485h-2.914v.486h2.914v-.487z" fill="#E6E6E6"/>
    <path d="M363.683 19.448v83.246a15.825 15.825 0 01-4.629 11.166 15.803 15.803 0 01-11.158 4.632H178.862a15.727 15.727 0 01-11.74-5.25v-.743a15.252 15.252 0 0011.643 5.507l29.236-29.257a4.123 4.123 0 014.499-.896c.501.208.956.512 1.34.896l15.538 15.544 36.425-36.446a4.123 4.123 0 015.838 0l21.368 21.378 69.707-69.753.481-.014.223-.005.263-.005z" fill="#FF6363"/>
    <path d="M348.056 118.604H179.022a15.8 15.8 0 01-11.157-4.632 15.817 15.817 0 01-4.629-11.166V15.798a15.816 15.816 0 014.629-11.166A15.797 15.797 0 01179.022 0h169.034a15.8 15.8 0 0111.158 4.632 15.82 15.82 0 014.628 11.166v87.008a15.82 15.82 0 01-4.628 11.166 15.803 15.803 0 01-11.158 4.632zM179.022.486a15.31 15.31 0 00-10.814 4.49 15.334 15.334 0 00-4.487 10.822v87.008a15.333 15.333 0 004.487 10.822 15.31 15.31 0 0010.814 4.49h169.034a15.31 15.31 0 0010.814-4.49 15.333 15.333 0 004.487-10.822V15.798a15.334 15.334 0 00-4.487-10.822 15.31 15.31 0 00-10.814-4.49H179.022z" fill="#3F3D56"/>
    <path d="M179.194 118.533l-.344-.344 29.311-29.332a4.132 4.132 0 015.839 0l15.538 15.55 36.425-36.451a4.132 4.132 0 015.839 0l21.367 21.382 70.259-70.31.343.344-70.602 70.654-21.711-21.727a3.64 3.64 0 00-5.152 0l-36.768 36.795-15.882-15.893a3.646 3.646 0 00-5.152 0l-29.31 29.332zm31.886-34.198a3.4 3.4 0 003.4-3.402 3.401 3.401 0 10-6.8 0 3.401 3.401 0 003.4 3.402z" fill="#3F3D56"/>
    <path d="M267.911 62.947a3.4 3.4 0 003.4-3.402 3.401 3.401 0 10-6.8 0 3.401 3.401 0 003.4 3.402zM363.6 17.742c1.878 0 3.4-1.524 3.4-3.403a3.401 3.401 0 10-6.8 0 3.401 3.401 0 003.4 3.403zM49.17 141.989c7.052 0 12.77-8.142 12.77-18.187 0-10.044-5.718-18.187-12.77-18.187-7.053 0-12.77 8.143-12.77 18.187 0 10.045 5.717 18.187 12.77 18.187z" fill="#3F3D56"/>
    <path opacity=".1" d="M49.17 141.989c7.052 0 12.77-8.142 12.77-18.187 0-10.044-5.718-18.187-12.77-18.187-7.053 0-12.77 8.143-12.77 18.187 0 10.045 5.717 18.187 12.77 18.187z" fill="#000"/>
    <path d="M50.892 141.989c7.052 0 12.77-8.142 12.77-18.187 0-10.044-5.718-18.187-12.77-18.187-7.053 0-12.77 8.143-12.77 18.187 0 10.045 5.717 18.187 12.77 18.187z" fill="#3F3D56"/>
    <path opacity=".1" d="M50.891 139.401c6.049 0 10.953-6.984 10.953-15.599s-4.904-15.599-10.953-15.599c-6.048 0-10.952 6.984-10.952 15.599s4.904 15.599 10.952 15.599z" fill="#000"/>
    <path d="M50.797 131.316v-1.831a4.25 4.25 0 01-2.44-.798l.382-1.214a3.9 3.9 0 002.297.779 1.76 1.76 0 001.898-1.777c0-.997-.622-1.613-1.802-2.157-1.627-.725-2.632-1.559-2.632-3.136a2.852 2.852 0 012.408-2.919v-1.831h.989v1.758c.737.01 1.456.23 2.073.635l-.399 1.196a3.522 3.522 0 00-2.009-.616 1.533 1.533 0 00-1.569.925 1.53 1.53 0 00-.121.634c0 .943.59 1.414 1.977 2.067 1.643.761 2.472 1.704 2.472 3.318a3.034 3.034 0 01-2.52 3.081v1.886h-1.004z" fill="#FF6363"/>
    <path d="M57.727 113.383c.267.031.531.083.79.155l18.286-15.692-1.07-5.758 8.473-2.75 2.882 10.009a3.89 3.89 0 01-1.655 4.362l-23.159 14.666a5.106 5.106 0 01-3.219 4.824 5.097 5.097 0 01-6.932-4.059 5.105 5.105 0 012.625-5.171 5.09 5.09 0 012.979-.586z" fill="#A0616A"/>
    <path d="M73.394 71.124a6.907 6.907 0 017.94 4.504l5.465 15.764a1.945 1.945 0 01-1.63 2.57l-14.558 1.56a1.941 1.941 0 01-2.148-1.863l-.566-15.512a6.92 6.92 0 015.497-7.023z" fill="#CCC"/>
  </g>
  <defs>
    <clipPath id="projectlink-invest__clip0">
      <path fill="#fff" d="M0 0h367v227H0z"/>
    </clipPath>
  </defs>
</svg>
