<svg width="168" height="631" fill="none" xmlns="http://www.w3.org/2000/svg">
  <path d="M13.5 143a1.5 1.5 0 00-3 0h3zm-2.56 487.061a1.501 1.501 0 002.12 0l9.547-9.546a1.5 1.5 0 00-2.122-2.122L12 626.879l-8.485-8.486a1.501 1.501 0 00-2.122 2.122l9.546 9.546zM10.5 143v486h3V143h-3z" fill="#E0E0E0"/>
  <path d="M13.5 14v143.6h-3V14h3zm36.9 180.5H165v3H50.4v-3zm-36.9-36.9c0 6.745.001 11.714.322 15.641.32 3.909.948 6.654 2.13 8.974l-2.673 1.362c-1.433-2.814-2.113-5.997-2.447-10.092-.333-4.077-.332-9.189-.332-15.885h3zm36.9 39.9c-6.696 0-11.808.001-15.885-.332-4.095-.335-7.278-1.014-10.092-2.447l1.362-2.673c2.32 1.182 5.065 1.811 8.974 2.13 3.927.321 8.896.322 15.641.322v3zm-34.448-15.285a22.508 22.508 0 009.833 9.833l-1.362 2.673a25.502 25.502 0 01-11.144-11.144l2.673-1.362z" fill="#E0E0E0"/>
  <path d="M167.061 194.939a1.502 1.502 0 010 2.122l-9.546 9.546a1.502 1.502 0 01-2.122 0 1.502 1.502 0 010-2.122l8.486-8.485-8.486-8.485a1.502 1.502 0 010-2.122 1.502 1.502 0 012.122 0l9.546 9.546zM165 194.5h1v3h-1v-3z" fill="#E0E0E0"/>
  <rect width="14" height="14" rx="7" transform="matrix(1 0 0 -1 5 14)" fill="#E0E0E0"/>
  <path d="M13.5 277v143.6h-3V277h3zm36.9 180.5H165v3H50.4v-3zm-36.9-36.9c0 6.745.001 11.714.322 15.641.32 3.909.948 6.654 2.13 8.974l-2.673 1.362c-1.433-2.814-2.113-5.997-2.447-10.092-.333-4.077-.332-9.189-.332-15.885h3zm36.9 39.9c-6.696 0-11.808.001-15.885-.332-4.095-.335-7.278-1.014-10.092-2.447l1.362-2.673c2.32 1.182 5.065 1.811 8.974 2.13 3.927.321 8.896.322 15.641.322v3zm-34.448-15.285a22.508 22.508 0 009.833 9.833l-1.362 2.673a25.502 25.502 0 01-11.144-11.144l2.673-1.362z" fill="#E0E0E0"/>
  <path d="M167.061 457.939a1.502 1.502 0 010 2.122l-9.546 9.546a1.502 1.502 0 01-2.122 0 1.502 1.502 0 010-2.122l8.486-8.485-8.486-8.485a1.502 1.502 0 010-2.122 1.502 1.502 0 012.122 0l9.546 9.546zM165 457.5h1v3h-1v-3z" fill="#E0E0E0"/>
</svg>
